<svg xmlns="http://www.w3.org/2000/svg" xmlns:xlink="http://www.w3.org/1999/xlink" viewBox="0 0 114.34 110.87"><defs><style>.cls-1{fill:none;}.cls-2{fill:#fff;}.cls-3{clip-path:url(#clip-path);}.cls-4{fill:#ff97ba;}.cls-5{fill:#fca4c6;}.cls-6{fill:#ffe1ed;}.cls-7{fill:#fc659f;}.cls-8{fill:#ff004b;}</style><clipPath id="clip-path"><rect class="cls-1" x="30.98" y="17.01" width="54.27" height="80.15"/></clipPath></defs><title>usuario-rojo</title><g id="Capa_2" data-name="Capa 2"><g id="Capa_1-2" data-name="Capa 1"><ellipse class="cls-2" cx="57.17" cy="55.43" rx="57.17" ry="55.43"/><g class="cls-3"><path class="cls-4" d="M83.83,87.94v6.55a1.34,1.34,0,0,1-1.34,1.34H33.74a1.34,1.34,0,0,1-1.34-1.34V87.94A12.45,12.45,0,0,1,44.86,75.49a6.92,6.92,0,0,0,5.8-3.15,7.84,7.84,0,0,0,1.11-4.9l0-.06A16.51,16.51,0,0,1,41.59,52.11v-.53a4.12,4.12,0,0,1-4.18-4.09V40.55c0-2.42.06-10.94,6.21-16.87,7.16-6.9,18.5-6.33,26.72-2.64a.33.33,0,0,1,0,.61l-2.14.88a.33.33,0,0,0,.09.64l1,.11a16.85,16.85,0,0,1,12.58,7.9.11.11,0,0,1,0,.12A10.11,10.11,0,0,0,79,38.37v8.87a4.34,4.34,0,0,1-4.34,4.34v.53A16.53,16.53,0,0,1,64.44,67.38l0,.06a7.85,7.85,0,0,0,1.11,4.9,6.92,6.92,0,0,0,5.81,3.15A12.45,12.45,0,0,1,83.83,87.94Z"/><path class="cls-5" d="M81.89,31.18a.11.11,0,0,1,0,.12A10.11,10.11,0,0,0,79,38.37v8.87a4.34,4.34,0,0,1-4.34,4.34V42.47a1.34,1.34,0,0,0-1.72-1.28,17.92,17.92,0,0,1-9.14.54c-5.8-1.26-7.45-3.54-12.18-4.67a8.12,8.12,0,0,0-10.06,8c0,1.7,0,3.83,0,6.55a4.12,4.12,0,0,1-4.18-4.09V40.55c0-2.42.06-10.94,6.21-16.87,7.16-6.9,18.5-6.33,26.71-2.64a.33.33,0,0,1,0,.61l-2.14.88a.33.33,0,0,0,.09.64l1,.11a16.85,16.85,0,0,1,12.58,7.9Z"/></g><path class="cls-5" d="M72.93,41.19a1.34,1.34,0,0,1,1.72,1.28v9.64a16.53,16.53,0,0,1-33.06,0c0-3,0-5.22,0-7.08a8.12,8.12,0,0,1,10.06-8c4.73,1.13,6.38,3.41,12.18,4.67a17.92,17.92,0,0,0,9.14-.54Z"/><path class="cls-5" d="M83.83,87.94v6.55c0,.74-4.89,9.08-25.71,8.22s-24.38-6.88-24.38-6.88a1.34,1.34,0,0,1-1.34-1.34V87.94A12.45,12.45,0,0,1,44.86,75.49a6.92,6.92,0,0,0,5.8-3.15,11.47,11.47,0,0,0,14.91,0,6.92,6.92,0,0,0,5.81,3.15A12.45,12.45,0,0,1,83.83,87.94Z"/><path class="cls-6" d="M51.59,79.52a7.09,7.09,0,0,1-2,.31A12.48,12.48,0,0,0,37.08,92.24v1.25a2.34,2.34,0,0,1-2.34,2.34h-1a1.34,1.34,0,0,1-1.34-1.34V87.94A12.45,12.45,0,0,1,44.86,75.49a6.92,6.92,0,0,0,5.8-3.15,12.78,12.78,0,0,0,1.59,1.14,3.33,3.33,0,0,1-.66,6Z"/><path class="cls-7" d="M64.65,79.52a7.09,7.09,0,0,0,2,.31A12.48,12.48,0,0,1,79.15,92.24v1.25a2.34,2.34,0,0,0,2.34,2.34h1a1.34,1.34,0,0,0,1.34-1.34V87.94A12.45,12.45,0,0,0,71.38,75.49a6.92,6.92,0,0,1-5.81-3.15A12.08,12.08,0,0,1,64,73.48a3.33,3.33,0,0,0,.67,6Z"/><g class="cls-3"><path class="cls-7" d="M64.65,70.19a16.61,16.61,0,0,1-13.07,0,10.24,10.24,0,0,0,.19-2.75l0-.06a16.53,16.53,0,0,0,12.64,0l0,.06a10.24,10.24,0,0,0,.19,2.75Z"/><path class="cls-6" d="M70.32,21.65c-1.57.65-1.92.87-2.64.76C54.43,20.23,44,27.15,42.57,40.69a1.77,1.77,0,0,1-.19.68c-1,2.07-.84,3.6-.81,6.15s-4,2.85-4.15.17c0-.16,0,.28,0-7.14,0-2.42.06-10.94,6.21-16.87,7.16-6.9,18.5-6.33,26.72-2.64a.33.33,0,0,1,0,.61Z"/><path class="cls-6" d="M54.38,62.78A2.64,2.64,0,0,1,52,67.46,16.54,16.54,0,0,1,41.59,52.11c0-3.06,0-5.21,0-7.08a8.12,8.12,0,0,1,1.33-4.53,2,2,0,0,1,3.67,1.19c0,1.88.05,4,.05,7.08a16.4,16.4,0,0,0,7.78,14Z"/><path class="cls-8" d="M85.17,87.94v7.89a1.34,1.34,0,0,1-2.68,0V87.94A11.11,11.11,0,0,0,71.38,76.82a8.2,8.2,0,0,1-7.06-4,1.34,1.34,0,0,1,2.28-1.39,5.56,5.56,0,0,0,4.78,2.68A13.78,13.78,0,0,1,85.17,87.94ZM60.27,73.53A10.1,10.1,0,0,1,52.38,72a8.15,8.15,0,0,0,.7-2.72A17.88,17.88,0,0,0,76,52.11C76,40.78,76,41,76,40.49a1.34,1.34,0,1,0-2.66.26c0,.31,0,.57,0,11.36a15.2,15.2,0,0,1-30.39,0c0-3,0-5.34,0-7.09a6.79,6.79,0,0,1,8.41-6.66c6.19,1.48,8.68,5.34,16.61,5a1.34,1.34,0,1,0-.12-2.67c-7.15.34-9.13-3.29-15.86-4.9A9.47,9.47,0,0,0,40.21,45c0,1.42,0,3,0,4.89a2.77,2.77,0,0,1-1.5-2.44v-7c-.07-3,.36-10.64,5.8-15.88,6.08-5.86,15.58-5.86,23-3.28l-1.07.44a1.33,1.33,0,0,0,.36,2.56l2.35.25a15.46,15.46,0,0,1,11.08,6.5,11.41,11.41,0,0,0-2.6,7.26v9.12a1.34,1.34,0,0,0,2.67,0V38.37a8.74,8.74,0,0,1,2.53-6.16A1.42,1.42,0,0,0,83,30.5a18,18,0,0,0-11.15-8.12,1.34,1.34,0,0,0-.26-2.21A31.69,31.69,0,0,0,56.94,17C43.6,17.55,35.8,27.51,36.08,40.56v6.93a5.46,5.46,0,0,0,4.19,5.28A17.86,17.86,0,0,0,50.44,68.23v.35a5.57,5.57,0,0,1-5.58,5.57A13.78,13.78,0,0,0,31.07,87.94v7.89a1.34,1.34,0,0,0,2.67,0V87.94A11.11,11.11,0,0,1,44.86,76.82a8.19,8.19,0,0,0,6-2.63,12.79,12.79,0,0,0,9.94,2,1.34,1.34,0,0,0-.57-2.61ZM71.64,90.32h-4a1.34,1.34,0,0,0,0,2.67h4a1.34,1.34,0,1,0,0-2.67Z"/></g></g></g></svg>