<svg xmlns="http://www.w3.org/2000/svg" viewBox="0 0 17.02 17.02"><defs><style>.cls-1{fill:#4e2eed;}.cls-2{fill:none;stroke:#fff;stroke-miterlimit:10;stroke-width:0.3px;}</style></defs><g id="Capa_2" data-name="Capa 2"><g id="Capa_1-2" data-name="Capa 1"><path class="cls-1" d="M8.51.15a8.36,8.36,0,1,0,8.36,8.36A8.36,8.36,0,0,0,8.51.15m0,15.15A6.79,6.79,0,1,1,15.3,8.51,6.79,6.79,0,0,1,8.51,15.3m0-11.48c-.6,0-1,.31-1,.81V9.26c0,.51.45.82,1,.82s1.05-.32,1.05-.82V4.63c0-.49-.47-.81-1.05-.81m0,7.3a1,1,0,1,0,1,1.05,1,1,0,0,0-1-1.05"/><path class="cls-2" d="M8.51.15a8.36,8.36,0,1,0,8.36,8.36A8.36,8.36,0,0,0,8.51.15Zm0,15.15A6.79,6.79,0,1,1,15.3,8.51,6.79,6.79,0,0,1,8.51,15.3Zm0-11.48c-.6,0-1,.31-1,.81V9.26c0,.51.45.82,1,.82s1.05-.32,1.05-.82V4.63C9.56,4.14,9.09,3.82,8.51,3.82Zm0,7.3a1,1,0,1,0,1,1.05A1,1,0,0,0,8.51,11.12Z"/></g></g></svg>