<svg xmlns="http://www.w3.org/2000/svg" viewBox="0 0 22.14 24.75"><defs><style>.cls-1{fill:#4e2eed;}</style></defs><g id="Capa_2" data-name="Capa 2"><g id="Capa_1-2" data-name="Capa 1"><path class="cls-1" d="M18.08,24.75H1.45A1.45,1.45,0,0,1,0,23.3V14.55a.49.49,0,0,1,.48-.48.49.49,0,0,1,.49.48V23.3a.48.48,0,0,0,.48.49H18.08a.48.48,0,0,0,.48-.49V18.57a.49.49,0,1,1,1,0V23.3A1.45,1.45,0,0,1,18.08,24.75Z"/><path class="cls-1" d="M21,9.05a4,4,0,0,0-1.42-.92V5.22h0a.49.49,0,0,0-.14-.34L14.65.14A.48.48,0,0,0,14.31,0H1.45A1.45,1.45,0,0,0,0,1.45v9a.48.48,0,0,0,.48.48A.48.48,0,0,0,1,10.46v-9A.47.47,0,0,1,1.45,1H13.83V4.25A1.45,1.45,0,0,0,15.28,5.7h3.28V7.89a4.05,4.05,0,0,0-3.39,1.16L8.28,15.94a.48.48,0,0,0,.68.68l6.89-6.89a3.12,3.12,0,0,1,4.41,4.41L13.8,20.61a1.95,1.95,0,0,1-3.32-1.38,1.9,1.9,0,0,1,.57-1.37l6.49-6.5a.79.79,0,0,1,.54-.22.75.75,0,0,1,.53.22.74.74,0,0,1,0,1.07l-5.85,5.86a.48.48,0,0,0,.68.68l5.86-5.85a1.74,1.74,0,0,0,.5-1.22,1.72,1.72,0,0,0-1.72-1.73,1.69,1.69,0,0,0-1.22.51l-6.5,6.49a2.91,2.91,0,0,0,2.06,5,2.87,2.87,0,0,0,2.06-.85L21,14.83A4.1,4.1,0,0,0,21,9.05ZM15.28,4.74a.49.49,0,0,1-.49-.49V1.65l3.09,3.09Z"/></g></g></svg>