<svg xmlns="http://www.w3.org/2000/svg" xmlns:xlink="http://www.w3.org/1999/xlink" viewBox="0 0 370.14 95.35"><defs><style>.cls-1{fill:#5c79bb;}.cls-2{fill:#a3ddf5;}.cls-3{fill:#46c5e6;}.cls-4{fill:#6ecef2;}.cls-5{fill:#f7ffff;}.cls-6{fill:url(#linear-gradient);}.cls-7{fill:#fff;}</style><linearGradient id="linear-gradient" x1="343.14" y1="-26.04" x2="326.93" y2="65.89" gradientUnits="userSpaceOnUse"><stop offset="0" stop-color="#0bf"/><stop offset="0.32" stop-color="#02bafe"/><stop offset="0.44" stop-color="#09b4fa"/><stop offset="0.52" stop-color="#14abf3"/><stop offset="0.59" stop-color="#259eea"/><stop offset="0.64" stop-color="#3b8ddd"/><stop offset="0.7" stop-color="#5778ce"/><stop offset="0.74" stop-color="#775ebb"/><stop offset="0.78" stop-color="#9d41a5"/><stop offset="0.82" stop-color="#c6218e"/><stop offset="0.85" stop-color="#f00076"/></linearGradient></defs><title>banner-precios</title><g id="Capa_2" data-name="Capa 2"><g id="Logo_WINGMAN" data-name="Logo WINGMAN"><g id="Logo_WINGMAN_copy_3_Image" data-name="Logo WINGMAN copy 3 Image"><path class="cls-1" d="M8.55,14.5s1.59-1.46,4.62,1.19l1.41-2.2A4.06,4.06,0,0,0,8.55,14.5Z"/><path class="cls-1" d="M14.1,8.1s-1.88,2.34.83,5L13.1,15S8.91,9.81,14.1,8.1Z"/><path class="cls-2" d="M6.38,71.16a16.11,16.11,0,0,1,8.49-6.5l12.43-4.6H39.17l12.43,4.6a16.15,16.15,0,0,1,8.49,6.5Z"/><path class="cls-3" d="M49.44,95.35H68.65c0-3.28-.21-8-.21-8C67.31,67.75,53,64.66,53,64.66,41.83,62,47.92,79.23,47.92,79.23,47.62,83.39,48.24,89,49.44,95.35Z"/><rect class="cls-2" x="25.09" y="48.4" width="16.29" height="15.89"/><path class="cls-4" d="M41.38,55.78V48.4H25.09v3.66C29.73,55.93,35.33,56.42,41.38,55.78Z"/><path class="cls-1" d="M58.73,95.35c.31-8.57.21-10.92.14-13.84C58.7,75,57.3,69.5,53,64.67h0L41.38,60.88s2.44,4.27-8.23,4.27c0,0-7-.27-8.06-4.27l-11.8,3.78S3.21,67.14,1.48,77.76l5.93,10.9-.22,6.69Z"/><path class="cls-1" d="M54,28.54c.47-3.65-.31-7.15-.27-10.75,0-2.42-.45-6.06-3.45-6.37-4.17-.42-5.45,6.76-5.7,9.88-.34,4.29.73,8.94,1.56,13.14.29,1.52.26,4.55,2,5.28,1.46.63,3-.85,3.7-1.94C53.66,35.13,53.66,31.6,54,28.54Z"/><path class="cls-2" d="M51,46.19c-1.64,6.44-4.54,8.22-4.54,8.22l-3.89.76c-2.24-.29-6.1-1.2-6.1-1.2C27.53,51,25,50.14,23.58,46.76c-.06-.14-7-24.26-7-24.26-1.14-12.41,11.85-15,13.81-15.31s14.31-3.89,18,8A64.65,64.65,0,0,1,51,46.19Z"/><path class="cls-1" d="M55,3.21c.7,3.85,0,9.18-2.94,11.64-3.24,2.67-6,2-9.93,2.82s-8.2,1.25-12.28,2c-2.85.55-6.15.87-7.46,3.9a20.44,20.44,0,0,0-.91,13.12c1,3.25,1.27,6.41,2.34,10.64a37.53,37.53,0,0,1-6.55-7.5c-1.84-3.23-1.84-3.23-3.91-8.85-1.21-3.3-2.26-6.19-2.42-9.59-.2-4.38,1.92-6.29,4.26-10.32a15.87,15.87,0,0,1,9.31-7.6S44.94,4.66,44.56,0c0,0,4.89,1.25,4,4.51,0,0,5.13-.94,4-4.51A4.8,4.8,0,0,1,55,3.21Z"/><path class="cls-2" d="M22.34,35.9s-2.2-4.79-5.65-2c0,0-1.57,1.23.36,4.43,0,0,2.81,4.61,6.18,2.06Z"/><path class="cls-1" d="M22,24.74s0,8.56,1.59,13.11l-1.67.33s-.88-5.88-3.9-6Z"/><path class="cls-3" d="M18,95.35H0s.06-4.26.07-4.56A85,85,0,0,1,1.23,78.24C2.31,72.34,5.17,67.1,11.48,65.6c2.89-.68,5.46,1.06,7,3.44C18.5,69,21.36,72.56,18,95.35Z"/><path class="cls-1" d="M96.18,3.21s-15,4.51-13.58,28.25V82.61H99.65Z"/><path class="cls-1" d="M94.47,18.55V92h32.61V30.14s2.14-23.75-13.44-26.67C113.64,3.47,94.47,0,94.47,18.55Z"/><rect class="cls-2" x="93.65" y="65.61" width="22.67" height="11.23"/><path class="cls-2" d="M141.32,95.35H126l-2.74-11.07s-2.23-16.81,9.29-17c0,0,6,4.19,7.62,14.05A93.22,93.22,0,0,1,141.32,95.35Z"/><path class="cls-2" d="M88.07,95.35,90.14,87s3.66-18.65-7.86-18.89c0,0-8.35,6.88-7.74,27.24H88.07"/><rect class="cls-2" x="99.65" y="42.94" width="13.99" height="20.48"/><path class="cls-4" d="M113.64,51.3V42.94h-14V55C104.27,54.84,109.74,54,113.64,51.3Z"/><path class="cls-2" d="M81.11,70a15.31,15.31,0,0,1,8.07-6.18L101,59.4h11.29l14.45,4.38A15.32,15.32,0,0,1,134.82,70Z"/><path class="cls-3" d="M84,86.6v8.75h45.41l-.53-10.16c-.57-19.58,1.62-19.59,1.62-19.59a14.3,14.3,0,0,0-3.76-1.82l-11.38-3.24s-2.47,10.62-11.86,10.62c0,0-7.28-3.92-5.3-10.72l-9,3.34a19.07,19.07,0,0,0-6.9,4.33S83.89,69.1,84,86.6Z"/><path class="cls-2" d="M115.16,44.58a9.06,9.06,0,0,1-2.07,3,25.7,25.7,0,0,1-8,5.28c-3.66,1.5-9.18,1.69-12.09-1.32-2.36-2.45-3.65-6.15-4.67-9.32-2-6.17-2-12.91-1.46-19.31.12-1.46.26-2.93.51-4.37,2.27-14,14.23-13.94,14.23-13.94,9-.39,17.26,3.87,18.65,13.38.53,3.65-.17,7.56-.35,11.2a29.76,29.76,0,0,1-1.32,7.9C117.7,39.71,116.25,42.06,115.16,44.58Z"/><path class="cls-2" d="M116.33,33.92s1.2-5,5-2.91c0,0,1.72.87.48,4.28,0,0-1.81,4.91-5.5,3.12Z"/><path class="cls-1" d="M85.94,20.16C85.3,1,103.5,1.89,103.5,1.89c17.89.73,18.78,8.84,18.78,8.84C124.45,21,121.35,31,121.35,31c-3.8-.83-4.45,4.25-4.45,4.25.4-8.15-.27-8.64-.27-8.64a81,81,0,0,1-10-.68l-.26-5.69L105,25.64a91.16,91.16,0,0,1-16.77-2.22s-2.28.17-2.28,7.09Z"/><path class="cls-5" d="M160.83,47.19h8.36l4,25.54q1.53-2.28,2.9-4.52c.92-1.5,1.8-3,2.65-4.46l-3.57-16.56h7.46l1.66,10.24q1.27-2.52,2.39-5.12t2.08-5.12h6.95a68.21,68.21,0,0,1-3.51,8.47,82.74,82.74,0,0,1-4.59,8l1.66,7.58q2-2.72,3.7-5.12t3-4.67q1.33-2.28,2.49-4.52c.76-1.5,1.49-3.05,2.17-4.65s1.31-3.3,1.91-5.12h7.85a81.46,81.46,0,0,1-7.95,16.53,137.16,137.16,0,0,1-12.15,16.59h-6.45L182,69.5c-1.1,1.81-2.23,3.62-3.38,5.41s-2.34,3.59-3.57,5.4h-7.79Z"/><path class="cls-5" d="M213.49,56.38h6.18l-5.12,23.93h-6.18Zm2-9.49h6.18L220.41,53h-6.18Z"/><path class="cls-5" d="M225.15,56.38h5.58l-1,4.47a11.74,11.74,0,0,1,2.79-2.62A12.79,12.79,0,0,1,236,56.59a13.15,13.15,0,0,1,3.85-.57,6.1,6.1,0,0,1,3.27.73,3.93,3.93,0,0,1,1.64,2,7.76,7.76,0,0,1,.48,2.8,12.4,12.4,0,0,1-.14,1.92c-.09.63-.2,1.29-.32,2l-3.18,14.9h-6.18L238.29,67a9.9,9.9,0,0,0,.26-1.27,11.17,11.17,0,0,0,.06-1.14,3.23,3.23,0,0,0-.71-2.33,2.52,2.52,0,0,0-1.91-.75,5.51,5.51,0,0,0-2.4.63,9.41,9.41,0,0,0-2.44,1.73,10.13,10.13,0,0,0-1.94,2.54l-3,14H220Z"/><path class="cls-5" d="M254.52,90.59a12.45,12.45,0,0,1-6.11-1.31,9.49,9.49,0,0,1-3.66-3.72l4.05-3.27A6.65,6.65,0,0,0,251.48,85a8.17,8.17,0,0,0,4,1,8.69,8.69,0,0,0,3.45-.7,7.9,7.9,0,0,0,2.93-2.18,8.19,8.19,0,0,0,1.73-3.8l.65-3a10.94,10.94,0,0,1-3.85,3.36,9.89,9.89,0,0,1-4.59,1.18,7.36,7.36,0,0,1-4.36-1.29A8,8,0,0,1,248.71,76a12.54,12.54,0,0,1-.92-4.87,15.44,15.44,0,0,1,1.08-5.73,15.7,15.7,0,0,1,3-4.83,14.68,14.68,0,0,1,4.38-3.32A11.43,11.43,0,0,1,261.43,56a6.93,6.93,0,0,1,7,4.62l.88-4.26h5.44l-4.93,22.87a13.16,13.16,0,0,1-2.95,6.1,14.62,14.62,0,0,1-5.4,3.89A17.49,17.49,0,0,1,254.52,90.59ZM259,75.84a5,5,0,0,0,1.82-.34,7.75,7.75,0,0,0,1.73-.91,8.16,8.16,0,0,0,1.52-1.37,12.44,12.44,0,0,0,1.2-1.61l1.2-5.72a5.66,5.66,0,0,0-.88-2.44,5,5,0,0,0-1.68-1.61,4.31,4.31,0,0,0-2.19-.57,5.51,5.51,0,0,0-2.86.79,9.14,9.14,0,0,0-2.4,2.06A9.7,9.7,0,0,0,254.8,67a9,9,0,0,0-.6,3.24,6.79,6.79,0,0,0,.6,2.84,4.84,4.84,0,0,0,1.68,2.06A4.36,4.36,0,0,0,259,75.84Z"/><path class="cls-5" d="M280.15,56.38h5.58l-1,4.47A12.46,12.46,0,0,1,289,57.29,11.25,11.25,0,0,1,294.16,56a6.91,6.91,0,0,1,3.14.61,3.92,3.92,0,0,1,1.77,1.76,6.19,6.19,0,0,1,.62,2.68,13.7,13.7,0,0,1,2.82-2.78,12.75,12.75,0,0,1,3.2-1.68,10.16,10.16,0,0,1,3.44-.59,6.1,6.1,0,0,1,3.27.73,4,4,0,0,1,1.64,2,7.88,7.88,0,0,1,.48,2.85c0,.45,0,1-.09,1.64a18.9,18.9,0,0,1-.37,2.19l-3.23,14.9h-6.18L307.53,67a10.82,10.82,0,0,0,.33-2.41,3.48,3.48,0,0,0-.67-2.31,2.28,2.28,0,0,0-1.82-.77,5,5,0,0,0-2.31.63,8.67,8.67,0,0,0-2.26,1.75,11,11,0,0,0-1.8,2.57l-2.95,13.9h-6.17l2.85-13.4a6.48,6.48,0,0,0,.23-1.3c0-.41.05-.8.05-1.16a3.37,3.37,0,0,0-.64-2.26,2.33,2.33,0,0,0-1.85-.73,5.61,5.61,0,0,0-3.43,1.37,10.13,10.13,0,0,0-2.88,3.53l-3,14H275Z"/><path class="cls-5" d="M325.6,80.77a7.91,7.91,0,0,1-4.58-1.3A8.4,8.4,0,0,1,318.07,76a11.48,11.48,0,0,1-1-5,15.17,15.17,0,0,1,1.06-5.65A15.83,15.83,0,0,1,321,60.53a14.3,14.3,0,0,1,4.24-3.31,10.93,10.93,0,0,1,5-1.2,7,7,0,0,1,4.24,1.29,6.53,6.53,0,0,1,2.4,3.31l.92-4.24H344l-3.6,16.55c0,.15-.06.3-.09.43a1.81,1.81,0,0,0-.05.38q0,.95,1.11,1L340.26,80l-1.45.23a7.69,7.69,0,0,1-1.08.09,4.51,4.51,0,0,1-2.58-.63,2.17,2.17,0,0,1-.93-1.91,2.28,2.28,0,0,1,0-.4c0-.15.06-.34.09-.55a5.42,5.42,0,0,1,.14-.65,12,12,0,0,1-4.15,3.42A10.64,10.64,0,0,1,325.6,80.77Zm2.77-5.25a5.17,5.17,0,0,0,1.66-.3,8.32,8.32,0,0,0,3.32-2.06,8.49,8.49,0,0,0,1.24-1.6l1.2-5.7a5.1,5.1,0,0,0-.83-2.34,5.31,5.31,0,0,0-1.7-1.64,4.12,4.12,0,0,0-2.17-.61,5.83,5.83,0,0,0-2.84.75,8.78,8.78,0,0,0-2.42,2,10.27,10.27,0,0,0-1.68,2.8,8.62,8.62,0,0,0-.62,3.19,6.45,6.45,0,0,0,.6,2.8,4.77,4.77,0,0,0,1.68,2A4.53,4.53,0,0,0,328.37,75.52Z"/><path class="cls-5" d="M350,56.38h5.57l-1,4.47a11.38,11.38,0,0,1,2.79-2.62,12.59,12.59,0,0,1,3.45-1.64,13.15,13.15,0,0,1,3.85-.57,6.07,6.07,0,0,1,3.27.73,3.93,3.93,0,0,1,1.64,2,7.76,7.76,0,0,1,.49,2.8,13.78,13.78,0,0,1-.14,1.92c-.1.63-.2,1.29-.33,2l-3.18,14.9h-6.17L363.17,67a8.44,8.44,0,0,0,.26-1.27,11.24,11.24,0,0,0,.07-1.14,3.23,3.23,0,0,0-.72-2.33,2.5,2.5,0,0,0-1.91-.75,5.51,5.51,0,0,0-2.4.63A9.58,9.58,0,0,0,356,63.82a10.13,10.13,0,0,0-1.94,2.54l-3,14h-6.18Z"/><path class="cls-6" d="M352.49,8.63H315.3a15.1,15.1,0,0,0-15.1,15.09v5.37a15.1,15.1,0,0,0,15.1,15.1h2.11a2.79,2.79,0,0,1-.1.94c-.5,2.43-1.15,4.82-1.61,7.25-.07.4-.26.83.27,1.07a4.2,4.2,0,0,0,2-1c3.11-2.61,6.15-5.29,9.26-7.89a3.91,3.91,0,0,1,.49-.34h24.79a15.1,15.1,0,0,0,15.1-15.1V23.72A15.1,15.1,0,0,0,352.49,8.63Z"/><path class="cls-7" d="M349.79,19a7.2,7.2,0,0,0-5.07,2.24A6,6,0,0,0,339.91,19a6.36,6.36,0,0,0-3.44,1v0a.7.7,0,0,0-.7-.7h-3.85a.72.72,0,0,0-.7.7v7.05a2.48,2.48,0,0,1-2.57,2.57c-1.65,0-2.31-1.29-2.31-2.75V20a.7.7,0,0,0-.7-.7h-3.52a.7.7,0,0,0-.7.7v7.12a2.49,2.49,0,0,1-2.46,2.5,2.45,2.45,0,0,1-2.46-2.75V20a.7.7,0,0,0-.7-.7h-3.89a.7.7,0,0,0-.7.7v6.65c0,4.18,2.24,7.71,6.79,7.71a7.22,7.22,0,0,0,5.07-2.24,6,6,0,0,0,4.81,2.24,6.37,6.37,0,0,0,3.44-1v0a.7.7,0,0,0,.7.7h3.85a.72.72,0,0,0,.7-.7v-7a2.49,2.49,0,0,1,2.57-2.57c1.65,0,2.31,1.29,2.31,2.76v6.86a.7.7,0,0,0,.7.7h3.53a.69.69,0,0,0,.69-.7V26.24a2.5,2.5,0,0,1,2.46-2.5,2.45,2.45,0,0,1,2.46,2.76v6.86a.7.7,0,0,0,.7.7h3.89a.7.7,0,0,0,.7-.7V26.72C356.58,22.53,354.34,19,349.79,19Z"/></g></g></g></svg>