<svg xmlns="http://www.w3.org/2000/svg" viewBox="0 0 9.42 9.82"><defs><style>.cls-1{fill:#4e2eed;}</style></defs><title>bot</title><g id="Capa_2" data-name="Capa 2"><g id="Capa_1-2" data-name="Capa 1"><path class="cls-1" d="M9.11,5l-.23-.12V4.39a4.25,4.25,0,0,0-.53-2,.36.36,0,0,0,0-.4A4.65,4.65,0,0,0,7.21.79a4.1,4.1,0,0,0-1-.5.14.14,0,0,0-.18.08.15.15,0,0,0,.08.19A4.1,4.1,0,0,1,8.11,2.11a.07.07,0,0,1,0,.09l-.53.49h0l0,0a3.33,3.33,0,0,0-.7-.8,3.26,3.26,0,0,0-4.24.07,3.42,3.42,0,0,0-.61.71l-.05,0a.06.06,0,0,1,0,0l-.5-.5a.06.06,0,0,1,0-.08,4.24,4.24,0,0,1,.75-.83A4.14,4.14,0,0,1,4.7.29a4,4,0,0,1,.78.07A.13.13,0,0,0,5.65.25.13.13,0,0,0,5.54.08,4.69,4.69,0,0,0,4.7,0,4.37,4.37,0,0,0,1.89,1a4.43,4.43,0,0,0-.8.88.36.36,0,0,0,0,.42,4.13,4.13,0,0,0-.35.77.16.16,0,0,0,.09.18H.88A.14.14,0,0,0,1,3.18a4.76,4.76,0,0,1,.29-.65l.31.31a3.46,3.46,0,0,0-.37,1.58v3L.44,7a.27.27,0,0,1-.15-.24V5.45A.29.29,0,0,1,.44,5.2a1.52,1.52,0,0,0,.23-.11.25.25,0,0,0,.14-.23V4.42a3.52,3.52,0,0,1,0-.56A.14.14,0,0,0,.73,3.7a.14.14,0,0,0-.16.12,4,4,0,0,0,0,.6v.42L.31,5a.56.56,0,0,0-.31.5V6.78a.55.55,0,0,0,.32.5l1,.47A.75.75,0,0,0,2,8.28a.77.77,0,0,0,.77-.77V4.92A.76.76,0,0,0,2,4.16a.71.71,0,0,0-.47.17A3.22,3.22,0,0,1,1.87,3h0a.39.39,0,0,0,.26-.17,3.16,3.16,0,0,1,.56-.65,3,3,0,0,1,2-.74A3,3,0,0,1,7.24,2.81.39.39,0,0,0,7.49,3h.07A3.33,3.33,0,0,1,7.9,4.33a.74.74,0,0,0-.48-.17.77.77,0,0,0-.77.76v.44a.14.14,0,0,0,.14.14.14.14,0,0,0,.15-.14V4.92a.47.47,0,0,1,.48-.47.48.48,0,0,1,.48.47V7.51A.48.48,0,0,1,7.42,8a.47.47,0,0,1-.48-.48V6.08a.14.14,0,0,0-.15-.14.14.14,0,0,0-.14.14V7.51a.78.78,0,0,0,.77.77.74.74,0,0,0,.48-.17v.34a.19.19,0,0,1-.19.19H6a.35.35,0,0,0-.32-.23H4.58a.34.34,0,0,0-.33.34v.73a.34.34,0,0,0,.33.34H5.67A.35.35,0,0,0,6,9.59h.93a.14.14,0,0,0,.14-.14.15.15,0,0,0-.14-.15H6V8.93h1.7a.49.49,0,0,0,.48-.48V7.73l.37-.18V8.83a.47.47,0,0,1-.48.47H7.64a.15.15,0,0,0-.15.15.15.15,0,0,0,.15.14h.44a.76.76,0,0,0,.77-.76V7.41l.26-.13a.56.56,0,0,0,.31-.5V5.45A.56.56,0,0,0,9.11,5M2,4.45a.47.47,0,0,1,.48.47V7.51A.47.47,0,0,1,2,8a.48.48,0,0,1-.48-.48V4.92A.48.48,0,0,1,2,4.45m2.53,5V8.75a0,0,0,0,1,0-.05H5v.83h-.4a0,0,0,0,1,0,0m1.19,0a0,0,0,0,1,0,0h-.4V8.7h.4a0,0,0,0,1,0,.05Zm3.41-2.7A.27.27,0,0,1,9,7l-.79.39v-3a3.52,3.52,0,0,0-.37-1.57l.31-.29a3.84,3.84,0,0,1,.46,1.82v.48a.24.24,0,0,0,.14.22L9,5.2a.29.29,0,0,1,.15.25Z"/><path class="cls-1" d="M2.38,4.76h.51A.18.18,0,0,1,3,4.8a.14.14,0,0,1,.07.1l.56,1.95s0,.1,0,.15,0,.12,0,.18a1.16,1.16,0,0,1,0-.18s0-.11,0-.15L4.44,4.9a.23.23,0,0,1,.07-.1.2.2,0,0,1,.13,0h.18A.2.2,0,0,1,5,4.9l.64,1.95a2.13,2.13,0,0,1,.08.32c0-.06,0-.12,0-.17l0-.15L6.37,4.9a.17.17,0,0,1,.07-.1.18.18,0,0,1,.13,0H7L6,8H5.48L4.77,5.79l0-.09,0-.11a.36.36,0,0,1,0,.11l0,.09L3.94,8H3.39Z"/></g></g></svg>