<svg xmlns="http://www.w3.org/2000/svg" viewBox="0 0 234.23 42.29"><defs><style>.cls-1{fill:#4e2eed;}.cls-2{fill:#fff;}</style></defs><g id="Capa_2" data-name="Capa 2"><g id="Logo_WINGMAN" data-name="Logo WINGMAN"><g id="Logo_WINGMAN_copy_3_Image" data-name="Logo WINGMAN copy 3 Image"><path class="cls-1" d="M220.25,2.83,220.05,0,193.52,1.87l2.5,35.6,3.64-.25v5.07h26.6V39.37l4.15.45,3.82-35.49Zm-20.59,31.9-1.34.1L196.17,4.17l21.58-1.52L218,6.59H199.66Zm24.12,5.08H202.14V9.07h21.64Zm4.43-2.72-2-.21V6.59h-5.74l-.09-1.25L231.5,6.53Z"/><rect class="cls-1" x="204.87" y="24.51" width="16.17" height="2.48"/><rect class="cls-1" x="204.87" y="28.92" width="16.17" height="2.48"/><rect class="cls-1" x="204.87" y="33.33" width="16.17" height="2.48"/><path class="cls-1" d="M204.88,17a4.08,4.08,0,0,1,4.35-4.09,4.22,4.22,0,0,1,3.5,1.56L211.07,16a2.11,2.11,0,0,0-1.71-.92,1.79,1.79,0,0,0-1.83,2,1.78,1.78,0,0,0,1.83,2,2.11,2.11,0,0,0,1.71-.92l1.66,1.49a4.22,4.22,0,0,1-3.5,1.56A4.07,4.07,0,0,1,204.88,17Z"/><path class="cls-1" d="M221.84,13.08l-3.3,7.81H216l-3.3-7.81h2.83l1.86,4.56,1.91-4.56Z"/><path class="cls-1" d="M15.88,5.34H196.17a0,0,0,0,1,0,0V37.09a0,0,0,0,1,0,0H15.88A15.88,15.88,0,0,1,0,21.21v0A15.88,15.88,0,0,1,15.88,5.34Z"/><path class="cls-2" d="M32.83,20.49a6.83,6.83,0,0,1,1.59-4.33,5.67,5.67,0,0,1,1.9-1.48,5.57,5.57,0,0,1,2.56-.56,5.28,5.28,0,0,1,2.92.78,5,5,0,0,1,1.8,2l-.76.43a4.06,4.06,0,0,0-1.11-1.4,4,4,0,0,0-1.41-.75A5.27,5.27,0,0,0,38.81,15a4.69,4.69,0,0,0-2.15.49,4.79,4.79,0,0,0-1.59,1.3,5.86,5.86,0,0,0-1,1.8,6.24,6.24,0,0,0-.33,2,6,6,0,0,0,1.49,4,5.21,5.21,0,0,0,1.62,1.26,4.24,4.24,0,0,0,2,.47A4.93,4.93,0,0,0,40.44,26a4.77,4.77,0,0,0,1.5-.81,4.06,4.06,0,0,0,1.14-1.43l.79.38a4.34,4.34,0,0,1-1.24,1.62,6.24,6.24,0,0,1-1.84,1,6.41,6.41,0,0,1-2,.34,5.11,5.11,0,0,1-2.39-.57A6.19,6.19,0,0,1,34.5,25a7,7,0,0,1-1.24-2.12A7.14,7.14,0,0,1,32.83,20.49Z"/><path class="cls-2" d="M50.29,18.44a3.67,3.67,0,0,0-2.2.75,3.74,3.74,0,0,0-1.33,1.95V27h-.89V17.65h.86v2.28A4.49,4.49,0,0,1,48,18.32a3.29,3.29,0,0,1,1.71-.71l.32,0h.23Z"/><path class="cls-2" d="M55.62,27.17a4.47,4.47,0,0,1-3.3-1.45,4.62,4.62,0,0,1-1-1.56A4.9,4.9,0,0,1,51,22.29a4.82,4.82,0,0,1,.59-2.4,4.62,4.62,0,0,1,1.64-1.73,4.26,4.26,0,0,1,2.34-.66,4.15,4.15,0,0,1,2.35.67,4.91,4.91,0,0,1,2.24,4.12v.22a.9.9,0,0,1,0,.18H51.93a4.17,4.17,0,0,0,.6,1.91A3.8,3.8,0,0,0,53.87,26a3.46,3.46,0,0,0,1.79.49,3.51,3.51,0,0,0,1.83-.51,2.73,2.73,0,0,0,1.21-1.29l.79.21a3.15,3.15,0,0,1-.85,1.19,4.38,4.38,0,0,1-1.37.82A4.56,4.56,0,0,1,55.62,27.17ZM51.9,22h7.39a4.23,4.23,0,0,0-.57-1.93,3.85,3.85,0,0,0-1.33-1.33,3.61,3.61,0,0,0-3.6,0,3.91,3.91,0,0,0-1.32,1.33A4.11,4.11,0,0,0,51.9,22Z"/><path class="cls-2" d="M61.36,24.3a2.27,2.27,0,0,1,.51-1.47,3.23,3.23,0,0,1,1.38-1,5.39,5.39,0,0,1,2-.35,9.74,9.74,0,0,1,1.49.12,9.13,9.13,0,0,1,1.39.34V21.1a2.81,2.81,0,0,0-.75-2.05,2.72,2.72,0,0,0-2.06-.77,4.1,4.1,0,0,0-1.46.28,8.13,8.13,0,0,0-1.55.83L62,18.74a9.18,9.18,0,0,1,1.78-.92,4.87,4.87,0,0,1,1.7-.32,3.52,3.52,0,0,1,2.64,1,3.66,3.66,0,0,1,1,2.69V25.8a.47.47,0,0,0,.1.33.41.41,0,0,0,.29.12V27l-.27,0H69a.87.87,0,0,1-.53-.29,1,1,0,0,1-.21-.52v-.74a4.29,4.29,0,0,1-1.66,1.26,5.22,5.22,0,0,1-2.13.45,3.4,3.4,0,0,1-1.6-.38,2.83,2.83,0,0,1-1.11-1A2.72,2.72,0,0,1,61.36,24.3Zm6.45.77a2.23,2.23,0,0,0,.27-.45,1,1,0,0,0,.09-.39V22.68a7.94,7.94,0,0,0-1.35-.37,7.64,7.64,0,0,0-1.44-.13,4.18,4.18,0,0,0-2.28.56,1.7,1.7,0,0,0-.87,1.5,2.12,2.12,0,0,0,.3,1.1,2.29,2.29,0,0,0,.86.8,2.49,2.49,0,0,0,1.27.31,4.43,4.43,0,0,0,1.86-.39A3.09,3.09,0,0,0,67.81,25.07Z"/><path class="cls-2" d="M76.23,18.44a3.7,3.7,0,0,0-3.53,2.7V27h-.9V17.65h.87v2.28A4.47,4.47,0,0,1,74,18.32a3.36,3.36,0,0,1,1.71-.71l.33,0h.23Z"/><path class="cls-2" d="M86.11,27.17a4.23,4.23,0,0,1-1.81-.39,4.47,4.47,0,0,1-1.48-1.06,4.7,4.7,0,0,1-1-1.55,5.24,5.24,0,0,1,.24-4.3,4.59,4.59,0,0,1,1.64-1.72,4.42,4.42,0,0,1,2.37-.65,4.24,4.24,0,0,1,2.25.59,3.67,3.67,0,0,1,1.46,1.59l-.88.29a3.08,3.08,0,0,0-1.18-1.22,3.34,3.34,0,0,0-1.68-.44,3.5,3.5,0,0,0-1.86.52,3.8,3.8,0,0,0-1.32,1.43,4.43,4.43,0,0,0,0,4.07,4,4,0,0,0,1.34,1.48,3.27,3.27,0,0,0,1.85.55,3.53,3.53,0,0,0,1.27-.24,4.11,4.11,0,0,0,1.08-.64,2,2,0,0,0,.6-.85l.88.25a2.85,2.85,0,0,1-.81,1.18,4.4,4.4,0,0,1-1.34.81A4.48,4.48,0,0,1,86.11,27.17Z"/><path class="cls-2" d="M91.85,23V17.65h.9v5.26a4.59,4.59,0,0,0,.59,2.59,2,2,0,0,0,1.77.86A3.49,3.49,0,0,0,96.63,26a4,4,0,0,0,1.29-1,4.14,4.14,0,0,0,.83-1.48V17.65h.9V25.8a.47.47,0,0,0,.1.33.41.41,0,0,0,.28.12V27l-.28,0-.17,0a.79.79,0,0,1-.51-.26.87.87,0,0,1-.21-.55l0-1.4a4.56,4.56,0,0,1-1.68,1.75,4.43,4.43,0,0,1-2.32.64,2.59,2.59,0,0,1-2.23-1A5.29,5.29,0,0,1,91.85,23Z"/><path class="cls-2" d="M106.94,18.44a3.68,3.68,0,0,0-3.53,2.7V27h-.9V17.65h.86v2.28a4.6,4.6,0,0,1,1.3-1.61,3.36,3.36,0,0,1,1.71-.71l.32,0h.24Z"/><path class="cls-2" d="M113.08,18.44a3.68,3.68,0,0,0-3.53,2.7V27h-.9V17.65h.86v2.28a4.6,4.6,0,0,1,1.3-1.61,3.36,3.36,0,0,1,1.71-.71l.32,0h.24Z"/><path class="cls-2" d="M114.79,15.5V13.85h.9V15.5Zm0,11.49V17.63h.9V27Z"/><path class="cls-2" d="M122.49,27.17a4.31,4.31,0,0,1-1.82-.39,4.53,4.53,0,0,1-1.47-1.06,4.89,4.89,0,0,1-1-1.55,5.07,5.07,0,0,1-.35-1.88,4.88,4.88,0,0,1,.6-2.42,4.51,4.51,0,0,1,1.64-1.72,4.39,4.39,0,0,1,2.37-.65,4.29,4.29,0,0,1,2.25.59,3.67,3.67,0,0,1,1.46,1.59l-.88.29a3.08,3.08,0,0,0-1.18-1.22,3.34,3.34,0,0,0-1.68-.44,3.47,3.47,0,0,0-1.86.52,3.8,3.8,0,0,0-1.32,1.43,4.35,4.35,0,0,0,0,4.07,3.92,3.92,0,0,0,1.34,1.48,3.26,3.26,0,0,0,1.84.55,3.45,3.45,0,0,0,1.27-.24,3.81,3.81,0,0,0,1.08-.64,2,2,0,0,0,.61-.85l.88.25a2.85,2.85,0,0,1-.81,1.18,4.53,4.53,0,0,1-1.34.81A4.48,4.48,0,0,1,122.49,27.17Z"/><path class="cls-2" d="M128.23,23V17.65h.9v5.26a4.59,4.59,0,0,0,.59,2.59,2,2,0,0,0,1.77.86A3.52,3.52,0,0,0,133,26a4.09,4.09,0,0,0,1.29-1,4.14,4.14,0,0,0,.83-1.48V17.65h.9V25.8a.52.52,0,0,0,.09.33.43.43,0,0,0,.28.12V27l-.28,0L136,27a.79.79,0,0,1-.5-.26.94.94,0,0,1-.22-.55l0-1.4a4.42,4.42,0,0,1-1.68,1.75,4.37,4.37,0,0,1-2.31.64,2.59,2.59,0,0,1-2.23-1A5.22,5.22,0,0,1,128.23,23Z"/><path class="cls-2" d="M139,13.85h.92V25.2a1.21,1.21,0,0,0,.27.9,1,1,0,0,0,.7.24,4,4,0,0,0,.59-.05,3,3,0,0,0,.54-.15l.18.74a5.63,5.63,0,0,1-.75.2,4.06,4.06,0,0,1-.78.09,1.58,1.58,0,0,1-1.67-1.7Z"/><path class="cls-2" d="M143.46,23V17.65h.9v5.26a4.6,4.6,0,0,0,.58,2.59,2,2,0,0,0,1.78.86,3.56,3.56,0,0,0,1.52-.35,4.05,4.05,0,0,0,1.28-1,4,4,0,0,0,.83-1.48V17.65h.9V25.8a.52.52,0,0,0,.1.33.43.43,0,0,0,.28.12V27l-.28,0-.17,0a.79.79,0,0,1-.5-.26.82.82,0,0,1-.22-.55l0-1.4a4.56,4.56,0,0,1-1.68,1.75,4.4,4.4,0,0,1-2.31.64,2.61,2.61,0,0,1-2.24-1A5.3,5.3,0,0,1,143.46,23Z"/><path class="cls-2" d="M167.87,27H167v-5.2a5,5,0,0,0-.55-2.62,1.88,1.88,0,0,0-1.68-.84,2.94,2.94,0,0,0-2.05.82,4.4,4.4,0,0,0-1.25,2.08V27h-.9v-5.2a5,5,0,0,0-.54-2.63,1.86,1.86,0,0,0-1.67-.83,3,3,0,0,0-2.05.8A4.44,4.44,0,0,0,155,21.21V27h-.89V17.65H155v2.24a4.61,4.61,0,0,1,1.53-1.77,3.68,3.68,0,0,1,2-.62,2.72,2.72,0,0,1,1.92.69,2.88,2.88,0,0,1,.89,1.84,5.21,5.21,0,0,1,1.58-1.89A3.56,3.56,0,0,1,165,17.5a2.76,2.76,0,0,1,1.31.28,2.35,2.35,0,0,1,.88.81,3.57,3.57,0,0,1,.5,1.3,8.32,8.32,0,0,1,.16,1.74Z"/></g></g></g></svg>