<svg xmlns="http://www.w3.org/2000/svg" xmlns:xlink="http://www.w3.org/1999/xlink" viewBox="0 0 11.27 13.74"><defs><style>.cls-1{fill:none;}.cls-2{fill:#fff;}.cls-3{clip-path:url(#clip-path);}</style><clipPath id="clip-path" transform="translate(-0.01 -0.91)"><rect class="cls-1" width="12.61" height="14.68"/></clipPath></defs><title>campana</title><g id="Capa_2" data-name="Capa 2"><g id="Capa_1-2" data-name="Capa 1"><path class="cls-2" d="M7.36,12.94a1.72,1.72,0,1,0-1.72,1.71,1.72,1.72,0,0,0,1.72-1.71Z" transform="translate(-0.01 -0.91)"/><path class="cls-2" d="M5.64,11.22a1.69,1.69,0,0,0-.5.08,1.71,1.71,0,0,1,0,3.28,1.68,1.68,0,0,0,.5.07,1.72,1.72,0,1,0,0-3.43Z" transform="translate(-0.01 -0.91)"/><path class="cls-2" d="M5.84,2.93a1,1,0,1,1,.8-1.2,1,1,0,0,1-.8,1.2Z" transform="translate(-0.01 -0.91)"/><path class="cls-2" d="M6.64,1.73a1,1,0,0,0-1.2-.8L5.29,1a1,1,0,0,1,0,1.92A1,1,0,0,0,6.64,1.73Z" transform="translate(-0.01 -0.91)"/><path class="cls-2" d="M9.9,12.65H1.39A1.37,1.37,0,0,1,0,11.28a1.39,1.39,0,0,1,.52-1.09L.8,10a2.7,2.7,0,0,0,1-2.09V6.44a3.87,3.87,0,1,1,7.74,0V7.91a2.69,2.69,0,0,0,1,2.06l.26.22a1.41,1.41,0,0,1,.51,1.07v0A1.37,1.37,0,0,1,9.9,12.65Z" transform="translate(-0.01 -0.91)"/><g class="cls-3"><path class="cls-2" d="M10.77,10.19,10.51,10a2.69,2.69,0,0,1-1-2.06V6.44A3.87,3.87,0,0,0,5.67,2.57a3.94,3.94,0,0,0-1.09.16A3.86,3.86,0,0,1,7.36,6.44V7.91a2.65,2.65,0,0,0,1,2.06l.26.22a1.4,1.4,0,0,1,.5,1.07v0a1.37,1.37,0,0,1-1.37,1.37H9.9a1.37,1.37,0,0,0,1.38-1.37v0a1.41,1.41,0,0,0-.51-1.07Z" transform="translate(-0.01 -0.91)"/></g></g></g></svg>