<svg xmlns="http://www.w3.org/2000/svg" xmlns:xlink="http://www.w3.org/1999/xlink" viewBox="0 0 18.25 18.25"><defs><style>.cls-1{fill:#ff004b;}.cls-2{fill:url(#Nueva_muestra_de_degradado_1);}.cls-3{fill:#fff;}</style><linearGradient id="Nueva_muestra_de_degradado_1" x1="9.13" y1="9.35" x2="15.02" y2="15.24" gradientUnits="userSpaceOnUse"><stop offset="0" stop-color="#501012"/><stop offset="0.04" stop-color="#38182d"/><stop offset="0.09" stop-color="#241f43"/><stop offset="0.11" stop-color="#1d214b"/><stop offset="0.9" stop-color="#501012" stop-opacity="0"/></linearGradient></defs><title>cerrar</title><g id="Capa_2" data-name="Capa 2"><g id="Logo_WINGMAN" data-name="Logo WINGMAN"><circle class="cls-1" cx="9.13" cy="9.13" r="9.13"/><path class="cls-2" d="M4.78,13.7l4.55,4.55a9.13,9.13,0,0,0,8.9-8.49L13.47,5Z"/><path class="cls-3" d="M4.78,13.7h0a1.3,1.3,0,0,1,0-1.84L11.63,5a1.32,1.32,0,0,1,1.84,0h0a1.3,1.3,0,0,1,0,1.84L6.62,13.7A1.32,1.32,0,0,1,4.78,13.7Z"/><path class="cls-3" d="M4.78,5h0A1.32,1.32,0,0,1,6.62,5l6.85,6.86a1.3,1.3,0,0,1,0,1.84h0a1.32,1.32,0,0,1-1.84,0L4.78,6.84A1.3,1.3,0,0,1,4.78,5Z"/></g></g></svg>