<svg xmlns="http://www.w3.org/2000/svg" viewBox="0 0 22.26 22.26"><defs><style>.cls-1{fill:#4e2eed;}</style></defs><title>chat_1</title><g id="Capa_2" data-name="Capa 2"><g id="Capa_1-2" data-name="Capa 1"><path class="cls-1" d="M21,12.26A7.89,7.89,0,0,0,22.26,8,8,8,0,0,0,10.09,1.17a.44.44,0,1,0,.45.75,7.07,7.07,0,0,1,3.72-1A7.13,7.13,0,0,1,20.18,12a.42.42,0,0,0,0,.5l.48,1.78-1.92-.51a.42.42,0,0,0-.36.06,7,7,0,0,1-4.13,1.32,7.14,7.14,0,0,1-2.47-.44,6,6,0,0,0-4.22-4.22A7.15,7.15,0,0,1,8.2,4.24a.43.43,0,0,0-.74-.45,8,8,0,0,0-.87,6.5,5.68,5.68,0,0,0-.59,0,6,6,0,0,0-5,9.31L.53,21.31a.43.43,0,0,0,.53.53l1.78-.48a6,6,0,0,0,6.37,0,.43.43,0,0,0,.14-.6.44.44,0,0,0-.6-.14,5,5,0,0,1-2.75.8,5.1,5.1,0,0,1-2.84-.86.46.46,0,0,0-.36-.06l-1.24.33.33-1.2a.42.42,0,0,0-.07-.36,5.13,5.13,0,1,1,9.31-3A5,5,0,0,1,10.82,18a.45.45,0,0,0,.26.56.44.44,0,0,0,.56-.26A6,6,0,0,0,12,16.26a5.68,5.68,0,0,0,0-.59,8,8,0,0,0,2.29.33,7.94,7.94,0,0,0,4.46-1.36l2.45.66a.44.44,0,0,0,.42-.12.43.43,0,0,0,.11-.42Z"/><path class="cls-1" d="M16.5,8.93H12.07a.43.43,0,0,0-.43.43,2.65,2.65,0,0,0,5.3,0A.44.44,0,0,0,16.5,8.93Zm-2.21,2.21A1.79,1.79,0,0,1,12.56,9.8H16A1.77,1.77,0,0,1,14.29,11.14Z"/><path class="cls-1" d="M17.25,7.21a.49.49,0,0,0,.23-.06l.05,0a.43.43,0,0,0,.14-.6.44.44,0,0,0-.6-.14l-.05,0a.43.43,0,0,0,.23.8Z"/><path class="cls-1" d="M11.1,6.37l-.06,0a.43.43,0,0,0,.23.8.46.46,0,0,0,.23-.06l.06,0a.44.44,0,1,0-.46-.74Z"/><path class="cls-1" d="M3.3,16a.46.46,0,0,0-.13.31.44.44,0,0,0,.44.44.46.46,0,0,0,.31-.13A.43.43,0,0,0,4,16.26a.41.41,0,0,0-.43-.43A.43.43,0,0,0,3.3,16Z"/><path class="cls-1" d="M5.69,16a.45.45,0,0,0-.12.31.43.43,0,0,0,.12.31.43.43,0,0,0,.62,0,.43.43,0,0,0,.12-.31A.44.44,0,0,0,5.69,16Z"/><path class="cls-1" d="M8.08,16a.45.45,0,0,0-.12.31.43.43,0,0,0,.12.31.46.46,0,0,0,.31.13.44.44,0,0,0,.44-.44A.46.46,0,0,0,8.7,16a.43.43,0,0,0-.31-.12A.45.45,0,0,0,8.08,16Z"/><path class="cls-1" d="M10.34,19.31a.44.44,0,0,0-.44.44.43.43,0,0,0,.13.3.4.4,0,0,0,.31.13.44.44,0,0,0,.43-.43.4.4,0,0,0-.13-.31A.43.43,0,0,0,10.34,19.31Z"/><path class="cls-1" d="M8.93,3.07a.44.44,0,0,0,.43-.43.44.44,0,0,0-.13-.31.43.43,0,0,0-.3-.13.44.44,0,0,0-.44.44.43.43,0,0,0,.13.3A.44.44,0,0,0,8.93,3.07Z"/></g></g></svg>