<svg xmlns="http://www.w3.org/2000/svg" viewBox="0 0 16.85 16.85"><defs><style>.cls-1{fill:#4e2eed;}</style></defs><title>check-cuadrado</title><g id="Capa_2" data-name="Capa 2"><g id="Logo_WINGMAN" data-name="Logo WINGMAN"><g id="Logo_WINGMAN_copy_3_Image" data-name="Logo WINGMAN copy 3 Image"><path class="cls-1" d="M13,16.85H3.86A3.86,3.86,0,0,1,0,13V3.86A3.86,3.86,0,0,1,3.86,0H13a3.86,3.86,0,0,1,3.85,3.86V13A3.86,3.86,0,0,1,13,16.85ZM3.86,1.62A2.24,2.24,0,0,0,1.62,3.86V13a2.23,2.23,0,0,0,2.24,2.23H13A2.23,2.23,0,0,0,15.23,13V3.86A2.23,2.23,0,0,0,13,1.62Z"/><path class="cls-1" d="M8,13.1a.8.8,0,0,1-.64-.31L3.67,8.07a.82.82,0,0,1,.14-1.14A.81.81,0,0,1,5,7.08l2.94,3.78,4-6.71A.81.81,0,1,1,13.24,5L8.68,12.7a.8.8,0,0,1-.64.4Z"/></g></g></g></svg>