<svg xmlns="http://www.w3.org/2000/svg" viewBox="0 0 23.64 23.64"><defs><style>.cls-1{fill:#2e58ff;}</style></defs><title>consejos-1</title><g id="Capa_2" data-name="Capa 2"><g id="Logo_WINGMAN" data-name="Logo WINGMAN"><g id="Logo_WINGMAN_copy_3_Image" data-name="Logo WINGMAN copy 3 Image"><path class="cls-1" d="M11.82,23.64A11.82,11.82,0,0,1,3.46,3.46,11.82,11.82,0,0,1,20.18,20.18a11.75,11.75,0,0,1-8.36,3.46Zm0-22.16A10.34,10.34,0,1,0,22.16,11.82,10.35,10.35,0,0,0,11.82,1.48Z"/><path class="cls-1" d="M11.82,11.08a1.85,1.85,0,1,1,1.85-1.85.74.74,0,0,0,1.48,0A3.34,3.34,0,0,0,12.56,6V5.17a.74.74,0,0,0-1.48,0V6a3.33,3.33,0,0,0,.74,6.57A1.85,1.85,0,1,1,10,14.41a.74.74,0,1,0-1.47,0,3.32,3.32,0,0,0,2.58,3.24v.82a.74.74,0,1,0,1.48,0v-.82a3.33,3.33,0,0,0-.74-6.57Z"/></g></g></g></svg>