<svg xmlns="http://www.w3.org/2000/svg" xmlns:xlink="http://www.w3.org/1999/xlink" viewBox="0 0 18.57 29.45"><defs><style>.cls-1{fill:none;}.cls-2{clip-path:url(#clip-path);}.cls-3{fill:#d1e7ff;}.cls-4{fill:#b9dcff;}.cls-5{fill:#a2d0ff;}.cls-6{fill:#e8f3ff;}.cls-7{fill:#2e58ff;}</style><clipPath id="clip-path" transform="translate(-0.03 0)"><rect class="cls-1" width="18.63" height="27.52"/></clipPath></defs><title>consejos-3</title><g id="Capa_2" data-name="Capa 2"><g id="Logo_WINGMAN" data-name="Logo WINGMAN"><g id="Logo_WINGMAN_copy_3_Image" data-name="Logo WINGMAN copy 3 Image"><g class="cls-2"><path class="cls-3" d="M18.15,24.35V26.6a.46.46,0,0,1-.46.46H1a.45.45,0,0,1-.46-.46V24.35a4.27,4.27,0,0,1,4.27-4.27,2.39,2.39,0,0,0,2-1.08,2.73,2.73,0,0,0,.38-1.68v0a5.69,5.69,0,0,1-3.51-5.25v-.18a1.41,1.41,0,0,1-1.43-1.41V8.08A7.94,7.94,0,0,1,4.34,2.29C6.8-.08,10.69.11,13.51,1.38a.12.12,0,0,1,0,.21l-.74.3a.12.12,0,0,0,0,.22l.36,0a5.82,5.82,0,0,1,4.32,2.72s0,0,0,0a3.47,3.47,0,0,0-1,2.42v3.05A1.49,1.49,0,0,1,15,11.87v.18a5.69,5.69,0,0,1-3.5,5.25v0A2.69,2.69,0,0,0,11.88,19a2.36,2.36,0,0,0,2,1.08,4.28,4.28,0,0,1,4.28,4.27Z" transform="translate(-0.03 0)"/><path class="cls-4" d="M17.48,4.86a0,0,0,0,1,0,0,3.47,3.47,0,0,0-1,2.42v3.05A1.49,1.49,0,0,1,15,11.87V8.74a.45.45,0,0,0-.59-.44,6.14,6.14,0,0,1-3.13.19c-2-.44-2.56-1.22-4.19-1.61A2.79,2.79,0,0,0,3.63,9.62c0,.58,0,1.32,0,2.25a1.41,1.41,0,0,1-1.43-1.41V8.08A7.94,7.94,0,0,1,4.34,2.29C6.8-.08,10.69.11,13.51,1.38a.12.12,0,0,1,0,.21l-.74.31a.11.11,0,0,0,0,.21l.36,0a5.83,5.83,0,0,1,4.32,2.71Z" transform="translate(-0.03 0)"/></g><path class="cls-3" d="M14.4,8.3a.45.45,0,0,1,.59.44v3.31a5.68,5.68,0,1,1-11.35,0c0-1.05,0-1.79,0-2.43A2.79,2.79,0,0,1,7.08,6.88c1.63.39,2.19,1.17,4.19,1.61A6.14,6.14,0,0,0,14.4,8.3Z" transform="translate(-0.03 0)"/><path class="cls-4" d="M18.15,24.35V26.6c0,.26-1.68,3.12-8.83,2.82S1,27.06,1,27.06a.45.45,0,0,1-.46-.46V24.35a4.27,4.27,0,0,1,4.27-4.27,2.39,2.39,0,0,0,2-1.08,3.94,3.94,0,0,0,5.12,0,2.36,2.36,0,0,0,2,1.08,4.28,4.28,0,0,1,4.28,4.27Z" transform="translate(-0.03 0)"/><path class="cls-3" d="M7.07,21.46a2.15,2.15,0,0,1-.68.11,4.28,4.28,0,0,0-4.3,4.26v.43a.8.8,0,0,1-.8.8H1a.45.45,0,0,1-.46-.46V24.35a4.27,4.27,0,0,1,4.27-4.27,2.39,2.39,0,0,0,2-1.08,5.3,5.3,0,0,0,.54.39,1.14,1.14,0,0,1-.23,2.07Z" transform="translate(-0.03 0)"/><path class="cls-5" d="M11.56,21.46a2.15,2.15,0,0,0,.68.11,4.28,4.28,0,0,1,4.3,4.26v.43a.8.8,0,0,0,.8.8h.35a.46.46,0,0,0,.46-.46V24.35a4.28,4.28,0,0,0-4.28-4.27,2.36,2.36,0,0,1-2-1.08,5.44,5.44,0,0,1-.55.39,1.14,1.14,0,0,0,.23,2.07Z" transform="translate(-0.03 0)"/><g class="cls-2"><path class="cls-4" d="M11.56,18.26a5.73,5.73,0,0,1-4.49,0,3.43,3.43,0,0,0,.07-.94v0a5.72,5.72,0,0,0,4.34,0v0a3.46,3.46,0,0,0,.06.94Z" transform="translate(-0.03 0)"/><path class="cls-3" d="M13.51,1.59c-.54.22-.66.3-.91.26C8.05,1.1,4.47,3.48,4,8.13a.62.62,0,0,1-.07.23,4.17,4.17,0,0,0-.28,2.11.71.71,0,0,1-1.42.06V8.08A7.94,7.94,0,0,1,4.34,2.29C6.8-.08,10.69.11,13.51,1.38a.12.12,0,0,1,0,.21Z" transform="translate(-0.03 0)"/><path class="cls-6" d="M8,15.72a.9.9,0,0,1-.82,1.6,5.68,5.68,0,0,1-3.57-5.27c0-1.05,0-1.79,0-2.43a2.7,2.7,0,0,1,.46-1.56.69.69,0,0,1,1.26.41c0,.65,0,1.38,0,2.43A5.65,5.65,0,0,0,8,15.72Z" transform="translate(-0.03 0)"/><path class="cls-7" d="M18.6,24.35v2.71a.46.46,0,1,1-.91,0V24.35a3.81,3.81,0,0,0-3.82-3.81,2.81,2.81,0,0,1-2.42-1.36.45.45,0,0,1,.15-.63.45.45,0,0,1,.63.15,1.89,1.89,0,0,0,1.64.92,4.73,4.73,0,0,1,4.73,4.73Zm-8.54-4.94a3.51,3.51,0,0,1-2.71-.54,3,3,0,0,0,.24-.93,6.14,6.14,0,0,0,7.86-5.89c0-3.89,0-3.83,0-4a.46.46,0,1,0-.91.09c0,.11,0,.2,0,3.9a5.22,5.22,0,1,1-10.43,0c0-1,0-1.83,0-2.43A2.33,2.33,0,0,1,7,7.33C9.1,7.84,10,9.16,12.68,9a.46.46,0,0,0,0-.92C10.18,8.23,9.5,7,7.19,6.44a3.25,3.25,0,0,0-4,3.18c0,.49,0,1,0,1.68a1,1,0,0,1-.51-.84V8.07a7.44,7.44,0,0,1,2-5.45c2.09-2,5.35-2,7.89-1.13l-.37.15a.46.46,0,0,0,.13.88l.8.09a5.32,5.32,0,0,1,3.81,2.23A3.9,3.9,0,0,0,16,7.33v3.13a.46.46,0,0,0,.46.46.45.45,0,0,0,.46-.46V7.33a3,3,0,0,1,.87-2.11.5.5,0,0,0,.06-.59,6.2,6.2,0,0,0-3.82-2.79A.46.46,0,0,0,14,1.08,11,11,0,0,0,8.91,0C4.33.18,1.65,3.6,1.75,8.09v2.37a1.87,1.87,0,0,0,1.44,1.82,6.14,6.14,0,0,0,3.49,5.31v.12a1.91,1.91,0,0,1-1.92,1.91A4.73,4.73,0,0,0,0,24.35v2.71a.46.46,0,0,0,.92,0V24.35a3.8,3.8,0,0,1,3.81-3.81,2.83,2.83,0,0,0,2.08-.91,4.39,4.39,0,0,0,3.41.67.46.46,0,0,0,.35-.54.45.45,0,0,0-.54-.35ZM14,25.17H12.58a.46.46,0,0,0,0,.92H14a.46.46,0,0,0,0-.92Z" transform="translate(-0.03 0)"/></g></g></g></g></svg>