<svg xmlns="http://www.w3.org/2000/svg" viewBox="0 0 25.75 19.67"><defs><style>.cls-1{fill:#2e58ff;}</style></defs><title>consejos-2</title><g id="Capa_2" data-name="Capa 2"><g id="Logo_WINGMAN" data-name="Logo WINGMAN"><g id="Logo_WINGMAN_copy_3_Image" data-name="Logo WINGMAN copy 3 Image"><path class="cls-1" d="M18.52,16.31H7.07A7.08,7.08,0,0,1,0,9.24V7.07A7.08,7.08,0,0,1,7.07,0H18.69a7.07,7.07,0,0,1,7.06,7.07v12.6ZM7.07,1.57a5.51,5.51,0,0,0-5.5,5.5V9.24a5.5,5.5,0,0,0,5.5,5.49h11.8l5.31,2.47V7.07a5.51,5.51,0,0,0-5.49-5.5ZM18.16,7a1.5,1.5,0,1,1-1.49,1.49A1.5,1.5,0,0,1,18.16,7ZM7.59,7a1.5,1.5,0,1,1-1.5,1.49A1.5,1.5,0,0,1,7.59,7Zm5.29,0a1.5,1.5,0,1,1-1.5,1.49A1.49,1.49,0,0,1,12.88,7Z"/></g></g></g></svg>