<svg xmlns="http://www.w3.org/2000/svg" viewBox="0 0 72.6 72.6"><defs><style>.cls-1{fill:#4e2eed;}.cls-2{fill:#1502a0;}.cls-3{fill:#fff;}</style></defs><g id="Capa_2" data-name="Capa 2"><g id="Logo_WINGMAN" data-name="Logo WINGMAN"><g id="Logo_WINGMAN_copy_3_Image" data-name="Logo WINGMAN copy 3 Image"><circle class="cls-1" cx="36.3" cy="36.3" r="36.3"/><path class="cls-2" d="M59,20.91H13.55L30,38l4.75,4.81A6.63,6.63,0,0,1,30.86,41c-.6-.5-1.76-1.83-3.52-3.63L12.51,22.19V50.38l1.17,1.17-.13.14L34.41,72.55c.63,0,1.26,0,1.89,0A36.3,36.3,0,0,0,72.6,36.3c0-.6,0-1.2,0-1.79Z"/><polygon class="cls-3" points="12.51 22.19 12.51 50.38 26.26 36.23 12.51 22.19"/><polygon class="cls-3" points="60.09 22.19 60.09 50.38 46.41 36.29 60.09 22.19"/><path class="cls-3" d="M13.55,20.91H59L41.11,39.49a6.73,6.73,0,0,1-9.71,0Z"/><path class="cls-3" d="M42.14,40.48a8.15,8.15,0,0,1-11.77,0l-3-3.15L13.55,51.69H59L45.17,37.33Z"/></g></g></g></svg>