<svg xmlns="http://www.w3.org/2000/svg" viewBox="0 0 14.94 18.3"><defs><style>.cls-1{fill:#4e2eed;}</style></defs><title>delete</title><g id="Capa_2" data-name="Capa 2"><g id="Capa_1-2" data-name="Capa 1"><path class="cls-1" d="M14.9,4.09l-.41-1.21a1.12,1.12,0,0,0-1.07-.77H10V1A1,1,0,0,0,9,0H5.92a1,1,0,0,0-1,1V2.11H1.52a1.12,1.12,0,0,0-1.07.77L.05,4.09a.89.89,0,0,0,.12.82.93.93,0,0,0,.74.37h.42l.93,11.5A1.66,1.66,0,0,0,3.91,18.3h7.32a1.67,1.67,0,0,0,1.65-1.52l.92-11.5H14a.91.91,0,0,0,.73-.37.92.92,0,0,0,.13-.82ZM6,1.07H9v1H6Zm5.82,15.62a.59.59,0,0,1-.58.54H3.91a.59.59,0,0,1-.58-.54L2.4,5.28H12.73ZM1.14,4.21l.33-1a.07.07,0,0,1,.05,0h11.9a.07.07,0,0,1,.06,0l.33,1Z"/><path class="cls-1" d="M10.1,16.65h0a.54.54,0,0,0,.54-.5l.5-9.67a.53.53,0,0,0-.5-.56.54.54,0,0,0-.57.51l-.5,9.66a.53.53,0,0,0,.51.56Z"/><path class="cls-1" d="M4.31,16.15a.53.53,0,0,0,.53.5h0a.53.53,0,0,0,.51-.56L4.85,6.42a.53.53,0,0,0-.56-.5.54.54,0,0,0-.51.56Z"/><path class="cls-1" d="M7.48,16.65A.53.53,0,0,0,8,16.12V6.45a.54.54,0,0,0-1.07,0v9.67a.54.54,0,0,0,.54.53Z"/></g></g></svg>