<svg xmlns="http://www.w3.org/2000/svg" viewBox="0 0 7.48 12.86"><defs><style>.cls-1{fill:#728ace;}</style></defs><title>divisor-menu</title><g id="Capa_2" data-name="Capa 2"><g id="Capa_1-2" data-name="Capa 1"><path class="cls-1" d="M.38,0l7,6.39a.19.19,0,0,1,0,.28l0,0L.16,12.84a.11.11,0,0,1-.14,0,.07.07,0,0,1,0-.09l0-.05A15.45,15.45,0,0,1,1.28,10.5,23.29,23.29,0,0,1,2.76,8.58c.49-.64,1.07-1.18,1.61-1.77S5.53,5.73,6.11,5.2L6.06,7.88C5.5,7.32,4.93,6.77,4.38,6.19S3.31,5,2.83,4.37s-1-1.29-1.41-2A16.82,16.82,0,0,1,.24.17v0A.09.09,0,0,1,.28,0,.09.09,0,0,1,.38,0Z" transform="translate(0 0)"/></g></g></svg>