<svg xmlns="http://www.w3.org/2000/svg" viewBox="0 0 21.57 21.57"><defs><style>.cls-1{fill:#4e2eed;}</style></defs><title>editar</title><g id="Capa_2" data-name="Capa 2"><g id="Capa_1-2" data-name="Capa 1"><path class="cls-1" d="M2.31,21.57H16.18a2.3,2.3,0,0,0,2.31-2.31v-7.7a.77.77,0,0,0-1.54,0v7.7a.76.76,0,0,1-.77.77H2.31a.77.77,0,0,1-.77-.77V3.85a.78.78,0,0,1,.77-.77h9.25a.77.77,0,0,0,0-1.54H2.31A2.31,2.31,0,0,0,0,3.85V19.26A2.3,2.3,0,0,0,2.31,21.57Z"/><path class="cls-1" d="M18.63,0a3,3,0,0,0-2.09.86L6.39,11a1,1,0,0,0-.19.3L4.66,15.94a.77.77,0,0,0,.49,1,.67.67,0,0,0,.24,0,.69.69,0,0,0,.25,0l4.62-1.54a.73.73,0,0,0,.3-.19L20.71,5a3,3,0,0,0-2.08-5Zm1,4L9.6,14l-3,1,1-3,10-10a1.41,1.41,0,0,1,2,2Z"/></g></g></svg>