<svg xmlns="http://www.w3.org/2000/svg" viewBox="0 0 23.98 22.91"><defs><style>.cls-1{fill:#4e2eed;}</style></defs><g id="Capa_2" data-name="Capa 2"><g id="Capa_1-2" data-name="Capa 1"><path class="cls-1" d="M5.26,22.91a1.12,1.12,0,0,1-.65-.21,1.07,1.07,0,0,1-.42-1.13l1.58-7L.37,9.83A1.08,1.08,0,0,1,.06,8.67,1.06,1.06,0,0,1,1,7.92l7.14-.66L11,.66a1.1,1.1,0,0,1,2,0l2.84,6.6L23,7.92a1.06,1.06,0,0,1,.94.75,1.08,1.08,0,0,1-.31,1.16l-5.4,4.74,1.58,7a1.07,1.07,0,0,1-.42,1.13,1.11,1.11,0,0,1-1.21.06L12,19.09,5.82,22.76A1.15,1.15,0,0,1,5.26,22.91ZM12,1a.09.09,0,0,0-.09.06L8.83,8.2l-7.74.71S1,8.92,1,9a.09.09,0,0,0,0,.1l5.84,5.13L5.16,21.79a.1.1,0,0,0,0,.1.09.09,0,0,0,.11,0l6.68-4,6.68,4s.06,0,.11,0a.1.1,0,0,0,0-.1l-1.71-7.58L23,9.08A.09.09,0,0,0,23,9c0-.06-.06-.06-.08-.07L15.15,8.2,12.08,1.06A.09.09,0,0,0,12,1Z"/></g></g></svg>