<svg xmlns="http://www.w3.org/2000/svg" viewBox="0 0 69.76 46.74"><defs><style>.cls-1{fill:none;stroke:#e3e3e3;stroke-miterlimit:10;stroke-width:0.5px;}.cls-2{fill:#ffdc64;}.cls-3{fill:#ffc850;}</style></defs><title>estrella-3</title><g id="Capa_2" data-name="Capa 2"><g id="Capa_1-2" data-name="Capa 1"><path class="cls-1" d="M59.66,18.85,57,18.61l-1-2.45a.21.21,0,0,0-.39,0l-1,2.45-2.65.24a.21.21,0,0,0-.12.37l2,1.76-.59,2.6a.22.22,0,0,0,.32.23l2.28-1.36,2.29,1.36a.22.22,0,0,0,.32-.23L57.78,21l2-1.76A.21.21,0,0,0,59.66,18.85Z" transform="translate(0 0)"/><path class="cls-1" d="M69.32,3.07l-2.65-.25-1-2.44a.21.21,0,0,0-.39,0L64.17,2.82l-2.65.25a.21.21,0,0,0-.12.37l2,1.76-.58,2.59a.21.21,0,0,0,.31.23l2.29-1.36L67.71,8A.21.21,0,0,0,68,7.79L67.44,5.2l2-1.76A.21.21,0,0,0,69.32,3.07Z" transform="translate(0 0)"/><path class="cls-1" d="M44.49,30.47l-2.65-.24-1.05-2.45a.21.21,0,0,0-.39,0l-1,2.45-2.65.24a.21.21,0,0,0-.12.37l2,1.76L38,35.2a.22.22,0,0,0,.32.23l2.29-1.36,2.28,1.36a.22.22,0,0,0,.32-.23l-.58-2.6,2-1.76A.21.21,0,0,0,44.49,30.47Z" transform="translate(0 0)"/><path class="cls-2" d="M44.49,30.47l-2.65-.24-1.05-2.45a.21.21,0,0,0-.39,0l-1,2.45-2.65.24a.21.21,0,0,0-.12.37l2,1.76L38,35.2a.22.22,0,0,0,.32.23l2.29-1.36,2.28,1.36a.22.22,0,0,0,.32-.23l-.58-2.6,2-1.76A.21.21,0,0,0,44.49,30.47Z" transform="translate(0 0)"/><path class="cls-3" d="M41.17,28.67l-.38-.89a.21.21,0,0,0-.39,0l-1,2.45-2.65.24a.21.21,0,0,0-.12.37l2,1.76L38,35.2a.22.22,0,0,0,.32.23l.3-.18A16.63,16.63,0,0,1,41.17,28.67Z" transform="translate(0 0)"/><path class="cls-2" d="M44.49,30.47l-2.65-.24-1.05-2.45a.21.21,0,0,0-.39,0l-1,2.45-2.65.24a.21.21,0,0,0-.12.37l2,1.76L38,35.2a.22.22,0,0,0,.32.23l2.29-1.36,2.28,1.36a.22.22,0,0,0,.32-.23l-.58-2.6,2-1.76A.21.21,0,0,0,44.49,30.47Z" transform="translate(0 0)"/><path class="cls-3" d="M41.17,28.67l-.38-.89a.21.21,0,0,0-.39,0l-1,2.45-2.65.24a.21.21,0,0,0-.12.37l2,1.76L38,35.2a.22.22,0,0,0,.32.23l.3-.18A16.63,16.63,0,0,1,41.17,28.67Z" transform="translate(0 0)"/><path class="cls-1" d="M27,37.86l-2.65-.25L23.3,35.17a.21.21,0,0,0-.39,0l-1.05,2.44-2.65.25a.21.21,0,0,0-.12.37l2,1.76-.58,2.59a.21.21,0,0,0,.31.23l2.29-1.36,2.29,1.36a.21.21,0,0,0,.31-.23L25.13,40l2-1.76A.21.21,0,0,0,27,37.86Z" transform="translate(0 0)"/><path class="cls-2" d="M27,37.86l-2.65-.25L23.3,35.17a.21.21,0,0,0-.39,0l-1.05,2.44-2.65.25a.21.21,0,0,0-.12.37l2,1.76-.58,2.59a.21.21,0,0,0,.31.23l2.29-1.36,2.29,1.36a.21.21,0,0,0,.31-.23L25.13,40l2-1.76A.21.21,0,0,0,27,37.86Z" transform="translate(0 0)"/><path class="cls-3" d="M23.69,36.06l-.39-.89a.21.21,0,0,0-.39,0l-1.05,2.44-2.65.25a.21.21,0,0,0-.12.37l2,1.76-.58,2.59a.21.21,0,0,0,.31.23l.31-.18A16.48,16.48,0,0,1,23.69,36.06Z" transform="translate(0 0)"/><path class="cls-2" d="M27,37.86l-2.65-.25L23.3,35.17a.21.21,0,0,0-.39,0l-1.05,2.44-2.65.25a.21.21,0,0,0-.12.37l2,1.76-.58,2.59a.21.21,0,0,0,.31.23l2.29-1.36,2.29,1.36a.21.21,0,0,0,.31-.23L25.13,40l2-1.76A.21.21,0,0,0,27,37.86Z" transform="translate(0 0)"/><path class="cls-3" d="M23.69,36.06l-.39-.89a.21.21,0,0,0-.39,0l-1.05,2.44-2.65.25a.21.21,0,0,0-.12.37l2,1.76-.58,2.59a.21.21,0,0,0,.31.23l.31-.18A16.48,16.48,0,0,1,23.69,36.06Z" transform="translate(0 0)"/><path class="cls-2" d="M8,41.76l-2.65-.25-1-2.44a.21.21,0,0,0-.39,0L2.84,41.51l-2.65.25a.21.21,0,0,0-.12.37l2,1.76-.58,2.59a.21.21,0,0,0,.31.23l2.29-1.35,2.29,1.35a.21.21,0,0,0,.32-.23l-.59-2.59,2-1.76A.21.21,0,0,0,8,41.76Z" transform="translate(0 0)"/><path class="cls-3" d="M4.67,40l-.38-.89a.21.21,0,0,0-.39,0L2.84,41.51l-2.65.25a.21.21,0,0,0-.12.37l2,1.76-.58,2.59a.21.21,0,0,0,.31.23l.31-.18A16.48,16.48,0,0,1,4.67,40Z" transform="translate(0 0)"/></g></g></svg>