<svg xmlns="http://www.w3.org/2000/svg" viewBox="0 0 70.01 46.99"><defs><style>.cls-1{fill:none;stroke:#e3e3e3;stroke-miterlimit:10;stroke-width:0.5px;}</style></defs><title>estrellas-vacia</title><g id="Capa_2" data-name="Capa 2"><g id="Capa_1-2" data-name="Capa 1"><path class="cls-1" d="M8.24,41.76l-2.65-.25-1-2.44a.21.21,0,0,0-.39,0L3.09,41.51l-2.65.25a.21.21,0,0,0-.12.37l2,1.76-.58,2.59a.21.21,0,0,0,.31.23l2.29-1.35,2.29,1.35A.21.21,0,0,0,7,46.48l-.59-2.59,2-1.76A.21.21,0,0,0,8.24,41.76Z" transform="translate(0 0)"/><path class="cls-1" d="M27.26,37.86l-2.65-.25-1.06-2.44a.21.21,0,0,0-.39,0l-1.05,2.44-2.65.25a.21.21,0,0,0-.12.37l2,1.76-.58,2.59a.21.21,0,0,0,.31.23l2.29-1.36,2.29,1.36a.21.21,0,0,0,.31-.23L25.38,40l2-1.76A.21.21,0,0,0,27.26,37.86Z" transform="translate(0 0)"/><path class="cls-1" d="M44.74,30.47l-2.65-.24L41,27.78a.21.21,0,0,0-.39,0l-1,2.45L37,30.47a.21.21,0,0,0-.12.37l2,1.76-.59,2.6a.22.22,0,0,0,.32.23l2.29-1.36,2.28,1.36a.22.22,0,0,0,.32-.23l-.58-2.6,2-1.76A.21.21,0,0,0,44.74,30.47Z" transform="translate(0 0)"/><path class="cls-1" d="M59.91,18.85l-2.65-.24-1-2.45a.21.21,0,0,0-.39,0l-1,2.45-2.65.24a.21.21,0,0,0-.12.37L54,21l-.59,2.6a.22.22,0,0,0,.32.23L56,22.45l2.29,1.36a.22.22,0,0,0,.32-.23L58,21l2-1.76A.21.21,0,0,0,59.91,18.85Z" transform="translate(0 0)"/><path class="cls-1" d="M69.57,3.07l-2.65-.25-1-2.44a.21.21,0,0,0-.39,0L64.42,2.82l-2.65.25a.21.21,0,0,0-.12.37l2,1.76-.58,2.59a.21.21,0,0,0,.31.23l2.29-1.36L68,8a.21.21,0,0,0,.32-.23L67.69,5.2l2-1.76A.21.21,0,0,0,69.57,3.07Z" transform="translate(0 0)"/></g></g></svg>