<svg xmlns="http://www.w3.org/2000/svg" viewBox="0 0 20.91 20.91"><defs><style>.cls-1{fill:#4e2eed;}</style></defs><title>filtro-icono</title><g id="Capa_2" data-name="Capa 2"><g id="Capa_1-2" data-name="Capa 1"><path class="cls-1" d="M16.24,2.56a.41.41,0,0,0-.41-.41h0a.41.41,0,0,0-.41.41.42.42,0,0,0,.41.41.41.41,0,0,0,.41-.41Z"/><path class="cls-1" d="M18.44,2.56a.4.4,0,0,0-.4-.41h0a.4.4,0,0,0-.4.41.41.41,0,1,0,.81,0Z"/><path class="cls-1" d="M14,2.56a.41.41,0,0,0-.41-.41h0a.41.41,0,0,0-.41.41.41.41,0,0,0,.41.41A.42.42,0,0,0,14,2.56Z"/><path class="cls-1" d="M2.46,2.56A.41.41,0,0,0,2.87,3H9a.41.41,0,0,0,.41-.41A.41.41,0,0,0,9,2.15H2.87a.41.41,0,0,0-.41.41Z"/><path class="cls-1" d="M19.6,0H6.81a.4.4,0,0,0-.4.41.41.41,0,0,0,.4.41H19.6a.49.49,0,0,1,.49.49v3H.82v-3A.49.49,0,0,1,1.31.82H3.15A.42.42,0,0,0,3.56.41.41.41,0,0,0,3.15,0H1.31A1.31,1.31,0,0,0,0,1.31V16.43a1.31,1.31,0,0,0,1.31,1.31h5.1A5.91,5.91,0,0,0,10,19.34V20.5a.42.42,0,0,0,.41.41.41.41,0,0,0,.41-.41V19.34a5.88,5.88,0,0,0,3.63-1.6H19.6a1.31,1.31,0,0,0,1.31-1.31V1.31A1.31,1.31,0,0,0,19.6,0ZM5.4,13.87H6.74A3.74,3.74,0,0,0,10,17.18v1.34A5.09,5.09,0,0,1,5.4,13.87Zm8.77-.81a3.74,3.74,0,0,0-3.31-3.31V8.42a5.07,5.07,0,0,1,4.64,4.64Zm-3.72,3.33a2.92,2.92,0,1,1,2.92-2.92,2.92,2.92,0,0,1-2.92,2.92ZM10,9.75a3.74,3.74,0,0,0-3.3,3.31H5.4A5.08,5.08,0,0,1,10,8.42V9.75Zm.82,7.43a3.74,3.74,0,0,0,3.31-3.31H15.5a5.08,5.08,0,0,1-4.64,4.65Zm8.74-.26H15.21a5.85,5.85,0,0,0,1.11-3.05h1.16a.41.41,0,1,0,0-.81H16.32A5.89,5.89,0,0,0,10.86,7.6V6.44A.41.41,0,0,0,10.45,6a.41.41,0,0,0-.41.41V7.6a5.89,5.89,0,0,0-5.45,5.46H3.42a.41.41,0,1,0,0,.81H4.59A5.68,5.68,0,0,0,5.7,16.92H1.31a.49.49,0,0,1-.49-.49V5.12H20.09V16.43a.49.49,0,0,1-.49.49Z"/><path class="cls-1" d="M11.86,12.26a.42.42,0,0,0-.58.05l-1.23,1.47-.48-.41A.41.41,0,0,0,9,14l.8.67a.42.42,0,0,0,.26.1.4.4,0,0,0,.31-.15l1.5-1.78a.41.41,0,0,0-.05-.58Z"/><path class="cls-1" d="M5,.82H5A.41.41,0,0,0,5.39.41.41.41,0,0,0,5,0a.41.41,0,0,0-.41.41A.42.42,0,0,0,5,.82Z"/></g></g></svg>