<svg xmlns="http://www.w3.org/2000/svg" xmlns:xlink="http://www.w3.org/1999/xlink" viewBox="0 0 11.36 11.36"><defs><style>.cls-1{isolation:isolate;}.cls-2{fill:#4e2eed;}.cls-3{mix-blend-mode:multiply;fill:url(#Degradado_sin_nombre_9);}.cls-4{fill:#fff;}</style><linearGradient id="Degradado_sin_nombre_9" x1="6.35" y1="5.22" x2="10.18" y2="9.05" gradientUnits="userSpaceOnUse"><stop offset="0" stop-color="#026838"/><stop offset="0.25" stop-color="#026838" stop-opacity="0.63"/><stop offset="0.53" stop-color="#026838" stop-opacity="0.29"/><stop offset="0.75" stop-color="#026838" stop-opacity="0.08"/><stop offset="0.9" stop-color="#026838" stop-opacity="0"/></linearGradient></defs><g class="cls-1"><g id="Capa_2" data-name="Capa 2"><g id="Logo_WINGMAN" data-name="Logo WINGMAN"><g id="Logo_WINGMAN_copy_3_Image" data-name="Logo WINGMAN copy 3 Image"><circle class="cls-2" cx="5.68" cy="5.68" r="5.68"/><path class="cls-3" d="M11.35,5.69a6,6,0,0,0-.09-1.05L9.4,2.79,5.28,6.62l-.82,2.2,2.42,2.42A5.67,5.67,0,0,0,11.35,5.69Z"/><path class="cls-4" d="M4.47,8.82,1.94,6.29a.81.81,0,0,1,0-1.15.83.83,0,0,1,1.15,0L4.48,6.53,8.26,2.79a.81.81,0,0,1,1.15,0,.8.8,0,0,1,0,1.14Z"/></g></g></g></g></svg>