<svg xmlns="http://www.w3.org/2000/svg" xmlns:xlink="http://www.w3.org/1999/xlink" viewBox="0 0 7.78 7.78"><defs><style>.cls-1{fill:#ff004b;}.cls-2{fill:url(#Nueva_muestra_de_degradado_1);}.cls-3{fill:#fff;}</style><linearGradient id="Nueva_muestra_de_degradado_1" x1="3.89" y1="3.99" x2="6.41" y2="6.5" gradientUnits="userSpaceOnUse"><stop offset="0" stop-color="#501012"/><stop offset="0.04" stop-color="#38182d"/><stop offset="0.09" stop-color="#241f43"/><stop offset="0.11" stop-color="#1d214b"/><stop offset="0.9" stop-color="#501012" stop-opacity="0"/></linearGradient></defs><g id="Capa_2" data-name="Capa 2"><g id="Logo_WINGMAN" data-name="Logo WINGMAN"><g id="Logo_WINGMAN_copy_3_Image" data-name="Logo WINGMAN copy 3 Image"><circle class="cls-1" cx="3.89" cy="3.89" r="3.89"/><path class="cls-2" d="M2,5.84,4,7.78A3.87,3.87,0,0,0,7.77,4.16l-2-2Z"/><path class="cls-3" d="M2,5.84H2a.54.54,0,0,1,0-.78L5,2.13a.57.57,0,0,1,.79,0h0a.57.57,0,0,1,0,.79L2.82,5.84A.54.54,0,0,1,2,5.84Z"/><path class="cls-3" d="M2,2.13H2a.56.56,0,0,1,.78,0L5.75,5.06a.56.56,0,0,1,0,.78h0a.56.56,0,0,1-.79,0L2,2.92A.56.56,0,0,1,2,2.13Z"/></g></g></g></svg>