<svg xmlns="http://www.w3.org/2000/svg" xmlns:xlink="http://www.w3.org/1999/xlink" viewBox="0 0 40.58 39.5"><defs><style>.cls-1{opacity:0;fill:url(#linear-gradient);}.cls-2{opacity:0.06;fill:url(#linear-gradient-2);}.cls-3{opacity:0.13;fill:url(#linear-gradient-3);}.cls-4{opacity:0.19;fill:url(#linear-gradient-4);}.cls-5{opacity:0.25;fill:url(#linear-gradient-5);}.cls-6{opacity:0.31;fill:url(#linear-gradient-6);}.cls-7{opacity:0.38;fill:url(#linear-gradient-7);}.cls-8{opacity:0.44;fill:url(#linear-gradient-8);}.cls-9{opacity:0.5;fill:url(#linear-gradient-9);}.cls-10{opacity:0.56;fill:url(#linear-gradient-10);}.cls-11{opacity:0.63;fill:url(#linear-gradient-11);}.cls-12{opacity:0.69;fill:url(#linear-gradient-12);}.cls-13{opacity:0.75;fill:url(#linear-gradient-13);}.cls-14{opacity:0.81;fill:url(#linear-gradient-14);}.cls-15{opacity:0.88;fill:url(#linear-gradient-15);}.cls-16{opacity:0.94;fill:url(#linear-gradient-16);}.cls-17{fill:url(#linear-gradient-17);}.cls-18{fill:#fff;}.cls-19{fill:#ff6c08;}</style><linearGradient id="linear-gradient" x1="1.78" y1="5.91" x2="38.13" y2="33.1" gradientUnits="userSpaceOnUse"><stop offset="0" stop-color="#fff"/><stop offset="0.47" stop-color="#e3e4e9"/><stop offset="1" stop-color="#bec2cc"/></linearGradient><linearGradient id="linear-gradient-2" x1="2.22" y1="6.17" x2="37.74" y2="32.87" gradientUnits="userSpaceOnUse"><stop offset="0" stop-color="#fff"/><stop offset="0.46" stop-color="#e3e5e9"/><stop offset="1" stop-color="#bec2cc"/></linearGradient><linearGradient id="linear-gradient-3" x1="2.65" y1="6.44" x2="37.36" y2="32.64" gradientUnits="userSpaceOnUse"><stop offset="0" stop-color="#fff"/><stop offset="0.45" stop-color="#e4e6ea"/><stop offset="1" stop-color="#bec2cc"/></linearGradient><linearGradient id="linear-gradient-4" x1="3.08" y1="6.7" x2="36.97" y2="32.4" gradientUnits="userSpaceOnUse"><stop offset="0" stop-color="#fff"/><stop offset="0.45" stop-color="#e4e6ea"/><stop offset="1" stop-color="#bec2cc"/></linearGradient><linearGradient id="linear-gradient-5" x1="3.51" y1="6.97" x2="36.59" y2="32.17" gradientUnits="userSpaceOnUse"><stop offset="0" stop-color="#fff"/><stop offset="0.44" stop-color="#e5e7eb"/><stop offset="1" stop-color="#bec2cc"/></linearGradient><linearGradient id="linear-gradient-6" x1="3.94" y1="7.24" x2="36.2" y2="31.93" gradientUnits="userSpaceOnUse"><stop offset="0" stop-color="#fff"/><stop offset="0.43" stop-color="#e6e7eb"/><stop offset="1" stop-color="#bec2cc"/></linearGradient><linearGradient id="linear-gradient-7" x1="4.37" y1="7.51" x2="35.81" y2="31.69" gradientUnits="userSpaceOnUse"><stop offset="0" stop-color="#fff"/><stop offset="0.42" stop-color="#e6e8ec"/><stop offset="1" stop-color="#bec2cc"/></linearGradient><linearGradient id="linear-gradient-8" x1="4.8" y1="7.79" x2="35.43" y2="31.44" gradientUnits="userSpaceOnUse"><stop offset="0" stop-color="#fff"/><stop offset="0.41" stop-color="#e7e8ec"/><stop offset="1" stop-color="#bec2cc"/></linearGradient><linearGradient id="linear-gradient-9" x1="5.22" y1="8.06" x2="35.04" y2="31.2" gradientUnits="userSpaceOnUse"><stop offset="0" stop-color="#fff"/><stop offset="0.41" stop-color="#e7e9ec"/><stop offset="1" stop-color="#bec2cc"/></linearGradient><linearGradient id="linear-gradient-10" x1="5.65" y1="8.34" x2="34.66" y2="30.95" gradientUnits="userSpaceOnUse"><stop offset="0" stop-color="#fff"/><stop offset="0.4" stop-color="#e8e9ed"/><stop offset="1" stop-color="#bec2cc"/></linearGradient><linearGradient id="linear-gradient-11" x1="6.07" y1="8.62" x2="34.27" y2="30.69" gradientUnits="userSpaceOnUse"><stop offset="0" stop-color="#fff"/><stop offset="0.4" stop-color="#e8eaed"/><stop offset="1" stop-color="#bec2cc"/></linearGradient><linearGradient id="linear-gradient-12" x1="6.49" y1="8.9" x2="33.88" y2="30.44" gradientUnits="userSpaceOnUse"><stop offset="0" stop-color="#fff"/><stop offset="0.39" stop-color="#e9eaed"/><stop offset="1" stop-color="#bec2cc"/></linearGradient><linearGradient id="linear-gradient-13" x1="6.9" y1="9.18" x2="33.5" y2="30.18" gradientUnits="userSpaceOnUse"><stop offset="0" stop-color="#fff"/><stop offset="0.38" stop-color="#e9eaee"/><stop offset="1" stop-color="#bec2cc"/></linearGradient><linearGradient id="linear-gradient-14" x1="7.32" y1="9.46" x2="33.11" y2="29.93" gradientUnits="userSpaceOnUse"><stop offset="0" stop-color="#fff"/><stop offset="0.38" stop-color="#e9ebee"/><stop offset="1" stop-color="#bec2cc"/></linearGradient><linearGradient id="linear-gradient-15" x1="7.73" y1="9.74" x2="32.73" y2="29.66" gradientUnits="userSpaceOnUse"><stop offset="0" stop-color="#fff"/><stop offset="0.37" stop-color="#eaebee"/><stop offset="1" stop-color="#bec2cc"/></linearGradient><linearGradient id="linear-gradient-16" x1="8.15" y1="10.03" x2="32.34" y2="29.4" gradientUnits="userSpaceOnUse"><stop offset="0" stop-color="#fff"/><stop offset="0.37" stop-color="#eaecef"/><stop offset="1" stop-color="#bec2cc"/></linearGradient><linearGradient id="linear-gradient-17" x1="8.56" y1="10.32" x2="31.96" y2="29.13" gradientUnits="userSpaceOnUse"><stop offset="0" stop-color="#fff"/><stop offset="0.36" stop-color="#ebecef"/><stop offset="1" stop-color="#bec2cc"/></linearGradient></defs><g id="Capa_2" data-name="Capa 2"><g id="Logo_WINGMAN" data-name="Logo WINGMAN"><g id="Logo_WINGMAN_copy_3_Image" data-name="Logo WINGMAN copy 3 Image"><rect class="cls-1" width="40.58" height="39.5" rx="11.82"/><rect class="cls-2" x="0.48" y="0.49" width="39.62" height="38.52" rx="11.37"/><rect class="cls-3" x="0.96" y="0.99" width="38.66" height="37.53" rx="10.92"/><rect class="cls-4" x="1.45" y="1.48" width="37.69" height="36.54" rx="10.47"/><rect class="cls-5" x="1.93" y="1.97" width="36.73" height="35.55" rx="10.02"/><rect class="cls-6" x="2.41" y="2.47" width="35.76" height="34.57" rx="9.57"/><rect class="cls-7" x="2.89" y="2.96" width="34.8" height="33.58" rx="9.12"/><rect class="cls-8" x="3.37" y="3.46" width="33.84" height="32.59" rx="8.67"/><rect class="cls-9" x="3.86" y="3.95" width="32.87" height="31.6" rx="8.22"/><rect class="cls-10" x="4.34" y="4.44" width="31.91" height="30.62" rx="7.77"/><rect class="cls-11" x="4.82" y="4.94" width="30.94" height="29.63" rx="7.32"/><rect class="cls-12" x="5.3" y="5.43" width="29.98" height="28.64" rx="6.87"/><rect class="cls-13" x="5.78" y="5.92" width="29.02" height="27.65" rx="6.42"/><rect class="cls-14" x="6.27" y="6.42" width="28.05" height="26.67" rx="5.97"/><rect class="cls-15" x="6.75" y="6.91" width="27.09" height="25.68" rx="5.52"/><rect class="cls-16" x="7.23" y="7.41" width="26.12" height="24.69" rx="5.07"/><rect class="cls-17" x="7.71" y="7.9" width="25.16" height="23.7" rx="4.62"/><rect class="cls-18" x="7.71" y="7.9" width="25.16" height="23.7" rx="4.09"/><path class="cls-19" d="M22,24.42h-.53v-.33a1.85,1.85,0,0,0,1.06-1.68v-1a.89.89,0,0,0-.89-.89h-3a.18.18,0,0,0-.17.18v.35a.71.71,0,0,0,.53.69v.16l-.34.86a.17.17,0,0,0,0,.17.21.21,0,0,0,.15.07H19a1.81,1.81,0,0,0,1,1.1v.32h-.53a2,2,0,0,0-1.95,2V28a.18.18,0,0,0,.18.17h6a.18.18,0,0,0,.18-.17v-1.6a2,2,0,0,0-1.95-2Zm-3.2-3.37v-.18h2.84a.54.54,0,0,1,.54.54v.88a.54.54,0,0,1-.54-.53v-.18a.18.18,0,0,0-.17-.17H19.14a.36.36,0,0,1-.36-.36Zm.57,1.74a.18.18,0,0,0-.17-.14H19L19.3,22a.13.13,0,0,0,0-.06v-.18h2a.89.89,0,0,0,.87.89,1.46,1.46,0,0,1-1.37,1.24,1.44,1.44,0,0,1-1.42-1.1Zm1,1.42a2.09,2.09,0,0,0,.36,0h0l.31,0v.39a.18.18,0,0,0,.18.18h.08l-.62,1.35-.61-1.35h.44a.18.18,0,0,0,0-.36h-.18Zm3.2,3.59H17.89V26.38a1.6,1.6,0,0,1,1.6-1.6h.24l.84,1.85a.19.19,0,0,0,.16.1.19.19,0,0,0,.17-.1l.84-1.85H22a1.6,1.6,0,0,1,1.6,1.6Z"/><path class="cls-19" d="M20.73,17a.19.19,0,0,0,.13-.05l1.57-1.64a1.07,1.07,0,0,0,0-1.47,1,1,0,0,0-.71-.3h0a1,1,0,0,0-.72.3l-.27.28-.26-.28a1,1,0,0,0-.72-.3h0a1,1,0,0,0-.71.3,1.07,1.07,0,0,0,0,1.47l1.57,1.64a.18.18,0,0,0,.12.05ZM19.29,14a.65.65,0,0,1,.46-.2h0a.61.61,0,0,1,.46.2l.4.41a.18.18,0,0,0,.25,0l.4-.41a.64.64,0,0,1,.92,0,.71.71,0,0,1,0,1l-1.45,1.5L19.29,15a.71.71,0,0,1,0-1Z"/><path class="cls-19" d="M23.22,14.12A.18.18,0,0,0,23.4,14v-.71a.18.18,0,0,0-.18-.18h-.71a.18.18,0,0,0-.18.18.18.18,0,0,0,.18.17H23V14a.18.18,0,0,0,.18.17Z"/><path class="cls-19" d="M18.25,16.26a.17.17,0,0,0-.18.17v.71a.18.18,0,0,0,.18.18H19a.18.18,0,0,0,.18-.18A.18.18,0,0,0,19,17h-.53v-.54a.17.17,0,0,0-.18-.17Z"/><path class="cls-19" d="M28,15.37H24.11a.89.89,0,0,0-.89.89v1.95H22.16a.19.19,0,0,0-.13.05l-1.3,1.3-1.29-1.3a.19.19,0,0,0-.13-.05H17.18a.65.65,0,0,1-.2,0h0a.53.53,0,0,1-.32-.49v-5a.53.53,0,0,1,.53-.53h7.11a.53.53,0,0,1,.53.53v2.13A.18.18,0,0,0,25,15a.17.17,0,0,0,.17-.18V12.7a.87.87,0,0,0-.88-.88H17.18a.88.88,0,0,0-.89.88v5a.93.93,0,0,0,.11.41.53.53,0,1,0,.78.47h.36V20H17a.18.18,0,0,0-.18.18v1L15.71,20a.16.16,0,0,0-.13-.06H12.92V17.14h2.84a.18.18,0,0,0,.18-.17.18.18,0,0,0-.18-.18h-3a.17.17,0,0,0-.17.18v3.19a.17.17,0,0,0,.17.18h2.77l1.37,1.37a.19.19,0,0,0,.13.05h.06a.18.18,0,0,0,.11-.17V20.34h.54a.18.18,0,0,0,.17-.18v-1.6h1.35l1.37,1.37a.15.15,0,0,0,.12.05.15.15,0,0,0,.13-.05l1.37-1.37h1v.89a.89.89,0,0,0,.89.89h.18v1.07a.17.17,0,0,0,.11.16h.06a.15.15,0,0,0,.13,0l1.19-1.19H28a.88.88,0,0,0,.88-.89V16.26a.88.88,0,0,0-.88-.89ZM16.83,18.56a.18.18,0,0,1-.36,0,.18.18,0,0,1,.18-.17h0l.14.08a.24.24,0,0,1,0,.09Zm11.72.89A.53.53,0,0,1,28,20H25.71a.18.18,0,0,0-.13.06l-.94.94v-.82a.18.18,0,0,0-.18-.18h-.35a.53.53,0,0,1-.53-.53V16.26a.54.54,0,0,1,.53-.54H28a.54.54,0,0,1,.53.54Z"/><path class="cls-19" d="M26.22,16.89a.19.19,0,0,0-.32,0L25,18.66a.17.17,0,0,0,0,.17.18.18,0,0,0,.15.09H27a.16.16,0,0,0,.15-.09.17.17,0,0,0,0-.17Zm-.76,1.67.6-1.2.6,1.2Z"/><path class="cls-19" d="M13.28,18.56a.53.53,0,0,0,.53.54.54.54,0,0,0,0-1.07.53.53,0,0,0-.53.53Zm.71,0a.18.18,0,0,1-.36,0,.18.18,0,0,1,.36,0Z"/><path class="cls-19" d="M14.7,18.56a.53.53,0,1,0,.53-.53.54.54,0,0,0-.53.53Zm.71,0a.18.18,0,0,1-.36,0,.18.18,0,0,1,.36,0Z"/><path class="cls-19" d="M18.06,23.11a.19.19,0,0,0-.17-.11H16.83v-.35a.18.18,0,0,0-.18-.18H12.74a.17.17,0,0,0-.17.18v4.62a.17.17,0,0,0,.17.17h3.91a.18.18,0,0,0,.18-.17V24.5L18,23.31a.2.2,0,0,0,0-.2ZM16.52,24.3a.18.18,0,0,0-.05.12v2.67H12.92V22.83h3.55v.35a.18.18,0,0,0,.18.18h.81Z"/><path class="cls-19" d="M28.73,22.29H24.46a.18.18,0,0,0-.17.18v.36H23.22a.16.16,0,0,0-.16.11.16.16,0,0,0,0,.19l1.19,1.19v1.35a.18.18,0,0,0,.17.18h4.27a.18.18,0,0,0,.17-.18v-3.2a.18.18,0,0,0-.17-.18Zm-.18,3.2H24.64V24.25a.19.19,0,0,0-.05-.13l-.94-.94h.81a.18.18,0,0,0,.18-.18v-.35h3.91Z"/><path class="cls-19" d="M25.35,23.54h2.49a.18.18,0,1,0,0-.36H25.35a.18.18,0,0,0,0,.36Z"/><path class="cls-19" d="M25.35,24.25h2.49a.18.18,0,0,0,0-.36H25.35a.18.18,0,0,0,0,.36Z"/><path class="cls-19" d="M15.76,23.36H13.63a.18.18,0,0,0-.18.18.18.18,0,0,0,.18.17h2.13a.18.18,0,0,0,.18-.17.18.18,0,0,0-.18-.18Z"/><path class="cls-19" d="M15.76,24.07H13.63a.18.18,0,0,0-.18.18.17.17,0,0,0,.18.17h2.13a.17.17,0,0,0,.18-.17.18.18,0,0,0-.18-.18Z"/><path class="cls-19" d="M15.76,24.78H13.63a.18.18,0,0,0,0,.36h2.13a.18.18,0,0,0,0-.36Z"/><path class="cls-19" d="M15.76,25.49H13.63a.18.18,0,0,0,0,.36h2.13a.18.18,0,1,0,0-.36Z"/><path class="cls-19" d="M15.76,26.2H13.63a.18.18,0,0,0,0,.36h2.13a.18.18,0,1,0,0-.36Z"/><path class="cls-19" d="M22.33,26.2h-.71a.17.17,0,0,0-.17.18v.71a.17.17,0,0,0,.09.16l.36.18h.16l.35-.18a.18.18,0,0,0,.1-.16v-.71a.18.18,0,0,0-.18-.18Zm-.17.78-.18.09L21.8,27v-.42h.36Z"/><path class="cls-19" d="M26.6,24.78a.18.18,0,1,1-.18-.18.18.18,0,0,1,.18.18Z"/><path class="cls-19" d="M27.31,24.78a.18.18,0,1,1-.18-.18.18.18,0,0,1,.18.18Z"/><path class="cls-19" d="M28,24.78a.18.18,0,1,1-.18-.18.18.18,0,0,1,.18.18Z"/><path class="cls-19" d="M25.35,25h.36a.18.18,0,0,0,0-.36h-.36a.18.18,0,0,0,0,.36Z"/></g></g></g></svg>