<svg xmlns="http://www.w3.org/2000/svg" xmlns:xlink="http://www.w3.org/1999/xlink" viewBox="0 0 72.99 72.99"><defs><style>.cls-1{fill:url(#linear-gradient);}.cls-2{fill:url(#linear-gradient-2);}.cls-3{fill:#fff;}</style><linearGradient id="linear-gradient" x1="52.49" y1="80.45" x2="20.5" y2="-7.46" gradientUnits="userSpaceOnUse"><stop offset="0" stop-color="#1c1c38"/><stop offset="1" stop-color="#462d99"/></linearGradient><linearGradient id="linear-gradient-2" x1="41.15" y1="49.27" x2="31.84" y2="23.72" xlink:href="#linear-gradient"/></defs><g id="Capa_2" data-name="Capa 2"><g id="Capa_1-2" data-name="Capa 1"><rect class="cls-1" width="72.99" height="72.99"/><rect class="cls-2" x="23.24" y="26.37" width="26.51" height="20.25" rx="1.59"/><path class="cls-3" d="M48.32,26.92H24.67a.74.74,0,0,0-.74.74V45.33a.74.74,0,0,0,.74.74H48.32a.74.74,0,0,0,.74-.74V27.66a.74.74,0,0,0-.74-.74ZM25.4,44.59v-.43l8.09-8,5.37,6.72a.74.74,0,0,0,.54.28.73.73,0,0,0,.56-.21l2.42-2.43,4.12,4.11Zm22.19-1-4.68-4.63a.74.74,0,0,0-1,0L39.5,41.28l-5.38-6.72a.73.73,0,0,0-.53-.27.74.74,0,0,0-.56.21L25.4,42.08V28.4H47.59Zm-6.68-7.79a2.21,2.21,0,1,0-2.21-2.21,2.21,2.21,0,0,0,2.21,2.21Zm0-2.95a.74.74,0,1,1-.73.74.74.74,0,0,1,.73-.74Z"/></g></g></svg>