<svg xmlns="http://www.w3.org/2000/svg" viewBox="0 0 21.9 6.41"><defs><style>.cls-1{fill:#fff;}.cls-2{fill:#fd4385;}</style></defs><g id="Capa_2" data-name="Capa 2"><g id="Capa_1-2" data-name="Capa 1"><path class="cls-1" d="M.34,3.14V4.19H0V1.67H.71a1.58,1.58,0,0,1,.41.05.78.78,0,0,1,.29.14.62.62,0,0,1,.17.22.88.88,0,0,1,0,.29.69.69,0,0,1,0,.25,1.13,1.13,0,0,1-.12.21.75.75,0,0,1-.2.15.67.67,0,0,1-.26.1.29.29,0,0,1,.11.11l.74,1h-.3a.15.15,0,0,1-.14-.08L.77,3.22A.46.46,0,0,0,.7,3.15H.34Zm0-.25H.69a.77.77,0,0,0,.27,0,.44.44,0,0,0,.19-.1.31.31,0,0,0,.11-.16.42.42,0,0,0,0-.2.41.41,0,0,0-.15-.34.75.75,0,0,0-.44-.11H.34Z"/><path class="cls-1" d="M2.88,2.38a.88.88,0,0,1,.29.05.78.78,0,0,1,.24.16.87.87,0,0,1,.15.25.9.9,0,0,1,.06.34.17.17,0,0,1,0,.09.06.06,0,0,1-.06,0H2.36a1.19,1.19,0,0,0,0,.29.72.72,0,0,0,.12.21.48.48,0,0,0,.17.12A.59.59,0,0,0,2.92,4a.66.66,0,0,0,.21,0l.14-.06.1-.06.08,0a.05.05,0,0,1,0,0l.09.12a.87.87,0,0,1-.14.12l-.17.08a.59.59,0,0,1-.19.05l-.19,0a.9.9,0,0,1-.34-.06A.64.64,0,0,1,2.29,4a.75.75,0,0,1-.18-.3,1.31,1.31,0,0,1-.06-.41,1,1,0,0,1,.06-.35.78.78,0,0,1,.16-.28.81.81,0,0,1,.26-.18A.78.78,0,0,1,2.88,2.38Zm0,.23a.47.47,0,0,0-.36.13.6.6,0,0,0-.16.36h1a.44.44,0,0,0,0-.2.28.28,0,0,0-.08-.15.33.33,0,0,0-.14-.1A.41.41,0,0,0,2.89,2.61Z"/><path class="cls-1" d="M4,4.19V2.41H4.2a.08.08,0,0,1,.08.06l0,.19a.83.83,0,0,1,.22-.2.51.51,0,0,1,.28-.08.39.39,0,0,1,.29.1.53.53,0,0,1,.16.27,1,1,0,0,1,.1-.17l.14-.11.16-.07.17,0a.66.66,0,0,1,.25.05.59.59,0,0,1,.19.13.42.42,0,0,1,.11.21.82.82,0,0,1,0,.28V4.19H6.11V3.05A.48.48,0,0,0,6,2.74a.34.34,0,0,0-.27-.11.32.32,0,0,0-.14,0,.25.25,0,0,0-.12.08.3.3,0,0,0-.09.13.48.48,0,0,0,0,.18V4.19H5.06V3.05A.51.51,0,0,0,5,2.73a.29.29,0,0,0-.25-.1.39.39,0,0,0-.21.06.58.58,0,0,0-.18.17V4.19Z"/><path class="cls-1" d="M7.61,2.38A.86.86,0,0,1,8,2.45a.68.68,0,0,1,.26.18.77.77,0,0,1,.17.29,1.12,1.12,0,0,1,.06.38,1.16,1.16,0,0,1-.06.38A.73.73,0,0,1,8.23,4,.83.83,0,0,1,8,4.15a1,1,0,0,1-.36.06,1,1,0,0,1-.35-.06A.83.83,0,0,1,7,4a.75.75,0,0,1-.18-.28,1.51,1.51,0,0,1-.06-.38,1.44,1.44,0,0,1,.06-.38A.79.79,0,0,1,7,2.63a.68.68,0,0,1,.26-.18A.81.81,0,0,1,7.61,2.38ZM7.61,4A.46.46,0,0,0,8,3.79a.86.86,0,0,0,.13-.49A.9.9,0,0,0,8,2.8a.46.46,0,0,0-.4-.17.59.59,0,0,0-.23,0,.51.51,0,0,0-.16.13.5.5,0,0,0-.1.22,1.14,1.14,0,0,0,0,.28,1.2,1.2,0,0,0,0,.28.51.51,0,0,0,.1.21.4.4,0,0,0,.16.13A.59.59,0,0,0,7.61,4Z"/><path class="cls-1" d="M8.58,2.41h.25l.06,0s0,0,0,0l.45,1.15a.56.56,0,0,1,0,.12l0,.13,0-.13,0-.12L10,2.47l0,0a.07.07,0,0,1,.06,0h.25L9.58,4.19H9.3Z"/><path class="cls-1" d="M11.26,2.38a.93.93,0,0,1,.29.05.63.63,0,0,1,.23.16.72.72,0,0,1,.16.25,1.16,1.16,0,0,1,.05.34.2.2,0,0,1,0,.09.06.06,0,0,1-.06,0H10.73a1.16,1.16,0,0,0,0,.29.72.72,0,0,0,.12.21.41.41,0,0,0,.17.12A.56.56,0,0,0,11.3,4a.56.56,0,0,0,.2,0l.15-.06.1-.06.07,0a.06.06,0,0,1,.06,0l.09.12-.14.12-.17.08a.67.67,0,0,1-.19.05l-.2,0a1,1,0,0,1-.34-.06A.68.68,0,0,1,10.67,4a.75.75,0,0,1-.18-.3,1.31,1.31,0,0,1-.06-.41,1,1,0,0,1,.05-.35,1,1,0,0,1,.17-.28.81.81,0,0,1,.26-.18A.78.78,0,0,1,11.26,2.38Zm0,.23a.45.45,0,0,0-.35.13.6.6,0,0,0-.16.36h1a.64.64,0,0,0,0-.2.38.38,0,0,0-.09-.15.24.24,0,0,0-.14-.1A.38.38,0,0,0,11.26,2.61Z"/><path class="cls-1" d="M12.39,4.19V2.41h.18l.07,0a.16.16,0,0,1,0,.06l0,.28a.82.82,0,0,1,.22-.29.51.51,0,0,1,.32-.1h.13l.11,0,0,.23s0,.05,0,.05l-.08,0-.14,0a.41.41,0,0,0-.27.1.62.62,0,0,0-.19.27V4.19Z"/><circle class="cls-2" cx="18.7" cy="3.2" r="3.2"/><path class="cls-1" d="M18.17,3.38l-.79-1.24h.68l.05.05.5.86a.08.08,0,0,0,0,0l0,0,.45-.77a.11.11,0,0,1,.11-.07h.57L19,3.35l.82,1.34h-.59l-.1,0-.05-.07-.52-.9s0,0,0,.07l-.47.83s0,.05-.06.06a.12.12,0,0,1-.09,0h-.55Z"/></g></g></svg>