<svg xmlns="http://www.w3.org/2000/svg" viewBox="0 0 32.87 32.87"><defs><style>.cls-1{fill:#4e2eed;}</style></defs><title>ico-escudo</title><g id="Capa_2" data-name="Capa 2"><g id="Logo_WINGMAN" data-name="Logo WINGMAN"><g id="Logo_WINGMAN_copy_3_Image" data-name="Logo WINGMAN copy 3 Image"><path class="cls-1" d="M30.48,32.87H22.94a2.39,2.39,0,0,1-2.39-2.39v-4.8a2.39,2.39,0,0,1,2.39-2.39h7.54a2.39,2.39,0,0,1,2.39,2.39v4.8a2.39,2.39,0,0,1-2.39,2.39Zm-7.54-7.53a.34.34,0,0,0-.34.34v4.8a.34.34,0,0,0,.34.34h7.54a.34.34,0,0,0,.34-.34v-4.8a.34.34,0,0,0-.34-.34Z"/><path class="cls-1" d="M29.11,25.34h-4.8a1,1,0,0,1-1-1V21.23a3.43,3.43,0,0,1,6.85,0v3.08a1,1,0,0,1-1,1Zm-3.77-2.05h2.74V21.23a1.37,1.37,0,1,0-2.74,0Z"/><path class="cls-1" d="M11.64,28.76h-.19A14.93,14.93,0,0,1,0,13.6V5.14a1,1,0,0,1,.66-1L11.27.07a1,1,0,0,1,.74,0L22.63,4.18a1,1,0,0,1,.66,1V13.6a17.79,17.79,0,0,1-.14,2.23,1,1,0,1,1-2-.24,18.09,18.09,0,0,0,.11-2V5.84L11.64,2.13,2.05,5.84V13.6c0,10.35,8.15,12.74,9.59,13.08a13.5,13.5,0,0,0,4.55-2.19,1,1,0,0,1,1.23,1.65,15.14,15.14,0,0,1-5.58,2.6.68.68,0,0,1-.2,0Z"/></g></g></g></svg>