<svg xmlns="http://www.w3.org/2000/svg" xmlns:xlink="http://www.w3.org/1999/xlink" viewBox="0 0 79.7 79.7"><defs><style>.cls-1{fill:url(#linear-gradient);}.cls-2{fill:none;stroke:#fff;stroke-miterlimit:10;}.cls-3{fill:url(#linear-gradient-2);}.cls-4{fill:#fff;}</style><linearGradient id="linear-gradient" x1="57.32" y1="87.84" x2="22.38" y2="-8.15" gradientUnits="userSpaceOnUse"><stop offset="0" stop-color="#1c1c38"/><stop offset="1" stop-color="#462d99"/></linearGradient><linearGradient id="linear-gradient-2" x1="43.29" y1="52.63" x2="33.99" y2="27.07" xlink:href="#linear-gradient"/></defs><g id="Capa_2" data-name="Capa 2"><g id="Logo_WINGMAN" data-name="Logo WINGMAN"><g id="Logo_WINGMAN_copy_3_Image" data-name="Logo WINGMAN copy 3 Image"><rect class="cls-1" width="79.7" height="79.7"/><rect class="cls-2" x="13.07" y="11.22" width="52.45" height="55.49"/><rect class="cls-3" x="25.39" y="29.72" width="26.51" height="20.25" rx="1.59"/><path class="cls-4" d="M50.47,30.28H26.81a.74.74,0,0,0-.74.73V48.68a.74.74,0,0,0,.74.74H50.47a.74.74,0,0,0,.74-.74V31a.74.74,0,0,0-.74-.73ZM27.55,48v-.43l8.08-8L41,46.2a.74.74,0,0,0,.53.27.72.72,0,0,0,.57-.21l2.42-2.42L48.64,48Zm22.18-1-4.68-4.64a.75.75,0,0,0-1,0l-2.36,2.37-5.38-6.72a.72.72,0,0,0-.53-.28.8.8,0,0,0-.57.22l-7.62,7.57V31.75H49.73Zm-6.67-7.8a2.21,2.21,0,1,0-2.21-2.21,2.21,2.21,0,0,0,2.21,2.21Zm0-2.94a.74.74,0,1,1-.74.73.73.73,0,0,1,.74-.73Z"/></g></g></g></svg>