<svg xmlns="http://www.w3.org/2000/svg" viewBox="0 0 127.1 127.1"><defs><style>.cls-1{fill:#4e2eed;}</style></defs><g id="Capa_2" data-name="Capa 2"><g id="Logo_WINGMAN" data-name="Logo WINGMAN"><g id="Logo_WINGMAN_copy_3_Image" data-name="Logo WINGMAN copy 3 Image"><path class="cls-1" d="M84.07,27.53h29a1.86,1.86,0,0,0,0-3.72h-29a1.86,1.86,0,1,0,0,3.72Zm0-7.45h29a1.86,1.86,0,0,0,0-3.72h-29a1.86,1.86,0,0,0,0,3.72ZM35.25,7.45a1.86,1.86,0,1,0,1.86,1.86,1.86,1.86,0,0,0-1.86-1.86ZM124,104.76h-2.49V33.53a7.6,7.6,0,0,0,1.87-5V15.35a7.66,7.66,0,0,0-7.65-7.65H101.16V4.84A4.85,4.85,0,0,0,96.32,0H30.78a4.85,4.85,0,0,0-4.84,4.84V11.5h-11a9.31,9.31,0,0,0-9.3,9.31v84H3.1a3.1,3.1,0,0,0-3.1,3.1v8.58A10.67,10.67,0,0,0,10.66,127.1H116.44a10.67,10.67,0,0,0,10.66-10.66v-8.58a3.1,3.1,0,0,0-3.1-3.1Zm-8.27-93.33a3.93,3.93,0,0,1,3.92,3.92V28.54a3.93,3.93,0,0,1-3.92,3.93H94.84a3.19,3.19,0,0,0-2.27.94l-3.72,3.72V35.68a3.21,3.21,0,0,0-3.21-3.21h-4.2a3.94,3.94,0,0,1-3.93-3.93V15.35a3.93,3.93,0,0,1,3.93-3.92Zm-5.39,24.76V92.78h-9.18V36.19ZM29.67,4.84a1.12,1.12,0,0,1,1.11-1.12H96.32a1.12,1.12,0,0,1,1.11,1.12V7.7h-16a7.66,7.66,0,0,0-7.64,7.19H29.67Zm0,13.78H73.79v9.92a7.66,7.66,0,0,0,7.65,7.65h3.68v3.57a2.64,2.64,0,0,0,4.5,1.86l5.43-5.43h2.38V92.78H29.67Zm93.71,97.82a7,7,0,0,1-6.94,6.94H10.66a7,7,0,0,1-6.94-6.94v-8H51v3.1a4.34,4.34,0,0,0,4.34,4.35H71.73a4.34,4.34,0,0,0,4.34-4.35v-3.1h26.58a1.86,1.86,0,0,0,0-3.72H9.31V20.81a5.59,5.59,0,0,1,5.58-5.59H25.94v3.72h-10A2.86,2.86,0,0,0,13,21.8V34.18a1.87,1.87,0,0,0,3.73,0V22.67h9.18V92.78H16.76V42.87a1.87,1.87,0,0,0-3.73,0V93.64a2.86,2.86,0,0,0,2.86,2.86h95.32a2.86,2.86,0,0,0,2.86-2.86V36.19h1.66a7.43,7.43,0,0,0,2.06-.29v68.86h-6.45a1.86,1.86,0,0,0,0,3.72h12Zm-68.63-4.86v-3.1h17.6v3.1a.63.63,0,0,1-.62.63H55.37a.63.63,0,0,1-.62-.63Zm8.8-77.51a5.59,5.59,0,1,0,5.59,5.59,5.6,5.6,0,0,0-5.59-5.59Zm0,7.45a1.87,1.87,0,1,1,1.86-1.86,1.86,1.86,0,0,1-1.86,1.86Zm0,7.45A5.59,5.59,0,0,0,58,54.55V71.74a5.59,5.59,0,0,0,11.18,0V54.55A5.59,5.59,0,0,0,63.55,49Zm1.86,22.77a1.86,1.86,0,0,1-3.72,0V54.55a1.86,1.86,0,0,1,3.72,0ZM42.7,7.45a1.86,1.86,0,1,0,1.86,1.86A1.86,1.86,0,0,0,42.7,7.45Zm7.45,0A1.86,1.86,0,1,0,52,9.31a1.86,1.86,0,0,0-1.86-1.86Z"/></g></g></g></svg>