<svg xmlns="http://www.w3.org/2000/svg" xmlns:xlink="http://www.w3.org/1999/xlink" viewBox="0 0 34.86 34.86"><defs><style>.cls-1{isolation:isolate;}.cls-2{opacity:0;fill:url(#linear-gradient);}.cls-3{opacity:0.06;fill:url(#linear-gradient-2);}.cls-4{opacity:0.13;fill:url(#linear-gradient-3);}.cls-5{opacity:0.19;fill:url(#linear-gradient-4);}.cls-6{opacity:0.25;fill:url(#linear-gradient-5);}.cls-7{opacity:0.31;fill:url(#linear-gradient-6);}.cls-8{opacity:0.38;fill:url(#linear-gradient-7);}.cls-9{opacity:0.44;fill:url(#linear-gradient-8);}.cls-10{opacity:0.5;fill:url(#linear-gradient-9);}.cls-11{opacity:0.56;fill:url(#linear-gradient-10);}.cls-12{opacity:0.63;fill:url(#linear-gradient-11);}.cls-13{opacity:0.69;fill:url(#linear-gradient-12);}.cls-14{opacity:0.75;fill:url(#linear-gradient-13);}.cls-15{opacity:0.81;fill:url(#linear-gradient-14);}.cls-16{opacity:0.88;fill:url(#linear-gradient-15);}.cls-17{opacity:0.94;fill:url(#linear-gradient-16);}.cls-18{fill:url(#linear-gradient-17);}.cls-19{fill:#fff;}.cls-20{fill:#7de314;}.cls-21{mix-blend-mode:multiply;fill:url(#Degradado_sin_nombre_9);}</style><linearGradient id="linear-gradient" y1="17.43" x2="34.86" y2="17.43" gradientUnits="userSpaceOnUse"><stop offset="0" stop-color="#fff"/><stop offset="0.26" stop-color="#fbfcfc"/><stop offset="0.5" stop-color="#f0f1f3"/><stop offset="0.74" stop-color="#dddfe4"/><stop offset="0.97" stop-color="#c3c6d0"/><stop offset="1" stop-color="#bec2cc"/></linearGradient><linearGradient id="linear-gradient-2" x1="0.48" y1="16.6" x2="34.39" y2="18.26" gradientUnits="userSpaceOnUse"><stop offset="0" stop-color="#fff"/><stop offset="0.26" stop-color="#fbfbfc"/><stop offset="0.5" stop-color="#f0f1f3"/><stop offset="0.74" stop-color="#dddfe4"/><stop offset="0.97" stop-color="#c2c6cf"/><stop offset="1" stop-color="#bec2cc"/></linearGradient><linearGradient id="linear-gradient-3" x1="1" y1="15.81" x2="33.89" y2="19.05" gradientUnits="userSpaceOnUse"><stop offset="0" stop-color="#fff"/><stop offset="0.26" stop-color="#fbfbfc"/><stop offset="0.5" stop-color="#f0f1f3"/><stop offset="0.74" stop-color="#dddfe4"/><stop offset="0.97" stop-color="#c2c6cf"/><stop offset="1" stop-color="#bec2cc"/></linearGradient><linearGradient id="linear-gradient-4" x1="1.55" y1="15.07" x2="33.35" y2="19.79" gradientUnits="userSpaceOnUse"><stop offset="0" stop-color="#fff"/><stop offset="0.26" stop-color="#fbfbfc"/><stop offset="0.5" stop-color="#f0f1f3"/><stop offset="0.74" stop-color="#dcdfe4"/><stop offset="0.97" stop-color="#c2c5cf"/><stop offset="1" stop-color="#bec2cc"/></linearGradient><linearGradient id="linear-gradient-5" x1="2.12" y1="14.39" x2="32.78" y2="20.48" gradientUnits="userSpaceOnUse"><stop offset="0" stop-color="#fff"/><stop offset="0.25" stop-color="#fbfbfc"/><stop offset="0.5" stop-color="#f0f1f3"/><stop offset="0.74" stop-color="#dcdee4"/><stop offset="0.98" stop-color="#c1c5cf"/><stop offset="1" stop-color="#bec2cc"/></linearGradient><linearGradient id="linear-gradient-6" x1="2.72" y1="13.75" x2="32.19" y2="21.13" gradientUnits="userSpaceOnUse"><stop offset="0" stop-color="#fff"/><stop offset="0.25" stop-color="#fbfbfc"/><stop offset="0.5" stop-color="#eff0f3"/><stop offset="0.74" stop-color="#dcdee4"/><stop offset="0.98" stop-color="#c1c5ce"/><stop offset="1" stop-color="#bec2cc"/></linearGradient><linearGradient id="linear-gradient-7" x1="3.34" y1="13.16" x2="31.58" y2="21.72" gradientUnits="userSpaceOnUse"><stop offset="0" stop-color="#fff"/><stop offset="0.25" stop-color="#fbfbfc"/><stop offset="0.5" stop-color="#eff0f3"/><stop offset="0.74" stop-color="#dcdee3"/><stop offset="0.98" stop-color="#c0c4ce"/><stop offset="1" stop-color="#bec2cc"/></linearGradient><linearGradient id="linear-gradient-8" x1="3.98" y1="12.62" x2="30.94" y2="22.27" gradientUnits="userSpaceOnUse"><stop offset="0" stop-color="#fff"/><stop offset="0.25" stop-color="#fbfbfc"/><stop offset="0.5" stop-color="#eff0f3"/><stop offset="0.74" stop-color="#dcdee3"/><stop offset="0.98" stop-color="#c0c4ce"/><stop offset="1" stop-color="#bec2cc"/></linearGradient><linearGradient id="linear-gradient-9" x1="4.64" y1="12.13" x2="30.29" y2="22.76" gradientUnits="userSpaceOnUse"><stop offset="0" stop-color="#fff"/><stop offset="0.25" stop-color="#fbfbfc"/><stop offset="0.5" stop-color="#eff0f3"/><stop offset="0.74" stop-color="#dbdee3"/><stop offset="0.99" stop-color="#c0c4cd"/><stop offset="1" stop-color="#bec2cc"/></linearGradient><linearGradient id="linear-gradient-10" x1="5.3" y1="11.69" x2="29.63" y2="23.2" gradientUnits="userSpaceOnUse"><stop offset="0" stop-color="#fff"/><stop offset="0.25" stop-color="#fbfbfc"/><stop offset="0.5" stop-color="#eff0f2"/><stop offset="0.74" stop-color="#dbdde3"/><stop offset="0.99" stop-color="#bfc3cd"/><stop offset="1" stop-color="#bec2cc"/></linearGradient><linearGradient id="linear-gradient-11" x1="5.97" y1="11.31" x2="28.97" y2="23.6" gradientUnits="userSpaceOnUse"><stop offset="0" stop-color="#fff"/><stop offset="0.25" stop-color="#fbfbfc"/><stop offset="0.5" stop-color="#eff0f2"/><stop offset="0.75" stop-color="#dbdde3"/><stop offset="0.99" stop-color="#bfc3cd"/><stop offset="1" stop-color="#bec2cc"/></linearGradient><linearGradient id="linear-gradient-12" x1="6.65" y1="10.97" x2="28.29" y2="23.94" gradientUnits="userSpaceOnUse"><stop offset="0" stop-color="#fff"/><stop offset="0.25" stop-color="#fbfbfc"/><stop offset="0.5" stop-color="#eff0f2"/><stop offset="0.75" stop-color="#dbdde2"/><stop offset="1" stop-color="#bec2cc"/><stop offset="1" stop-color="#bec2cc"/></linearGradient><linearGradient id="linear-gradient-13" x1="7.33" y1="10.68" x2="27.62" y2="24.24" gradientUnits="userSpaceOnUse"><stop offset="0" stop-color="#fff"/><stop offset="0.25" stop-color="#fbfbfc"/><stop offset="0.5" stop-color="#eff0f2"/><stop offset="0.75" stop-color="#dadde2"/><stop offset="1" stop-color="#bec2cc"/></linearGradient><linearGradient id="linear-gradient-14" x1="8.01" y1="10.44" x2="26.94" y2="24.48" gradientUnits="userSpaceOnUse"><stop offset="0" stop-color="#fff"/><stop offset="0.25" stop-color="#fbfbfc"/><stop offset="0.5" stop-color="#eff0f2"/><stop offset="0.75" stop-color="#dadde2"/><stop offset="1" stop-color="#bec2cc"/></linearGradient><linearGradient id="linear-gradient-15" x1="8.68" y1="10.25" x2="26.27" y2="24.68" gradientUnits="userSpaceOnUse"><stop offset="0" stop-color="#fff"/><stop offset="0.24" stop-color="#fbfbfc"/><stop offset="0.5" stop-color="#eef0f2"/><stop offset="0.75" stop-color="#dadce2"/><stop offset="1" stop-color="#bec2cc"/></linearGradient><linearGradient id="linear-gradient-16" x1="9.34" y1="10.1" x2="25.6" y2="24.84" gradientUnits="userSpaceOnUse"><stop offset="0" stop-color="#fff"/><stop offset="0.24" stop-color="#fbfbfc"/><stop offset="0.5" stop-color="#eeeff2"/><stop offset="0.75" stop-color="#dadce2"/><stop offset="1" stop-color="#bec2cc"/></linearGradient><linearGradient id="linear-gradient-17" x1="10" y1="10" x2="24.95" y2="24.95" gradientUnits="userSpaceOnUse"><stop offset="0" stop-color="#fff"/><stop offset="0.24" stop-color="#fbfbfc"/><stop offset="0.5" stop-color="#eeeff2"/><stop offset="0.75" stop-color="#d9dce2"/><stop offset="1" stop-color="#bec2cc"/></linearGradient><linearGradient id="Degradado_sin_nombre_9" x1="18.38" y1="16.78" x2="23.82" y2="22.22" gradientUnits="userSpaceOnUse"><stop offset="0" stop-color="#026838"/><stop offset="0.25" stop-color="#026838" stop-opacity="0.63"/><stop offset="0.53" stop-color="#026838" stop-opacity="0.29"/><stop offset="0.75" stop-color="#026838" stop-opacity="0.08"/><stop offset="0.9" stop-color="#026838" stop-opacity="0"/></linearGradient></defs><g class="cls-1"><g id="Capa_2" data-name="Capa 2"><g id="Logo_WINGMAN" data-name="Logo WINGMAN"><g id="Logo_WINGMAN_copy_3_Image" data-name="Logo WINGMAN copy 3 Image"><path class="cls-2" d="M34.86,17.43A17.43,17.43,0,1,0,17.43,34.86,17.43,17.43,0,0,0,34.86,17.43Z"/><path class="cls-3" d="M34.49,17.43A17.06,17.06,0,1,0,17.43,34.49,17.06,17.06,0,0,0,34.49,17.43Z"/><path class="cls-4" d="M34.12,17.43A16.69,16.69,0,1,0,17.43,34.12,16.69,16.69,0,0,0,34.12,17.43Z"/><path class="cls-5" d="M33.75,17.43A16.32,16.32,0,1,0,17.43,33.75,16.32,16.32,0,0,0,33.75,17.43Z"/><path class="cls-6" d="M33.38,17.43a16,16,0,1,0-16,16A15.95,15.95,0,0,0,33.38,17.43Z"/><path class="cls-7" d="M33,17.43A15.58,15.58,0,1,0,17.43,33,15.58,15.58,0,0,0,33,17.43Z"/><path class="cls-8" d="M32.64,17.43A15.21,15.21,0,1,0,17.43,32.64,15.2,15.2,0,0,0,32.64,17.43Z"/><path class="cls-9" d="M32.27,17.43A14.84,14.84,0,1,0,17.43,32.27,14.84,14.84,0,0,0,32.27,17.43Z"/><path class="cls-10" d="M31.9,17.43A14.47,14.47,0,1,0,17.43,31.89,14.46,14.46,0,0,0,31.9,17.43Z"/><path class="cls-11" d="M31.52,17.43A14.09,14.09,0,1,0,17.43,31.52,14.09,14.09,0,0,0,31.52,17.43Z"/><path class="cls-12" d="M31.15,17.43A13.72,13.72,0,1,0,17.43,31.15,13.72,13.72,0,0,0,31.15,17.43Z"/><path class="cls-13" d="M30.78,17.43A13.35,13.35,0,1,0,17.43,30.78,13.35,13.35,0,0,0,30.78,17.43Z"/><path class="cls-14" d="M30.41,17.43a13,13,0,1,0-13,13A13,13,0,0,0,30.41,17.43Z"/><path class="cls-15" d="M30,17.43A12.61,12.61,0,1,0,17.43,30,12.62,12.62,0,0,0,30,17.43Z"/><path class="cls-16" d="M29.67,17.43A12.24,12.24,0,1,0,17.43,29.67,12.24,12.24,0,0,0,29.67,17.43Z"/><path class="cls-17" d="M29.3,17.43A11.87,11.87,0,1,0,17.43,29.3,11.86,11.86,0,0,0,29.3,17.43Z"/><path class="cls-18" d="M28.93,17.43a11.5,11.5,0,1,0-11.5,11.5A11.49,11.49,0,0,0,28.93,17.43Z"/><path class="cls-19" d="M27.58,22a11.12,11.12,0,1,0-14.7,5.6A11.13,11.13,0,0,0,27.58,22Z"/><circle class="cls-20" cx="17.43" cy="17.43" r="8.06"/><path class="cls-21" d="M25.48,17.44A8.1,8.1,0,0,0,25.35,16l-2.64-2.62-5.84,5.43L15.7,21.89l3.43,3.43A8.06,8.06,0,0,0,25.48,17.44Z"/><path class="cls-19" d="M15.71,21.89,12.12,18.3a1.15,1.15,0,1,1,1.63-1.63l2,2,5.38-5.31A1.15,1.15,0,1,1,22.72,15Z"/></g></g></g></g></svg>