<svg xmlns="http://www.w3.org/2000/svg" viewBox="0 0 20.14 21.97"><defs><style>.cls-1{fill:#4e2eed;}</style></defs><title>info-proyecto</title><g id="Capa_2" data-name="Capa 2"><g id="Capa_1-2" data-name="Capa 1"><path class="cls-1" d="M17.85,22h-11a2.29,2.29,0,0,1-2.28-2.29V6A2.29,2.29,0,0,1,6.86,3.66h11A2.3,2.3,0,0,1,20.14,6V19.68A2.3,2.3,0,0,1,17.85,22ZM6.86,4.58A1.37,1.37,0,0,0,5.49,6V19.68a1.37,1.37,0,0,0,1.37,1.37h11a1.37,1.37,0,0,0,1.37-1.37V6a1.37,1.37,0,0,0-1.37-1.37Z"/><path class="cls-1" d="M3.2,19.22H2.29A2.3,2.3,0,0,1,0,16.93V2.29A2.3,2.3,0,0,1,2.29,0h11a2.3,2.3,0,0,1,2.29,2.29.46.46,0,1,1-.92,0A1.37,1.37,0,0,0,13.27.92h-11A1.37,1.37,0,0,0,.92,2.29V16.93a1.37,1.37,0,0,0,1.37,1.38H3.2a.46.46,0,1,1,0,.91Z"/><path class="cls-1" d="M16,15.56H8.7a.46.46,0,1,1,0-.92H16a.46.46,0,0,1,0,.92Z"/><path class="cls-1" d="M16,19.22H8.7a.46.46,0,1,1,0-.91H16a.46.46,0,0,1,0,.91Z"/><path class="cls-1" d="M16,11.9H8.7a.46.46,0,1,1,0-.92H16a.46.46,0,0,1,0,.92Z"/><path class="cls-1" d="M16,8.24H8.7a.46.46,0,1,1,0-.92H16a.46.46,0,0,1,0,.92Z"/></g></g></svg>