<svg xmlns="http://www.w3.org/2000/svg" viewBox="0 0 209.38 44.53"><defs><style>.cls-1{fill:#4e2eed;}</style></defs><title>letras</title><g id="Capa_2" data-name="Capa 2"><g id="Logo_WINGMAN" data-name="Logo WINGMAN"><g id="Logo_WINGMAN_copy_3_Image" data-name="Logo WINGMAN copy 3 Image"><path class="cls-1" d="M0,.36H7.08L12,27.81c1.17-1.67,2.31-3.34,3.41-5s2.15-3.32,3.15-5L14.35.36h6.76L23.32,11q1.29-2.58,2.4-5.25c.74-1.78,1.39-3.58,2-5.38H33.9a71.3,71.3,0,0,1-3.44,8.8,82.71,82.71,0,0,1-4.67,8.54l2.14,9.41q2.07-2.84,3.9-5.51t3.31-5.29q1.48-2.61,2.76-5.19t2.3-5.25c.7-1.79,1.32-3.62,1.89-5.51h6.69a80.05,80.05,0,0,1-7.57,16.82A139.19,139.19,0,0,1,29.42,34.07H23.06L20.91,23.88q-1.68,2.52-3.47,5.06c-1.19,1.7-2.42,3.41-3.67,5.13h-7Z"/><path class="cls-1" d="M52.75,9.71H58L52.75,34.07H47.59ZM54.86,0H60L58.81,5.68H53.64Z"/><path class="cls-1" d="M64,9.71h4.69l-1,4.88a12.35,12.35,0,0,1,2.93-2.79A14.86,14.86,0,0,1,74.22,10a12.28,12.28,0,0,1,4-.65,6.06,6.06,0,0,1,3.23.74,4.07,4.07,0,0,1,1.67,2,8.13,8.13,0,0,1,.49,3,15.89,15.89,0,0,1-.14,2q-.14,1.08-.33,2.19L79.92,34.07H74.71l3-13.59a9,9,0,0,0,.3-1.6A13.24,13.24,0,0,0,78,17.51a4,4,0,0,0-.77-2.72A2.91,2.91,0,0,0,75,13.94a6.33,6.33,0,0,0-2.83.76,12.39,12.39,0,0,0-2.89,2,10.2,10.2,0,0,0-2.21,2.91L64,34.07H58.81Z"/><path class="cls-1" d="M93.29,44.53a11.55,11.55,0,0,1-6.12-1.41,9.64,9.64,0,0,1-3.54-3.84l3.47-2.73a6.63,6.63,0,0,0,2.79,3,8.68,8.68,0,0,0,4.25,1,9.78,9.78,0,0,0,3.8-.77,8.64,8.64,0,0,0,3.21-2.36,8.75,8.75,0,0,0,1.9-4l.76-3.69a11.92,11.92,0,0,1-4.09,3.51,10.43,10.43,0,0,1-4.88,1.28,7.41,7.41,0,0,1-4.45-1.36,8.44,8.44,0,0,1-2.84-3.62,12.24,12.24,0,0,1-1-4.92,15.31,15.31,0,0,1,1.11-5.8,15.89,15.89,0,0,1,3-4.88,15.18,15.18,0,0,1,4.43-3.38,11.7,11.7,0,0,1,5.3-1.24,7.36,7.36,0,0,1,4.6,1.37,8.4,8.4,0,0,1,2.68,3.62l1-4.62h4.55l-5.11,23.73a12.57,12.57,0,0,1-2.89,6,14.3,14.3,0,0,1-5.3,3.78A17.16,17.16,0,0,1,93.29,44.53Zm4.18-14.17a5.74,5.74,0,0,0,2.16-.43,11,11,0,0,0,2.06-1.1,9.62,9.62,0,0,0,1.79-1.59,8.31,8.31,0,0,0,1.26-1.87L106.15,19a6.37,6.37,0,0,0-1-2.74,6.07,6.07,0,0,0-2-1.83,4.84,4.84,0,0,0-2.51-.67,6.69,6.69,0,0,0-3.35.89A10.23,10.23,0,0,0,94.51,17a11.55,11.55,0,0,0-1.9,3.23,10.18,10.18,0,0,0-.68,3.62,7.84,7.84,0,0,0,.68,3.24,5.9,5.9,0,0,0,2,2.39A5,5,0,0,0,97.47,30.36Z"/><path class="cls-1" d="M119.29,9.71H124l-1,4.88a13.8,13.8,0,0,1,4.41-3.83,10.84,10.84,0,0,1,5.3-1.42,6.56,6.56,0,0,1,3.12.65,4.18,4.18,0,0,1,1.86,1.88,7.71,7.71,0,0,1,.7,3,16.75,16.75,0,0,1,2.93-3A11.6,11.6,0,0,1,144.61,10a10.56,10.56,0,0,1,3.59-.63,6.06,6.06,0,0,1,3.23.74,4.15,4.15,0,0,1,1.69,2.05,8,8,0,0,1,.52,3A14.34,14.34,0,0,1,153.5,17c-.1.68-.22,1.42-.38,2.23l-3.19,14.83h-5.16l2.86-13.59a13.69,13.69,0,0,0,.38-2.93,4.16,4.16,0,0,0-.75-2.73,2.74,2.74,0,0,0-2.21-.88,6,6,0,0,0-2.72.71,9.24,9.24,0,0,0-2.6,2,12.39,12.39,0,0,0-2,3l-3.1,14.41h-5.12l2.87-13.62a11.15,11.15,0,0,0,.3-1.63,13.28,13.28,0,0,0,.07-1.35,4,4,0,0,0-.75-2.68,2.72,2.72,0,0,0-2.16-.85,6.71,6.71,0,0,0-4.1,1.56,11.55,11.55,0,0,0-3.31,4.11l-3.1,14.46h-5.16Z"/><path class="cls-1" d="M165.32,34.54a8.09,8.09,0,0,1-4.69-1.35,8.63,8.63,0,0,1-3-3.63,12.12,12.12,0,0,1-1-5.07,15.26,15.26,0,0,1,1.07-5.69,16.21,16.21,0,0,1,3-4.84A15.32,15.32,0,0,1,165,10.59a11.06,11.06,0,0,1,5.14-1.25,7.05,7.05,0,0,1,4.5,1.44,7.19,7.19,0,0,1,2.49,3.53l1-4.6h5.21L179.4,27.76c0,.13-.05.25-.07.37a2.36,2.36,0,0,0,0,.37c0,.58.34.89,1,.92l-.89,4.41-1.18.17a8.18,8.18,0,0,1-.93.07,3.71,3.71,0,0,1-2.26-.6,2,2,0,0,1-.79-1.65,5.15,5.15,0,0,1,0-.55c0-.19.05-.43.09-.71a7.66,7.66,0,0,1,.21-.86,12.63,12.63,0,0,1-4.31,3.56A11,11,0,0,1,165.32,34.54Zm2.26-4.41a6.2,6.2,0,0,0,2-.37,11.1,11.1,0,0,0,2.06-1,10.32,10.32,0,0,0,1.88-1.5,5.78,5.78,0,0,0,1.29-1.94L176.16,19a6.07,6.07,0,0,0-2.91-4.52,4.89,4.89,0,0,0-2.53-.69,6.83,6.83,0,0,0-3.31.85,9.64,9.64,0,0,0-2.77,2.3,11.93,11.93,0,0,0-1.9,3.19,9.48,9.48,0,0,0-.7,3.56,7.6,7.6,0,0,0,.68,3.28,5.82,5.82,0,0,0,1.92,2.32A5,5,0,0,0,167.58,30.13Z"/><path class="cls-1" d="M189.77,9.71h4.69l-1,4.88a12.35,12.35,0,0,1,2.93-2.79A14.86,14.86,0,0,1,200,10a12.28,12.28,0,0,1,4-.65,6.12,6.12,0,0,1,3.24.74,4.1,4.1,0,0,1,1.66,2,8.13,8.13,0,0,1,.49,3,14.2,14.2,0,0,1-.14,2c-.09.72-.2,1.45-.32,2.19l-3.2,14.83h-5.2l2.95-13.59a10.15,10.15,0,0,0,.31-1.6c0-.48.07-.94.07-1.37a4,4,0,0,0-.78-2.72,2.89,2.89,0,0,0-2.27-.85,6.34,6.34,0,0,0-2.84.76,12.39,12.39,0,0,0-2.89,2,10.16,10.16,0,0,0-2.2,2.91l-3.1,14.46h-5.16Z"/></g></g></g></svg>