<svg xmlns="http://www.w3.org/2000/svg" viewBox="0 0 17.25 19.63"><defs><style>.cls-1{fill:#4e2eed;}</style></defs><g id="Capa_2" data-name="Capa 2"><g id="Capa_1-2" data-name="Capa 1"><path class="cls-1" d="M16.81,12.15a1.72,1.72,0,0,0-1.28-2.87H12.18a11.21,11.21,0,0,0,.47-2.92V5.79a2.3,2.3,0,0,0-2.3-2.3H9.78a.57.57,0,0,0-.56.43L8.9,5.18c-.43,1.75-1.83,3.69-3.27,4A1.72,1.72,0,0,0,4,8.13H.58A.57.57,0,0,0,0,8.7V19.05a.58.58,0,0,0,.58.58H4a1.73,1.73,0,0,0,1.55-1l2,.66a6.17,6.17,0,0,0,2,.33h4.82A1.73,1.73,0,0,0,16.1,17.9a1.64,1.64,0,0,0-.12-.63,1.73,1.73,0,0,0,.83-2.82,1.73,1.73,0,0,0,.44-1.15A1.75,1.75,0,0,0,16.81,12.15ZM4.6,17.9a.58.58,0,0,1-.57.58H1.15V9.28H4a.57.57,0,0,1,.57.57Zm9.78-5.17h1.15a.57.57,0,0,1,.57.57.58.58,0,0,1-.57.58H14.38a.57.57,0,0,0-.58.57.58.58,0,0,0,.58.58h1.15a.57.57,0,0,1,.57.57.58.58,0,0,1-.57.58H14.38a.57.57,0,0,0-.58.57.58.58,0,0,0,.58.58.57.57,0,0,1,.57.57.58.58,0,0,1-.57.58H9.56a5.08,5.08,0,0,1-1.64-.27l-2.17-.72V10.37A4.62,4.62,0,0,0,8.33,8.69,8.37,8.37,0,0,0,10,5.46l.2-.82h.13A1.15,1.15,0,0,1,11.5,5.79v.57A9.06,9.06,0,0,1,11,9.28H9.78a.57.57,0,0,0-.58.57.58.58,0,0,0,.58.58h5.75a.57.57,0,0,1,.57.57.58.58,0,0,1-.57.58H14.38a.57.57,0,0,0-.58.57A.58.58,0,0,0,14.38,12.73Z"/><path class="cls-1" d="M11.5,1.76V.58a.58.58,0,1,0-1.15,0V1.76a.58.58,0,1,0,1.15,0Z"/><path class="cls-1" d="M8.49,3.35a.58.58,0,0,0,0-.81l-.82-.82a.58.58,0,0,0-.81,0,.57.57,0,0,0,0,.82l.81.81A.59.59,0,0,0,8.49,3.35Z"/><path class="cls-1" d="M14.18,3.35,15,2.54a.57.57,0,0,0,0-.82.58.58,0,0,0-.81,0l-.82.82a.58.58,0,0,0,0,.81A.59.59,0,0,0,14.18,3.35Z"/></g></g></svg>