<?xml version="1.0" encoding="utf-8"?>
<!-- Generator: Adobe Illustrator 24.0.2, SVG Export Plug-In . SVG Version: 6.00 Build 0)  -->
<svg version="1.1" id="Capa_1" xmlns="http://www.w3.org/2000/svg" xmlns:xlink="http://www.w3.org/1999/xlink" x="0px" y="0px"
	 viewBox="0 0 261.1 86.5" style="enable-background:new 0 0 261.1 86.5;" xml:space="preserve">
<style type="text/css">
	.st0{fill:#4E2EED;}
	.st1{fill:url(#SVGID_1_);}
	.st2{fill:url(#SVGID_2_);}
	.st3{fill:url(#SVGID_3_);}
	.st4{fill:#FFFFFF;}
	.st5{opacity:0.51;}
</style>
<title>logo-chat</title>
<g>
	<g id="Capa_2_1_">
		<g id="Logo_WINGMAN">
			<g id="Logo_WINGMAN_copy_3_Image">
				<path class="st0" d="M9.9,16.7h5.7l4,22.3c0.9-1.4,1.9-2.7,2.8-4c0.9-1.3,1.7-2.8,2.5-4.1l-3.4-14.2h5.5l1.8,8.6
					c0.7-1.4,1.3-2.8,2-4.3c0.6-1.5,1.1-2.9,1.6-4.4h5.1c-0.8,2.4-1.7,4.8-2.8,7.1c-1.1,2.4-2.4,4.7-3.8,6.9l1.7,7.6
					c1.1-1.5,2.2-3,3.2-4.5s1.9-2.9,2.7-4.3c0.8-1.4,1.5-2.8,2.2-4.2s1.3-2.8,1.9-4.2c0.6-1.4,1.1-2.9,1.5-4.5h5.4
					c-1.5,4.8-3.6,9.4-6.1,13.7c-2.8,4.8-6,9.4-9.6,13.7h-5.2l-1.7-8.3c-0.9,1.3-1.9,2.7-2.8,4.1s-2,2.8-3,4.2h-5.7L9.9,16.7z"/>
				<path class="st0" d="M52.7,24.3h4.2l-4.2,19.8h-4.2L52.7,24.3z M54.4,16.5h4.2l-1,4.6h-4.2L54.4,16.5z"/>
				<path class="st0" d="M61.8,24.3h3.8l-0.8,4c0.7-0.9,1.5-1.6,2.4-2.3c0.9-0.6,1.9-1.1,3-1.5c1-0.4,2.1-0.5,3.2-0.5
					c0.9,0,1.8,0.2,2.6,0.6c0.6,0.4,1.1,0.9,1.3,1.6c0.3,0.8,0.4,1.6,0.4,2.4c0,0.5,0,1.1-0.1,1.6c-0.1,0.6-0.2,1.2-0.3,1.8l-2.6,12
					h-4.2l2.4-11c0.1-0.4,0.2-0.9,0.3-1.3c0-0.4,0.1-0.7,0.1-1.1c0.1-0.8-0.1-1.6-0.6-2.2c-0.5-0.5-1.2-0.8-1.8-0.7
					c-0.8,0-1.6,0.2-2.3,0.6c-0.9,0.4-1.6,1-2.3,1.6c-0.7,0.7-1.3,1.5-1.8,2.4l-2.5,11.8h-4.2L61.8,24.3z"/>
				<path class="st0" d="M85.6,52.6c-1.7,0.1-3.5-0.3-5-1.1c-1.2-0.8-2.2-1.8-2.9-3.1l2.8-2.2c0.5,1,1.3,1.9,2.3,2.4
					c1.1,0.6,2.2,0.9,3.4,0.8c1.1,0,2.1-0.2,3.1-0.6c1-0.4,1.9-1.1,2.6-1.9c0.8-0.9,1.3-2.1,1.5-3.3l0.6-3c-0.9,1.2-2,2.2-3.3,2.8
					c-1.2,0.7-2.6,1-4,1c-1.3,0-2.6-0.4-3.6-1.1c-1-0.7-1.8-1.7-2.3-2.9c-0.5-1.3-0.8-2.6-0.8-4c0-1.6,0.3-3.2,0.9-4.7
					c0.6-1.5,1.4-2.8,2.5-4c1-1.1,2.2-2.1,3.6-2.7c1.3-0.7,2.8-1,4.3-1c1.3-0.1,2.6,0.3,3.7,1.1c1,0.8,1.7,1.8,2.2,2.9l0.8-3.8h3.7
					l-4.2,19.3c-0.3,1.8-1.1,3.5-2.3,4.9c-1.2,1.3-2.7,2.4-4.3,3.1C89.3,52.2,87.5,52.6,85.6,52.6z M89,41.1c0.6,0,1.2-0.1,1.8-0.3
					c0.6-0.2,1.1-0.5,1.7-0.9c0.6-0.4,1.1-0.8,1.5-1.3c0.4-0.5,0.7-1,1-1.5l1.1-5.2c-0.1-0.8-0.4-1.6-0.8-2.2
					c-0.4-0.6-1-1.1-1.6-1.5c-0.6-0.4-1.3-0.5-2-0.5c-1,0-1.9,0.2-2.7,0.7c-0.9,0.5-1.7,1.2-2.3,1.9c-0.7,0.8-1.2,1.7-1.6,2.6
					c-0.4,0.9-0.5,1.9-0.6,2.9c0,0.9,0.2,1.8,0.6,2.6c0.3,0.8,0.9,1.4,1.6,1.9C87.3,40.9,88.2,41.1,89,41.1z"/>
				<path class="st0" d="M106.7,24.3h3.8l-0.8,4c1-1.3,2.2-2.3,3.6-3.1c1.3-0.7,2.8-1.1,4.3-1.2c0.9,0,1.7,0.1,2.5,0.5
					c0.7,0.3,1.2,0.9,1.5,1.5c0.4,0.8,0.5,1.6,0.6,2.4c0.7-0.9,1.5-1.8,2.4-2.5c0.8-0.6,1.7-1.2,2.7-1.5c0.9-0.3,1.9-0.5,2.9-0.5
					c0.9,0,1.8,0.2,2.6,0.6c0.6,0.4,1.1,0.9,1.4,1.6c0.3,0.8,0.4,1.6,0.4,2.5c0,0.5,0,1-0.1,1.5c-0.1,0.5-0.2,1.2-0.3,1.8l-2.6,12
					h-4.2l2.3-11c0.2-0.8,0.3-1.6,0.3-2.4c0.1-0.8-0.2-1.6-0.6-2.2c-0.5-0.5-1.1-0.8-1.8-0.7c-0.8,0-1.5,0.2-2.2,0.6
					c-0.8,0.4-1.5,1-2.1,1.6c-0.7,0.7-1.2,1.5-1.7,2.4l-2.5,11.7h-4.2l2.3-11c0.1-0.4,0.2-0.9,0.3-1.3c0-0.4,0-0.8,0-1.1
					c0.1-0.8-0.1-1.6-0.6-2.2c-0.5-0.5-1.1-0.7-1.8-0.7c-1.2,0.1-2.3,0.5-3.2,1.3c-1.1,0.9-2.1,2-2.7,3.3l-2.5,11.7h-4.2L106.7,24.3
					z"/>
				<path class="st0" d="M144.1,44.5c-1.4,0-2.7-0.3-3.8-1.1c-1.1-0.7-1.9-1.8-2.4-2.9c-0.6-1.3-0.9-2.7-0.8-4.1
					c0-1.6,0.3-3.2,0.9-4.6c0.6-1.4,1.4-2.8,2.4-3.9c1-1.1,2.2-2,3.5-2.7c1.3-0.7,2.7-1,4.2-1c1.3,0,2.6,0.4,3.7,1.2
					c0.9,0.7,1.6,1.7,2,2.9l0.8-3.7h4.2L155.5,39l-0.1,0.3c0,0.1,0,0.2,0,0.3c0,0.5,0.3,0.7,0.8,0.7l-0.7,3.6l-1,0.1
					c-0.3,0-0.5,0.1-0.8,0.1c-0.6,0-1.3-0.1-1.8-0.5c-0.4-0.3-0.7-0.8-0.6-1.3c0-0.2,0-0.3,0-0.5c0-0.2,0-0.4,0.1-0.6
					c0-0.2,0.1-0.5,0.2-0.7c-0.9,1.2-2.1,2.2-3.5,2.9C146.8,44.1,145.4,44.4,144.1,44.5z M145.9,40.9c0.6,0,1.1-0.1,1.6-0.3
					c0.6-0.2,1.1-0.5,1.7-0.8c0.6-0.3,1.1-0.8,1.5-1.2c0.5-0.4,0.8-1,1.1-1.6l1.1-5.2c-0.1-0.8-0.4-1.5-0.8-2.2
					c-0.4-0.6-0.9-1.1-1.6-1.5c-0.6-0.4-1.3-0.6-2.1-0.6c-0.9,0-1.9,0.2-2.7,0.7c-0.9,0.5-1.6,1.1-2.2,1.9c-0.7,0.8-1.2,1.6-1.6,2.6
					c-0.4,0.9-0.6,1.9-0.6,2.9c0,0.9,0.2,1.8,0.6,2.6c0.3,0.8,0.9,1.4,1.6,1.9C144.2,40.7,145.1,40.9,145.9,40.9z"/>
				<path class="st0" d="M163.9,24.3h3.8l-0.8,4c0.7-0.9,1.5-1.6,2.4-2.3c0.9-0.6,1.9-1.1,3-1.5c1-0.4,2.1-0.5,3.2-0.5
					c0.9,0,1.8,0.2,2.6,0.6c0.6,0.4,1,0.9,1.3,1.6c0.3,0.8,0.4,1.6,0.4,2.4c0,0.5,0,1.1-0.1,1.6c-0.1,0.6-0.2,1.2-0.3,1.8l-2.6,12
					h-4.2l2.4-11c0.1-0.4,0.2-0.9,0.3-1.3c0-0.4,0.1-0.8,0.1-1.1c0.1-0.8-0.2-1.6-0.6-2.2c-0.5-0.5-1.2-0.8-1.9-0.7
					c-0.8,0-1.6,0.2-2.3,0.6c-0.9,0.4-1.6,1-2.4,1.6c-0.7,0.7-1.3,1.5-1.8,2.4l-2.5,11.7h-4.2L163.9,24.3z"/>
				<path class="st0" d="M166.4,70.7c-0.9,0-1.9-0.2-2.7-0.6c-0.8-0.4-1.5-0.9-2-1.6c-0.5-0.7-1-1.5-1.2-2.3
					c-0.3-0.9-0.4-1.8-0.4-2.7c0-1,0.2-1.9,0.5-2.9c0.3-1,0.8-1.9,1.4-2.7c0.6-0.9,1.3-1.6,2.1-2.3c0.8-0.7,1.8-1.2,2.8-1.6
					c1.1-0.4,2.2-0.6,3.3-0.6c1.3-0.1,2.7,0.3,3.8,1c0.9,0.6,1.6,1.6,1.9,2.7l-3.4,2.1c-0.1-0.5-0.3-1-0.7-1.4
					c-0.3-0.3-0.7-0.6-1.1-0.7c-0.4-0.1-0.9-0.2-1.3-0.2c-0.8,0-1.6,0.2-2.3,0.6c-0.7,0.4-1.2,0.9-1.6,1.5c-0.9,1.2-1.3,2.6-1.3,4.1
					c0,0.7,0.1,1.4,0.4,2c0.2,0.6,0.6,1.1,1.1,1.5c0.5,0.4,1.1,0.6,1.8,0.6c0.5,0,0.9-0.1,1.4-0.2c0.5-0.2,1-0.4,1.4-0.8
					c0.5-0.4,0.9-0.8,1.1-1.3l2.8,1.9c-0.5,0.9-1.2,1.6-2,2.2c-0.8,0.6-1.8,1.1-2.8,1.4C168.3,70.5,167.3,70.7,166.4,70.7z"/>
				<path class="st0" d="M178.5,53.1h3.8l-1.5,7.2c0.6-0.7,1.3-1.3,2.1-1.7c0.8-0.4,1.6-0.6,2.5-0.6c0.6,0,1.2,0.1,1.8,0.4
					c0.4,0.2,0.7,0.6,0.9,1c0.2,0.5,0.3,0.9,0.3,1.4c0,0.3,0,0.6-0.1,0.9c0,0.3-0.1,0.6-0.1,0.9l-1.7,7.9h-3.8l1.5-6.9
					c0-0.2,0.1-0.3,0.1-0.5c0-0.2,0-0.3,0-0.4c0-0.4-0.1-0.8-0.3-1.1c-0.2-0.2-0.6-0.4-0.9-0.3c-0.3,0-0.6,0.1-0.9,0.3
					c-0.4,0.2-0.7,0.5-1.1,0.8c-0.3,0.3-0.6,0.7-0.9,1.1l-1.5,7.1h-3.8L178.5,53.1z"/>
				<path class="st0" d="M193.8,70.8c-1.7,0.1-3.2-0.9-3.9-2.4c-0.4-0.8-0.5-1.7-0.5-2.6c0-1,0.2-2,0.5-3c0.3-0.9,0.9-1.8,1.5-2.5
					c0.6-0.7,1.4-1.3,2.2-1.7c0.8-0.4,1.7-0.6,2.6-0.6c0.7,0,1.5,0.2,2.1,0.6c0.6,0.4,1,1,1.2,1.7l0.4-2.1h3.8l-1.8,7.9
					c0,0.1,0,0.2,0,0.3c0,0.1,0,0.2,0,0.2c0,0.3,0.2,0.5,0.6,0.6l-0.7,3.2c-0.4,0.1-0.7,0.1-0.9,0.1c-0.2,0-0.5,0-0.7,0
					c-0.5,0-1-0.1-1.5-0.3c-0.4-0.2-0.6-0.7-0.6-1.1v-0.2c0-0.1,0-0.1,0-0.2c0-0.1,0-0.2,0.1-0.2c-0.5,0.8-1.3,1.4-2.1,1.8
					C195.5,70.6,194.7,70.8,193.8,70.8z M195.6,67.6c0.2,0,0.5,0,0.7-0.1c0.3-0.1,0.5-0.2,0.7-0.3c0.3-0.1,0.5-0.3,0.7-0.5
					c0.2-0.2,0.4-0.4,0.6-0.7l0.6-2.6c0-0.4-0.2-0.8-0.4-1.1c-0.2-0.3-0.4-0.6-0.8-0.7c-0.3-0.2-0.6-0.3-1-0.3
					c-0.4,0-0.9,0.1-1.3,0.3c-0.4,0.2-0.8,0.5-1.1,0.9c-0.3,0.4-0.6,0.8-0.7,1.3c-0.2,0.5-0.3,1-0.3,1.5c0,0.4,0.1,0.9,0.3,1.2
					c0.2,0.3,0.4,0.6,0.7,0.9C194.7,67.5,195.1,67.6,195.6,67.6z"/>
				<path class="st0" d="M205.2,68.5c0-0.2,0-0.3,0-0.5c0-0.2,0-0.3,0.1-0.5l1.4-6.4h-1.5l0.6-2.9h1.5l0.9-4h3.8l-0.9,4h2.4
					l-0.6,2.9h-2.4l-1.1,5.1c0,0.1,0,0.1,0,0.2c0,0.1,0,0.1,0,0.2c0,0.2,0.1,0.4,0.2,0.6c0.2,0.1,0.4,0.2,0.6,0.2
					c0.2,0,0.4,0,0.6-0.1c0.2,0,0.4-0.1,0.6-0.2c0.2-0.1,0.4-0.1,0.6-0.2l0.1,3c-0.4,0.2-0.8,0.3-1.2,0.5c-0.4,0.1-0.9,0.2-1.3,0.3
					c-0.4,0.1-0.9,0.1-1.4,0.1c-0.7,0-1.4-0.2-2-0.5C205.5,69.8,205.2,69.1,205.2,68.5z"/>
			</g>
			
				<linearGradient id="SVGID_1_" gradientUnits="userSpaceOnUse" x1="227.8408" y1="111.709" x2="213.1908" y2="28.569" gradientTransform="matrix(1 0 0 -1 0 88.0012)">
				<stop  offset="0" style="stop-color:#00BBFF"/>
				<stop  offset="0.32" style="stop-color:#02BAFE"/>
				<stop  offset="0.44" style="stop-color:#09B4FA"/>
				<stop  offset="0.52" style="stop-color:#14ABF3"/>
				<stop  offset="0.59" style="stop-color:#259EEA"/>
				<stop  offset="0.64" style="stop-color:#3B8DDD"/>
				<stop  offset="0.7" style="stop-color:#5778CE"/>
				<stop  offset="0.74" style="stop-color:#775EBB"/>
				<stop  offset="0.78" style="stop-color:#9D41A5"/>
				<stop  offset="0.82" style="stop-color:#C6218E"/>
				<stop  offset="0.85" style="stop-color:#F00076"/>
			</linearGradient>
			<path class="st1" d="M236.3,7.6h-33.6c-7.5,0-13.6,6.1-13.7,13.6v4.9c0,7.5,6.1,13.7,13.7,13.7h1.9c0,0.3,0,0.6-0.1,0.9
				c-0.4,2.2-1,4.3-1.4,6.5c-0.1,0.4-0.2,0.8,0.2,1c0.7-0.1,1.3-0.5,1.8-0.9c2.8-2.4,5.6-4.8,8.4-7.1c0.1-0.1,0.3-0.2,0.4-0.3h22.4
				c7.5,0,13.6-6.1,13.6-13.7v-4.9C249.9,13.7,243.8,7.7,236.3,7.6z"/>
			
				<linearGradient id="SVGID_2_" gradientUnits="userSpaceOnUse" x1="208.0006" y1="50.0326" x2="244.1606" y2="86.1826" gradientTransform="matrix(1 0 0 -1 0 88.0012)">
				<stop  offset="0.52" style="stop-color:#00BBFF;stop-opacity:0"/>
				<stop  offset="0.88" style="stop-color:#EEFBFF;stop-opacity:0.78"/>
				<stop  offset="1" style="stop-color:#FFFFFF;stop-opacity:0.8"/>
			</linearGradient>
			<path class="st2" d="M236.3,7.6h-33.6c42.9,1.3,40.2,23.3,33.6,32.2c7.5-0.1,13.5-6.2,13.6-13.7v-4.9
				C249.9,13.7,243.8,7.7,236.3,7.6z"/>
			
				<linearGradient id="SVGID_3_" gradientUnits="userSpaceOnUse" x1="208.0006" y1="50.0326" x2="244.1606" y2="86.1826" gradientTransform="matrix(1 0 0 -1 0 88.0012)">
				<stop  offset="0.52" style="stop-color:#00BBFF;stop-opacity:0"/>
				<stop  offset="0.88" style="stop-color:#EEFBFF;stop-opacity:0.78"/>
				<stop  offset="1" style="stop-color:#FFFFFF;stop-opacity:0.8"/>
			</linearGradient>
			<path class="st3" d="M236.3,7.6h-33.6c42.9,1.3,40.2,23.3,33.6,32.2c7.5-0.1,13.5-6.2,13.6-13.7v-4.9
				C249.9,13.7,243.8,7.7,236.3,7.6z"/>
			
				<image style="overflow:visible;enable-background:new    ;" width="102" height="78" xlink:href="88A4936E.png"  transform="matrix(1 0 0 1 169.057 -15.735)">
			</image>
			<path class="st4" d="M232.5,17.3c-1.5,0-3,0.7-4,1.8c-0.9-1.2-2.4-1.8-3.8-1.8c-1,0-1.9,0.3-2.7,0.8l0,0c0-0.3-0.3-0.6-0.6-0.6
				h-3.1c-0.3,0-0.5,0.3-0.6,0.6v5.6c0,1.1-0.9,2-2,2c-1.3,0-1.8-1-1.8-2.2v-5.4c0-0.3-0.3-0.6-0.6-0.6h-2.8c-0.3,0-0.6,0.3-0.6,0.6
				v5.7c0,1.1-0.9,2-2,2c-1.1,0-2-0.8-2-1.9c0-0.1,0-0.2,0-0.3v-5.5c0-0.3-0.3-0.6-0.6-0.6h-3.1c-0.3,0-0.6,0.3-0.6,0.6v5.3
				c0,3.3,1.8,6.1,5.4,6.1c1.5,0,3-0.7,4-1.8c0.9,1.1,2.3,1.8,3.8,1.8c1,0,1.9-0.3,2.7-0.8l0,0c0,0.3,0.2,0.6,0.6,0.6h3.1
				c0.3,0,0.5-0.3,0.6-0.6v-5.6c0-1.1,0.9-2,2-2c1.3,0,1.8,1,1.8,2.2v5.5c0,0.3,0.2,0.6,0.6,0.6h2.8c0.3,0,0.6-0.3,0.6-0.6V23
				c0-1.1,0.9-2,1.9-2c1.1,0,2,0.8,2,1.9c0,0.1,0,0.2,0,0.3v5.5c0,0.3,0.2,0.6,0.6,0.6h3.1c0.3,0,0.6-0.3,0.6-0.6v-5.3
				C237.9,20.1,236.1,17.3,232.5,17.3z"/>
			<g class="st5">
				
					<image style="overflow:visible;enable-background:new    ;" width="168" height="57" xlink:href="88A4936F.png"  transform="matrix(0.22 0 0 0.21 201.117 18.11)">
				</image>
			</g>
			<path class="st4" d="M232.5,17.3c-1.5,0-3,0.7-4,1.8c-0.9-1.2-2.4-1.8-3.8-1.8c-1,0-1.9,0.3-2.7,0.8l0,0c0-0.3-0.3-0.6-0.6-0.6
				h-3.1c-0.3,0-0.5,0.3-0.6,0.6v5.6c0,1.1-0.9,2-2,2c-1.3,0-1.8-1-1.8-2.2v-5.4c0-0.3-0.3-0.6-0.6-0.6h-2.8c-0.3,0-0.6,0.3-0.6,0.6
				v5.7c0,1.1-0.9,2-2,2c-1.1,0-2-0.8-2-1.9c0-0.1,0-0.2,0-0.3v-5.5c0-0.3-0.3-0.6-0.6-0.6h-3.1c-0.3,0-0.6,0.3-0.6,0.6v5.3
				c0,3.3,1.8,6.1,5.4,6.1c1.5,0,3-0.7,4-1.8c0.9,1.1,2.3,1.8,3.8,1.8c1,0,1.9-0.3,2.7-0.8l0,0c0,0.3,0.2,0.6,0.6,0.6h3.1
				c0.3,0,0.5-0.3,0.6-0.6v-5.6c0-1.1,0.9-2,2-2c1.3,0,1.8,1,1.8,2.2v5.5c0,0.3,0.2,0.6,0.6,0.6h2.8c0.3,0,0.6-0.3,0.6-0.6V23
				c0-1.1,0.9-2,1.9-2c1.1,0,2,0.8,2,1.9c0,0.1,0,0.2,0,0.3v5.5c0,0.3,0.2,0.6,0.6,0.6h3.1c0.3,0,0.6-0.3,0.6-0.6v-5.3
				C237.9,20.1,236.1,17.3,232.5,17.3z"/>
		</g>
	</g>
</g>
</svg>
