<svg xmlns="http://www.w3.org/2000/svg" xmlns:xlink="http://www.w3.org/1999/xlink" viewBox="0 0 210.54 91.17"><defs><style>.cls-1{fill:url(#linear-gradient);}.cls-2{fill:#fff;}.cls-3{fill:#4e2eed;}</style><linearGradient id="linear-gradient" x1="186.1" y1="-34.66" x2="169.89" y2="57.26" gradientUnits="userSpaceOnUse"><stop offset="0" stop-color="#0bf"/><stop offset="0.32" stop-color="#02bafe"/><stop offset="0.44" stop-color="#09b4fa"/><stop offset="0.52" stop-color="#14abf3"/><stop offset="0.59" stop-color="#259eea"/><stop offset="0.64" stop-color="#3b8ddd"/><stop offset="0.7" stop-color="#5778ce"/><stop offset="0.74" stop-color="#775ebb"/><stop offset="0.78" stop-color="#9d41a5"/><stop offset="0.82" stop-color="#c6218e"/><stop offset="0.85" stop-color="#f00076"/></linearGradient></defs><title>logo-junto</title><g id="Capa_2" data-name="Capa 2"><g id="Logo_WINGMAN" data-name="Logo WINGMAN"><g id="Logo_WINGMAN_copy_3_Image" data-name="Logo WINGMAN copy 3 Image"><path class="cls-1" d="M195.45,0H158.26a15.1,15.1,0,0,0-15.1,15.1v5.37a15.1,15.1,0,0,0,15.1,15.09h2.11a2.93,2.93,0,0,1-.11.95c-.49,2.42-1.14,4.81-1.6,7.25-.08.39-.26.82.27,1.07a4.18,4.18,0,0,0,2-1c3.1-2.61,6.14-5.29,9.25-7.89.17-.13.33-.24.49-.34h24.8a15.1,15.1,0,0,0,15.09-15.09V15.1A15.1,15.1,0,0,0,195.45,0Z"/><path class="cls-2" d="M192.74,10.38a7.17,7.17,0,0,0-5.06,2.24,6,6,0,0,0-4.81-2.24,6.28,6.28,0,0,0-3.44,1v0a.7.7,0,0,0-.7-.69h-3.86a.72.72,0,0,0-.69.69v7.05A2.48,2.48,0,0,1,171.61,21c-1.66,0-2.32-1.28-2.32-2.75V11.39a.69.69,0,0,0-.69-.69h-3.53a.7.7,0,0,0-.7.69v7.13A2.48,2.48,0,0,1,161.91,21a2.45,2.45,0,0,1-2.46-2.75V11.39a.69.69,0,0,0-.69-.69h-3.89a.69.69,0,0,0-.7.69V18c0,4.18,2.24,7.71,6.79,7.71A7.24,7.24,0,0,0,166,23.51a6,6,0,0,0,4.81,2.24,6.42,6.42,0,0,0,3.44-1v0a.69.69,0,0,0,.69.7h3.86a.72.72,0,0,0,.7-.7v-7a2.48,2.48,0,0,1,2.57-2.57c1.65,0,2.31,1.28,2.31,2.75v6.86a.7.7,0,0,0,.7.7h3.52a.7.7,0,0,0,.7-.7V17.61a2.48,2.48,0,0,1,2.46-2.49,2.45,2.45,0,0,1,2.46,2.75v6.86a.7.7,0,0,0,.7.7h3.89a.69.69,0,0,0,.69-.7V18.09C199.53,13.9,197.3,10.38,192.74,10.38Z"/><path class="cls-3" d="M0,47H7.08L12,74.45c1.17-1.67,2.31-3.34,3.41-5s2.15-3.32,3.15-5L14.35,47h6.76l2.21,10.63q1.29-2.58,2.4-5.25c.74-1.78,1.39-3.58,2-5.38H33.9a71.16,71.16,0,0,1-3.44,8.79,80.69,80.69,0,0,1-4.67,8.54l2.14,9.42q2.07-2.84,3.9-5.52T35.14,63q1.48-2.61,2.76-5.19t2.3-5.25c.7-1.79,1.32-3.62,1.89-5.51h6.69a80.05,80.05,0,0,1-7.57,16.82A139.19,139.19,0,0,1,29.42,80.71H23.06L20.91,70.52Q19.23,73,17.44,75.58C16.25,77.28,15,79,13.77,80.71h-7Z"/><path class="cls-3" d="M52.75,56.35H58L52.75,80.71H47.59Zm2.11-9.71H60l-1.22,5.68H53.64Z"/><path class="cls-3" d="M64,56.35h4.69l-1,4.88a12.35,12.35,0,0,1,2.93-2.79,14.86,14.86,0,0,1,3.66-1.81,12.28,12.28,0,0,1,4-.65,6.06,6.06,0,0,1,3.23.74,4.07,4.07,0,0,1,1.67,2,8.11,8.11,0,0,1,.49,3,16,16,0,0,1-.14,2c-.09.72-.2,1.44-.33,2.19L79.92,80.71H74.71l3-13.59a9,9,0,0,0,.3-1.6A13.24,13.24,0,0,0,78,64.15a4,4,0,0,0-.77-2.72A2.91,2.91,0,0,0,75,60.58a6.33,6.33,0,0,0-2.83.76,12.39,12.39,0,0,0-2.89,2,10.2,10.2,0,0,0-2.21,2.91L64,80.71H58.81Z"/><path class="cls-3" d="M93.29,91.17a11.55,11.55,0,0,1-6.12-1.41,9.6,9.6,0,0,1-3.54-3.85l3.47-2.72a6.63,6.63,0,0,0,2.79,3,8.68,8.68,0,0,0,4.25,1,9.78,9.78,0,0,0,3.8-.77,8.56,8.56,0,0,0,3.21-2.37,8.67,8.67,0,0,0,1.9-4l.76-3.69a12,12,0,0,1-4.09,3.51,10.43,10.43,0,0,1-4.88,1.28,7.35,7.35,0,0,1-4.45-1.37,8.35,8.35,0,0,1-2.84-3.61,12.25,12.25,0,0,1-1-4.93,15.3,15.3,0,0,1,1.11-5.79,15.89,15.89,0,0,1,3-4.88,15.18,15.18,0,0,1,4.43-3.38,11.7,11.7,0,0,1,5.3-1.24,7.36,7.36,0,0,1,4.6,1.37A8.43,8.43,0,0,1,107.75,61l1-4.61h4.55l-5.11,23.73a12.57,12.57,0,0,1-2.89,6,14.42,14.42,0,0,1-5.3,3.78A17.34,17.34,0,0,1,93.29,91.17ZM97.47,77a5.74,5.74,0,0,0,2.16-.43,10.52,10.52,0,0,0,2.06-1.11,9.22,9.22,0,0,0,1.79-1.58A8.31,8.31,0,0,0,104.74,72l1.41-6.38a6.37,6.37,0,0,0-1-2.74,6.07,6.07,0,0,0-2-1.83,4.84,4.84,0,0,0-2.51-.67,6.69,6.69,0,0,0-3.35.89,10.23,10.23,0,0,0-2.8,2.35,11.41,11.41,0,0,0-1.9,3.23,10.18,10.18,0,0,0-.68,3.62,7.79,7.79,0,0,0,.68,3.23,5.86,5.86,0,0,0,2,2.4A5,5,0,0,0,97.47,77Z"/><path class="cls-3" d="M119.29,56.35H124l-1,4.88a13.8,13.8,0,0,1,4.41-3.83,10.84,10.84,0,0,1,5.3-1.42,6.56,6.56,0,0,1,3.12.65,4.18,4.18,0,0,1,1.86,1.88,7.71,7.71,0,0,1,.7,3,16.75,16.75,0,0,1,2.93-3,11.88,11.88,0,0,1,3.34-1.86A10.8,10.8,0,0,1,148.2,56a6.06,6.06,0,0,1,3.23.74,4.15,4.15,0,0,1,1.69,2.05,8,8,0,0,1,.52,3,14.47,14.47,0,0,1-.14,1.86c-.1.68-.22,1.42-.38,2.23l-3.19,14.83h-5.16l2.86-13.59a13.69,13.69,0,0,0,.38-2.93,4.16,4.16,0,0,0-.75-2.73,2.74,2.74,0,0,0-2.21-.88,6,6,0,0,0-2.72.71,9.24,9.24,0,0,0-2.6,2,12.39,12.39,0,0,0-2,3l-3.1,14.41h-5.12l2.87-13.62a11.15,11.15,0,0,0,.3-1.63,13.43,13.43,0,0,0,.07-1.35,4,4,0,0,0-.75-2.68,2.72,2.72,0,0,0-2.16-.85,6.71,6.71,0,0,0-4.1,1.56,11.55,11.55,0,0,0-3.31,4.11l-3.1,14.46h-5.16Z"/><path class="cls-3" d="M165.32,81.18a8.09,8.09,0,0,1-4.69-1.35,8.63,8.63,0,0,1-3-3.63,12.12,12.12,0,0,1-1-5.07,15.26,15.26,0,0,1,1.07-5.69,16.21,16.21,0,0,1,3-4.84A15.32,15.32,0,0,1,165,57.23,11.06,11.06,0,0,1,170.11,56a7.05,7.05,0,0,1,4.5,1.44A7.19,7.19,0,0,1,177.1,61l1-4.6h5.21L179.4,74.4c0,.13-.05.25-.07.37a2.3,2.3,0,0,0,0,.37c0,.58.34.89,1,.92l-.89,4.41-1.18.17a8.18,8.18,0,0,1-.93.07,3.71,3.71,0,0,1-2.26-.6,2,2,0,0,1-.79-1.65,5.15,5.15,0,0,1,0-.55c0-.2.05-.43.09-.71a7.16,7.16,0,0,1,.21-.86,12.75,12.75,0,0,1-4.31,3.56A11,11,0,0,1,165.32,81.18Zm2.26-4.42a6.17,6.17,0,0,0,2-.36,10.56,10.56,0,0,0,2.06-1,9.86,9.86,0,0,0,1.88-1.49A5.78,5.78,0,0,0,174.8,72l1.36-6.37a6,6,0,0,0-1-2.65,5.9,5.9,0,0,0-1.95-1.87,4.89,4.89,0,0,0-2.53-.69,6.83,6.83,0,0,0-3.31.85,9.61,9.61,0,0,0-2.77,2.29,12,12,0,0,0-1.9,3.2,9.48,9.48,0,0,0-.7,3.56,7.6,7.6,0,0,0,.68,3.28,5.82,5.82,0,0,0,1.92,2.32A5,5,0,0,0,167.58,76.76Z"/><path class="cls-3" d="M189.77,56.35h4.69l-1,4.88a12.35,12.35,0,0,1,2.93-2.79A14.86,14.86,0,0,1,200,56.63a12.28,12.28,0,0,1,4-.65,6.12,6.12,0,0,1,3.24.74,4.1,4.1,0,0,1,1.66,2,8.11,8.11,0,0,1,.49,3,14.33,14.33,0,0,1-.14,2c-.09.72-.2,1.44-.32,2.19l-3.2,14.83h-5.2l2.95-13.59a10.15,10.15,0,0,0,.31-1.6c0-.48.07-.94.07-1.37a4,4,0,0,0-.78-2.72,2.89,2.89,0,0,0-2.27-.85,6.34,6.34,0,0,0-2.84.76,12.39,12.39,0,0,0-2.89,2,10.16,10.16,0,0,0-2.2,2.91l-3.1,14.46h-5.16Z"/></g></g></g></svg>