<svg xmlns="http://www.w3.org/2000/svg" viewBox="0 0 104.97 90.85"><defs><style>.cls-1{fill:#4e2eed;}</style></defs><title>manejar-pago</title><g id="Capa_2" data-name="Capa 2"><g id="Logo_WINGMAN" data-name="Logo WINGMAN"><g id="Logo_WINGMAN_copy_3_Image" data-name="Logo WINGMAN copy 3 Image"><path class="cls-1" d="M104.18,27,78,.79a2.67,2.67,0,0,0-3.79,0L59.75,15.21a1.51,1.51,0,0,0,0,2.15,1.53,1.53,0,0,0,2.15,0L76.06,3.19,101.78,28.9,55.45,75.23l-5.4-5.4c.22-.25.44-.5.64-.76l.83-1a2.12,2.12,0,0,0,1.61-.19,5,5,0,0,1,4.64,0,2.14,2.14,0,0,0,2.57-.37l3.52-3.52a1.52,1.52,0,0,0-2.15-2.15l-3.08,3.08a7.89,7.89,0,0,0-4.14-.61l1.08-1.36L62.43,56h0l6.12-6.12a11,11,0,0,0,5-2.88,11.07,11.07,0,1,0-18.44-4.65A18,18,0,0,0,51.77,45L45.7,51.06a2.06,2.06,0,0,1-1.47.6h0a3.12,3.12,0,0,1-2.35-1.79V44.6l31.06-31a7.88,7.88,0,0,0,6.35,0L91.42,25.72a7.91,7.91,0,0,0,0,6.36L66.8,56.7A1.52,1.52,0,1,0,69,58.85L94,33.79a2.17,2.17,0,0,0,.37-2.57,4.93,4.93,0,0,1,0-4.63A2.16,2.16,0,0,0,94,24L81,11a2.15,2.15,0,0,0-2.57-.37,4.93,4.93,0,0,1-4.63,0,2.15,2.15,0,0,0-2.57.37L41.83,40.3V37.42L56.76,22.5a1.52,1.52,0,0,0-.91-2.59c-2.54-.28-5-.49-7-.65-1.38-.11-2.46-.2-3.11-.28a7.75,7.75,0,0,0-6,2.1L26.48,31.55l0,0a13.42,13.42,0,0,0-4.37,6.76c-1.37,5-4.35,14-6.22,17.74L9.4,62.53l-.25-.24a3.34,3.34,0,0,0-4.75,0L1,65.7a3.38,3.38,0,0,0,0,4.76L20.39,89.87a3.38,3.38,0,0,0,4.76,0l3.41-3.42a3.34,3.34,0,0,0,0-4.75l-.25-.25,1.62-1.61a5.79,5.79,0,0,1,2.5-1.48l.06,0,9.74-3.28a18.37,18.37,0,0,0,5.63-3.12l5.69,5.7a2.7,2.7,0,0,0,3.8,0L104.18,30.8a2.67,2.67,0,0,0,0-3.79ZM61.36,52.81,60.25,51.7a1,1,0,0,1,0-1.42l2.17-2.17a3.36,3.36,0,0,1,2.39-1,3.31,3.31,0,0,1,1.75.49ZM60.08,33.53A8,8,0,0,1,72,44.24a4.43,4.43,0,0,0-1.34-3.09,6.23,6.23,0,0,0-4.58-1.93A18.86,18.86,0,0,0,57.92,41,8.1,8.1,0,0,1,60.08,33.53ZM26.41,84.3,23,87.72a.34.34,0,0,1-.46,0L3.14,68.31a.33.33,0,0,1-.1-.23.29.29,0,0,1,.1-.22l3.41-3.42a.31.31,0,0,1,.23-.09.28.28,0,0,1,.22.09L26.41,83.85a.31.31,0,0,1,.1.22A.31.31,0,0,1,26.41,84.3ZM50,65l-1.72,2.17a15.64,15.64,0,0,1-1.44,1.59h0a15.24,15.24,0,0,1-5.58,3.39l-9.71,3.27a8.85,8.85,0,0,0-3.77,2.24L26.16,79.3,11.55,64.68l6.63-6.63a1.41,1.41,0,0,0,.27-.37c2-3.79,5.09-13.2,6.56-18.54a10.32,10.32,0,0,1,3.37-5.21L41.65,23.46l0,0A4.77,4.77,0,0,1,45.34,22c.7.08,1.81.17,3.22.29l3.78.32L39.24,35.72a1.49,1.49,0,0,0-.45,1.07h0V50.11a1.74,1.74,0,0,0,.05.39,6.05,6.05,0,0,0,5.34,4.2h0a5.09,5.09,0,0,0,3.62-1.49l6.07-6.07a15.62,15.62,0,0,1,3.7-2.67h0l.18-.09a16.94,16.94,0,0,1,8.11-2.12,3.38,3.38,0,0,1,2.43.88l.11.12A1.33,1.33,0,0,1,69,44.54a2.57,2.57,0,0,1-.33.79,6.43,6.43,0,0,0-8.35.63l-2.18,2.17a4.06,4.06,0,0,0,0,5.72L59.21,55l-5.85,5.86a.49.49,0,0,0-.12.13L50,65Z"/></g></g></g></svg>