<svg xmlns="http://www.w3.org/2000/svg" viewBox="0 0 47.48 47.48"><defs><style>.cls-1{fill:#f0efeb;}.cls-2{fill:#ee0005;}.cls-3{fill:#f9a000;}.cls-4{fill:#ff6300;}.cls-5{fill:#171614;}</style></defs><title>mastercard</title><g id="Capa_2" data-name="Capa 2"><g id="Logo_WINGMAN" data-name="Logo WINGMAN"><g id="Logo_WINGMAN_copy_3_Image" data-name="Logo WINGMAN copy 3 Image"><path class="cls-1" d="M47.48,23.74A23.74,23.74,0,0,1,5.16,38.52c-.32-.4-.63-.82-.92-1.24A23.74,23.74,0,1,1,47.48,23.74Z"/><path class="cls-2" d="M28.37,19.57A12.24,12.24,0,1,1,16.14,7.33,12.23,12.23,0,0,1,28.37,19.57Z"/><path class="cls-3" d="M43.58,19.57A12.24,12.24,0,1,1,31.34,7.33,12.24,12.24,0,0,1,43.58,19.57Z"/><path class="cls-4" d="M19.1,19.57a12.22,12.22,0,0,0,4.64,9.59,12.25,12.25,0,0,0,0-19.18,12.24,12.24,0,0,0-4.64,9.59Z"/><path class="cls-5" d="M8.73,35.48a1.49,1.49,0,0,0-1.32.87,1.25,1.25,0,0,0-1.14-.87,1.29,1.29,0,0,0-1.16.66v-.31c0-.18-.2-.3-.42-.3s-.45.12-.45.3v1.45c.29.42.6.84.92,1.24V37.2A.83.83,0,0,1,6,36.29a.84.84,0,0,1,.81.9v2.19c0,.21.25.29.46.29s.46-.08.46-.29v-2.2a.82.82,0,1,1,1.64,0v2.17c0,.15.21.3.45.3s.46-.15.46-.3V37.2a1.57,1.57,0,0,0-1.52-1.72Z"/><path class="cls-5" d="M12.5,35.48c-.6,0-1.32.24-1.32.56s.11.46.33.46.33-.26,1-.26a.85.85,0,0,1,.87.94v.16H13c-1.21,0-2,.26-2,1.25a1.07,1.07,0,0,0,1.16,1.15,1.72,1.72,0,0,0,1.32-.68v.31c0,.16.18.3.42.3s.44-.14.44-.3v-2.2a1.59,1.59,0,0,0-1.76-1.69Zm.85,2.69a1,1,0,0,1-.94.87.52.52,0,0,1-.57-.56c0-.56.62-.63,1.29-.63h.22Z"/><path class="cls-5" d="M15.87,36.69c0-.21.19-.5.71-.5s.76.25.94.25.35-.31.35-.45-.65-.51-1.31-.51c-1.1,0-1.49.65-1.49,1.26,0,1.45,2.1.91,2.1,1.82,0,.24-.16.48-.74.48-.75,0-.94-.41-1.16-.41S15,38.89,15,39c0,.34.64.7,1.51.7S18,39.27,18,38.53c0-1.57-2.12-1.07-2.12-1.84Z"/><path class="cls-5" d="M20.55,38.89h-.3c-.46,0-.61-.16-.61-.58v-2.1H20.7c.16,0,.26-.16.26-.34s-.1-.34-.26-.34H19.64v-1.6c0-.17-.24-.29-.47-.29s-.45.12-.45.29v4.38c0,.95.53,1.36,1.53,1.36h.3a.39.39,0,1,0,0-.78Z"/><path class="cls-5" d="M24.57,38.67c-.24,0-.45.33-1.07.33s-1.14-.37-1.14-1v-.2h1.85c.39,0,.79,0,.79-.75a1.65,1.65,0,0,0-1.74-1.62,1.78,1.78,0,0,0-1.82,1.69V38a1.81,1.81,0,0,0,2,1.74c.88,0,1.45-.4,1.45-.66s-.14-.41-.35-.41ZM22.36,37a.85.85,0,0,1,.89-.82.86.86,0,0,1,.89.84c0,.21-.07.26-.33.26H22.36Z"/><path class="cls-5" d="M28,35.48h-.28a1.3,1.3,0,0,0-1.11.73v-.38c0-.18-.19-.3-.42-.3s-.45.12-.45.3v3.54c0,.15.19.3.45.3s.47-.15.47-.3V37.58a1.17,1.17,0,0,1,1.06-1.29H28a.41.41,0,0,0,0-.81Z"/><path class="cls-5" d="M31.56,38.64c-.21,0-.34.29-.92.29a.85.85,0,0,1-1-.93v-.78a.84.84,0,0,1,1-.93c.56,0,.72.27.9.27s.37-.27.37-.44-.55-.64-1.34-.64a1.63,1.63,0,0,0-1.81,1.74V38a1.62,1.62,0,0,0,1.82,1.74c.8,0,1.38-.35,1.38-.66a.44.44,0,0,0-.39-.44Z"/><path class="cls-5" d="M33.93,35.48c-.59,0-1.32.24-1.32.56s.12.46.33.46.34-.26,1-.26a.85.85,0,0,1,.87.94v.16H34.4c-1.22,0-2,.26-2,1.25a1.07,1.07,0,0,0,1.16,1.15,1.69,1.69,0,0,0,1.32-.68v.31c0,.16.19.3.42.3s.45-.14.45-.3v-2.2a1.59,1.59,0,0,0-1.77-1.69Zm.85,2.69a1,1,0,0,1-.93.87.51.51,0,0,1-.57-.56c0-.56.62-.63,1.28-.63h.22Z"/><path class="cls-5" d="M38.89,35.48h-.28a1.3,1.3,0,0,0-1.11.73v-.38c0-.18-.19-.3-.42-.3s-.45.12-.45.3v3.54c0,.15.19.3.45.3s.47-.15.47-.3V37.58a1.17,1.17,0,0,1,1.06-1.29h.28a.41.41,0,0,0,0-.81Z"/><path class="cls-5" d="M42.78,33.07c-.26,0-.46.12-.46.29v2.78a1.28,1.28,0,0,0-1.13-.66,1.66,1.66,0,0,0-1.57,1.72V38a1.7,1.7,0,0,0,1.54,1.74h.12a24.58,24.58,0,0,0,2-2.46V33.36c0-.17-.19-.29-.46-.29Zm-.46,5.14a1,1,0,0,1-.9.72.93.93,0,0,1-.88-.93v-.8a.94.94,0,0,1,.89-.91.89.89,0,0,1,.89.91Z"/></g></g></g></svg>