<svg xmlns="http://www.w3.org/2000/svg" viewBox="0 0 17.25 16.14"><defs><style>.cls-1{fill:#4e2eed;}</style></defs><g id="Capa_2" data-name="Capa 2"><g id="Capa_1-2" data-name="Capa 1"><path class="cls-1" d="M16.81,5.18A1.73,1.73,0,0,0,16,2.36a1.68,1.68,0,0,0,.12-.63A1.72,1.72,0,0,0,14.38,0H9.56a6.44,6.44,0,0,0-2,.32L5.58,1A1.73,1.73,0,0,0,4,0H.57A.58.58,0,0,0,0,.57V10.93a.58.58,0,0,0,.57.57H4a1.73,1.73,0,0,0,1.61-1.09c1.44.35,2.84,2.28,3.27,4l.32,1.25a.57.57,0,0,0,.56.44h.57a2.3,2.3,0,0,0,2.3-2.3v-.58a11.21,11.21,0,0,0-.47-2.91h3.35a1.72,1.72,0,0,0,1.28-2.87,1.75,1.75,0,0,0,.44-1.15A1.71,1.71,0,0,0,16.81,5.18ZM4.6,9.78a.58.58,0,0,1-.58.57H1.15V1.15H4a.58.58,0,0,1,.58.58Z"/></g></g></svg>