<svg xmlns="http://www.w3.org/2000/svg" viewBox="0 0 16.85 16.85"><defs><style>.cls-1{fill:#4e2eed;}</style></defs><title>nocheck-cuadrado</title><g id="Capa_2" data-name="Capa 2"><g id="Capa_1-2" data-name="Capa 1"><path class="cls-1" d="M13,16.85H3.86A3.86,3.86,0,0,1,0,13V3.86A3.86,3.86,0,0,1,3.86,0H13a3.86,3.86,0,0,1,3.85,3.86V13A3.86,3.86,0,0,1,13,16.85ZM3.86,1.62A2.24,2.24,0,0,0,1.62,3.86V13a2.23,2.23,0,0,0,2.24,2.23H13A2.23,2.23,0,0,0,15.23,13V3.86A2.23,2.23,0,0,0,13,1.62Z"/></g></g></svg>