<svg xmlns="http://www.w3.org/2000/svg" viewBox="0 0 48.04 48.04"><defs><style>.cls-1{fill:#fff;}.cls-2{fill:#4e2eed;}</style></defs><title>play_1</title><g id="Capa_2" data-name="Capa 2"><g id="Capa_1-2" data-name="Capa 1"><rect class="cls-1" x="10.66" y="10.1" width="28.83" height="26.38"/><path class="cls-2" d="M24,0A24,24,0,1,0,48,24,24,24,0,0,0,24,0Zm8.3,25.29-12,7.51a1.51,1.51,0,0,1-.79.23,1.47,1.47,0,0,1-.73-.19A1.49,1.49,0,0,1,18,31.53v-15a1.5,1.5,0,0,1,2.29-1.27l12,7.51a1.49,1.49,0,0,1,0,2.54Z"/></g></g></svg>