<svg xmlns="http://www.w3.org/2000/svg" viewBox="0 0 6.98 11.07"><defs><style>.cls-1{fill:#d1e6fd;}.cls-2{fill:#b9dcfc;}.cls-3{fill:#a3d0fc;}.cls-4{fill:#e7f2fd;}.cls-5{fill:#325efa;}</style></defs><title>proveedor</title><g id="Capa_2" data-name="Capa 2"><g id="Capa_1-2" data-name="Capa 1"><path class="cls-1" d="M6.81,9.15V10a.18.18,0,0,1-.17.17H.34A.18.18,0,0,1,.17,10V9.15a1.61,1.61,0,0,1,1.61-1.6.89.89,0,0,0,.75-.41,1,1,0,0,0,.14-.63h0a2.13,2.13,0,0,1-1.31-2V4.46a.53.53,0,0,1-.54-.53V3A3,3,0,0,1,1.62.86,3.17,3.17,0,0,1,5.07.52s0,.06,0,.08L4.79.71A0,0,0,0,0,4.8.8h.13a2.19,2.19,0,0,1,1.63,1h0a1.34,1.34,0,0,0-.38.92V3.9a.56.56,0,0,1-.56.56v.07a2.13,2.13,0,0,1-1.31,2h0a1,1,0,0,0,.14.63.89.89,0,0,0,.75.41,1.61,1.61,0,0,1,1.61,1.6"/><path class="cls-2" d="M6.56,1.83h0a1.34,1.34,0,0,0-.38.92V3.9a.56.56,0,0,1-.56.56V3.29a.17.17,0,0,0-.22-.17,2.31,2.31,0,0,1-1.18.07c-.75-.16-1-.46-1.57-.6a1.05,1.05,0,0,0-1.3,1c0,.22,0,.49,0,.84a.53.53,0,0,1-.54-.53V3A3,3,0,0,1,1.62.86,3.17,3.17,0,0,1,5.07.52s0,.06,0,.08L4.79.71s0,.08,0,.08l.14,0a2.18,2.18,0,0,1,1.62,1"/><path class="cls-1" d="M5.4,3.12a.17.17,0,0,1,.22.17V4.53a2.13,2.13,0,1,1-4.26,0c0-.39,0-.67,0-.91a1.05,1.05,0,0,1,1.3-1c.61.14.82.44,1.57.6A2.31,2.31,0,0,0,5.4,3.12"/><path class="cls-2" d="M6.81,9.15V10c0,.09-.63,1.17-3.32,1.06S.34,10.17.34,10.17A.18.18,0,0,1,.17,10V9.15a1.61,1.61,0,0,1,1.61-1.6.91.91,0,0,0,.75-.41,1.48,1.48,0,0,0,1.92,0,.91.91,0,0,0,.75.41,1.61,1.61,0,0,1,1.61,1.6"/><path class="cls-1" d="M2.65,8.07a1.09,1.09,0,0,1-.26,0A1.61,1.61,0,0,0,.78,9.71v.16a.3.3,0,0,1-.31.3H.34A.18.18,0,0,1,.17,10V9.15a1.61,1.61,0,0,1,1.61-1.6.89.89,0,0,0,.75-.41,1.49,1.49,0,0,0,.2.15.43.43,0,0,1-.08.78"/><path class="cls-3" d="M4.33,8.07a1.09,1.09,0,0,0,.26,0,1.62,1.62,0,0,1,1.62,1.6v.16a.29.29,0,0,0,.3.3h.13A.18.18,0,0,0,6.81,10V9.15A1.61,1.61,0,0,0,5.2,7.55a.89.89,0,0,1-.75-.41,1.49,1.49,0,0,1-.2.15.43.43,0,0,0,.08.78"/><path class="cls-3" d="M4.33,6.86a2.13,2.13,0,0,1-1.68,0,1.3,1.3,0,0,0,0-.35h0a2.12,2.12,0,0,0,1.64,0h0a1.3,1.3,0,0,0,0,.35"/><path class="cls-1" d="M5.07.6c-.21.08-.25.11-.35.1A2.58,2.58,0,0,0,1.48,3.06a.19.19,0,0,1,0,.08,1.61,1.61,0,0,0-.11.8A.27.27,0,0,1,.82,4V3A3,3,0,0,1,1.62.86,3.17,3.17,0,0,1,5.07.52s0,.06,0,.08"/><path class="cls-4" d="M3,5.91a.34.34,0,0,1-.31.6,2.13,2.13,0,0,1-1.34-2c0-.39,0-.67,0-.91A1.07,1.07,0,0,1,1.52,3,.26.26,0,0,1,2,3.18V4.1C2,4,3,5.89,3,5.91"/><path class="cls-5" d="M7,9.15v1a.17.17,0,0,1-.17.17.16.16,0,0,1-.17-.17v-1A1.44,1.44,0,0,0,5.2,7.72a1.07,1.07,0,0,1-.91-.51A.17.17,0,1,1,4.59,7a.72.72,0,0,0,.61.34A1.78,1.78,0,0,1,7,9.15M3.77,7.29a1.3,1.3,0,0,1-1-.2,1.06,1.06,0,0,0,.09-.35,2.31,2.31,0,0,0,3-2.21c0-1.46,0-1.44,0-1.5a.17.17,0,1,0-.34,0V4.53a2,2,0,0,1-3.92,0c0-.39,0-.69,0-.92a.89.89,0,0,1,1.09-.86c.8.2,1.12.69,2.14.65a.18.18,0,0,0,0-.35c-.92.05-1.18-.42-2.05-.63a1.22,1.22,0,0,0-1.51,1.2v.63A.37.37,0,0,1,1,3.93V3a2.83,2.83,0,0,1,.75-2,3,3,0,0,1,3-.42L4.57.62a.17.17,0,0,0,0,.33l.31,0a2,2,0,0,1,1.43.84A1.45,1.45,0,0,0,6,2.76V3.93a.18.18,0,0,0,.17.18.18.18,0,0,0,.18-.18V2.76A1.14,1.14,0,0,1,6.68,2a.18.18,0,0,0,0-.22,2.39,2.39,0,0,0-1.44-1,.17.17,0,0,0,0-.28A4,4,0,0,0,3.34,0,2.74,2.74,0,0,0,.65,3v.89a.7.7,0,0,0,.54.68,2.31,2.31,0,0,0,1.31,2v0a.71.71,0,0,1-.72.71A1.78,1.78,0,0,0,0,9.15v1a.17.17,0,0,0,.17.17.16.16,0,0,0,.17-.17v-1A1.44,1.44,0,0,1,1.78,7.72a1.08,1.08,0,0,0,.78-.34,1.65,1.65,0,0,0,1.28.25.17.17,0,0,0-.07-.34M5.24,9.46H4.72a.17.17,0,0,0-.17.17.17.17,0,0,0,.17.18h.52a.18.18,0,0,0,.17-.18.18.18,0,0,0-.17-.17"/></g></g></svg>