<svg xmlns="http://www.w3.org/2000/svg" viewBox="0 0 68.11 68.45"><defs><style>.cls-1{fill:#4d1cf0;}</style></defs><g id="Capa_2" data-name="Capa 2"><g id="Logo_WINGMAN" data-name="Logo WINGMAN"><g id="Logo_WINGMAN_copy_3_Image" data-name="Logo WINGMAN copy 3 Image"><path class="cls-1" d="M46.36,15.33c-.68,8.84,3.67,3.41,6.8.21,3.42-.67,14.78,2.34,14.56-3.92C67.38,8.32,69.35.11,63.8.24c-3.55.9-20.59-2.85-20.09,3.92C44.1,7,42.25,14.31,46.36,15.33ZM45.7,4.16C44.83.45,62.29,2.89,63.8,2.23c3.39-.19,1.44,7.67,1.93,9.39a1.94,1.94,0,0,1-1.93,1.93H52.92c-.94-.19-3.9,3.51-4.57,4C48.79,9.34,44.75,19,45.7,4.16Z"/><path class="cls-1" d="M65.41,58.81h-1.9c-2-38.09,9.21-35.54-22.43-35.14a1,1,0,0,0,0,2C70.13,26,59.65,20,61.51,58.82H58.19C56.26,25,67.42,29,35,29a9.32,9.32,0,0,0,.59-2.42C39,25.81,36.85,18,37.42,15.65a3.6,3.6,0,0,0-3.57-3.6c0-5.42-9.47-3-12.54-3.47a7,7,0,0,0-7,7c.53,1.95-1.49,10.69,1.86,11A9.32,9.32,0,0,0,16.78,29c-9.69-1.21-6.45,4.49-7,11A8.21,8.21,0,0,0,6.47,42.3c.63-1.51-1.68-17.25,1.76-16.63.86-.14,3.53.54,3.48-1s-2.62-.85-3.48-1a3.77,3.77,0,0,0-3.76,3.75V58.81c-8.28-1-3.62,10.42,2.39,9.59H61.12c4.75.77,10.47-8.15,4.29-9.59ZM55.36,31a.83.83,0,0,1,.83.83v27H47.28c-.24-.9.73-4.74-1-4.66-1.73-.09-.76,3.77-1,4.66H40.49c-.21-.89.67-4.24-1-4.17s-.79,3.29-1,4.17H30.38L28.23,46.68l.82-1.48c2.11.4,5.26-3.64,6.33-5.1,6.14,1.47,10.89,2.88,9.9,10.39a1,1,0,1,0,2,0c.51-4.46-1.14-9.43-5.89-10.71l-6.58-1.93a6.18,6.18,0,0,0-3.24-1.25V33.41A9.87,9.87,0,0,0,33.93,31ZM18.42,39.24c.45-.12,1.55-1,2-.52l3.94,2.94c-.27.06-2,2-2.31,1.61C22.08,43.06,17.76,39.47,18.42,39.24Zm11.15-4.72v3L26,40.36l-3.78-2.83v-3A9.7,9.7,0,0,0,29.57,34.52Zm3.8,4.74c.68.22-3.67,3.72-3.64,3.92-.3.42-1.93-1.45-2.17-1.53l3.77-2.92C31.78,38.28,32.93,39.14,33.37,39.26Zm-8.22,6.25-.75-1.28L26,42.92l1.4,1.2-.78,1.39Zm.26,2h.93l2,11.31h-5ZM42.88,60.81c-.65,3.41-13,1.21-15.17,1.8a2.8,2.8,0,0,1-2.61-1.8ZM16.33,15.55c-.15-6.87,9.79-4.64,13.93-5a1.6,1.6,0,0,1,1.6,1.6c1.57,4.63,4.2-1.87,3.56,8.15-.63,0-1.61.06-1.61-.81.33-7.18-8.17-1.31-12-3.75a2.92,2.92,0,0,0-3.83,2.76c.19,1.25-.23,2-1.6,1.8Zm0,8.72V22.32c5.32.43,2.19-4.94,4.81-4.66a15.21,15.21,0,0,0,9.48,0c1.17-.34,1.29,1,1.2,1.85a3,3,0,0,0,3.6,2.81c-.15.34.35,2.37-.37,2.32-3.18,1.51-.77,8.24-9.18,8.62A7.76,7.76,0,0,1,18.14,26c.09-1.27-1.41-1-1.81-1.73ZM12.62,31h5.2a9.69,9.69,0,0,0,2.36,2.42v3.18c-2,.32-6,2.42-8.39,2.77C12.13,38.63,10.94,30.74,12.62,31ZM6.47,47.65c-.26-5.33,6-6.48,9.94-7.56,1.09,1.45,4.17,5.58,6.3,5.2l.82,1.4L21.38,58.82H13.25c-.2-.89.67-4.24-1-4.17s-.8,3.29-1,4.17H6.47ZM61.12,66.4H6.86c-2.55.34-6.5-3.65-4.28-5.59H23c.77,6.24,13.41,3.07,17.26,3.79A4.79,4.79,0,0,0,45,60.81H65.41c2.22,1.94-1.75,5.93-4.29,5.59Z"/></g></g></g></svg>