<svg xmlns="http://www.w3.org/2000/svg" viewBox="0 0 57.34 68.25"><defs><style>.cls-1{fill:#4d1cf0;}</style></defs><g id="Capa_2" data-name="Capa 2"><g id="Logo_WINGMAN" data-name="Logo WINGMAN"><g id="Logo_WINGMAN_copy_3_Image" data-name="Logo WINGMAN copy 3 Image"><path class="cls-1" d="M54,20.75c-2.45-.32-5.71.4-5.52,3.5-3.33,1.27-2.7,6.22,0,8l-1.2,10.12A23.12,23.12,0,0,0,32.78,32l-.5-1.48a5.53,5.53,0,0,0,3.6-3.1c5.59.51,5-6.26,4.89-9.94,3.23,0,3.14-6.92-.2-6.63-1.9-14.4-24.22-14.4-26.13,0-3.33-.29-3.43,6.65-.19,6.63-.12,3.69-.7,10.45,4.89,9.94a5.53,5.53,0,0,0,3.6,3.1L22.24,32a20.25,20.25,0,0,0-7,3.08c0-.14-2.19-6.72-2.19-6.86-.86-4.39-10.62-3.49-12.61.3-2.64,3,6.88,12.55,7.75,15.15-3.14,6.47-2,15.63,4.94,18.87-.4,2.84,1.32,5.79,4.42,5.76h24.3V53.79c4.6,6.53,15.73,2.85,15.47-5.2V24.06A3.32,3.32,0,0,0,54,20.75ZM48.5,27.37c0-1.19,1.37-1.15,2.21-1.1-.23-3.18.14-3.54,3.32-3.31,2.12-.22.72,6.75,1.1,7.73H50.06A3.37,3.37,0,0,1,48.5,27.37ZM30.82,63.83V66H28a4.36,4.36,0,0,0,.61-2.21Zm1.11-2.21H25.3V56.56c.46-.37,1.33-1.65,2-1.57,1.79-.2,2.67.28,2.4,2.21.94.11,3.35-.48,3.31,1.11-.1.93.49,3.35-1.1,3.31ZM30,30.69l.66,2-3.18,4-3.18-4,.66-2Zm-5.69,5.54c-.15,0-6.64,0-6.81,0a18.08,18.08,0,0,1,5.14-2.08Zm-6.77,2.19h2.8a5.85,5.85,0,0,0-.59,3.32H22c-.57-7.06,8.66-.78,2.2,1.1H17.57C14.7,42.88,14.7,38.38,17.57,38.42Zm-2.21,6c2.5,1,8.54,1,11,0v8.49c-1,.2-2,1.39-2.66,2.06-2.57,0-6.09.29-8.38-1Zm15.46,9.2a3.28,3.28,0,0,0-2.21-.86c-.09-.87.26-13.21-.27-13.63l2.48-3.1Zm5.53-28.48V20.75c2.86,0,2.86,4.45,0,4.41Zm2.21-6a4.39,4.39,0,0,0-2.21-.61V17.43h2.21Zm-.23-8.35H30.82V2.47a10.94,10.94,0,0,1,7.51,8.33ZM28.61,2V10.8H26.4V2A11.65,11.65,0,0,1,28.61,2Zm-4.42.45V10.8h-7.5A11,11,0,0,1,24.19,2.47ZM14.25,13H40.77v2.21H14.25Zm4.42,4.42v1.11a4.36,4.36,0,0,0-2.21.61V17.43ZM16.46,23a2.21,2.21,0,0,1,2.21-2.2v4.41A2.21,2.21,0,0,1,16.46,23Zm4.42,2.21V17.43H34.14c-.44,2.87,1.72,11.18-3.32,11.05-2.79-.31-10.06,1.45-9.94-3.32ZM2.33,29.65c.86-2.16,9.31-3.79,8.38-.13-1,2.27-9.52,3.65-8.38.13Zm3,4.35a9.81,9.81,0,0,0,6.52-2.4l2.1,6.53c-1.35,1.48-.6,7.07-.78,8.9L4.41,34A8.72,8.72,0,0,0,5.31,34ZM8.73,51.68a17.71,17.71,0,0,1,1-5.84L13.15,51v1.43A9.41,9.41,0,0,1,11.82,51l-1.77,1.32c2.94,4.2,8.22,5.24,13,4.86v4.42c-6.72,1-14.46-2.17-14.36-9.94ZM20.88,66c-2,0-6,.52-5.52-2.68,2.18.8,8.68.37,11,.47C26.46,66.67,22.67,66,20.88,66ZM48.72,55c-5.1.1-7.52-5.57-6.85-9.94H39.66V66H33V63.63c3.16-1.08,3.16-7.35,0-8.43V34.3A21,21,0,0,1,46.8,46.19l-.5,4.26,2.19.25,2.1-17.8h4.54C54.22,38.46,58.6,55.28,48.72,55Z"/></g></g></g></svg>