<svg xmlns="http://www.w3.org/2000/svg" viewBox="0 0 17.71 16.89"><defs><style>.cls-1{fill:#ffdc64;}.cls-2{fill:#ffc850;}</style></defs><g id="Capa_2" data-name="Capa 2"><g id="Capa_1-2" data-name="Capa 1"><path class="cls-1" d="M17.29,6.1l-5.74-.53L9.28.28a.46.46,0,0,0-.85,0L6.15,5.57.42,6.1a.46.46,0,0,0-.26.8l4.32,3.81L3.22,16.32a.46.46,0,0,0,.68.5l4.95-2.94,5,2.94a.46.46,0,0,0,.68-.5l-1.27-5.61L17.55,6.9A.46.46,0,0,0,17.29,6.1Z"/><path class="cls-2" d="M10.1,2.2,9.28.28a.46.46,0,0,0-.85,0L6.15,5.57.42,6.1a.46.46,0,0,0-.26.8l4.32,3.81L3.22,16.32a.46.46,0,0,0,.68.5l.66-.39A35.77,35.77,0,0,1,10.1,2.2Z"/><path class="cls-1" d="M17.29,6.1l-5.74-.53L9.28.28a.46.46,0,0,0-.85,0L6.15,5.57.42,6.1a.46.46,0,0,0-.26.8l4.32,3.81L3.22,16.32a.46.46,0,0,0,.68.5l4.95-2.94,5,2.94a.46.46,0,0,0,.68-.5l-1.27-5.61L17.55,6.9A.46.46,0,0,0,17.29,6.1Z"/><path class="cls-2" d="M10.1,2.2,9.28.28a.46.46,0,0,0-.85,0L6.15,5.57.42,6.1a.46.46,0,0,0-.26.8l4.32,3.81L3.22,16.32a.46.46,0,0,0,.68.5l.66-.39A35.77,35.77,0,0,1,10.1,2.2Z"/></g></g></svg>