<svg xmlns="http://www.w3.org/2000/svg" viewBox="0 0 112.81 94.53"><defs><style>.cls-1{fill:#4e2eed;}</style></defs><title>tarjetas</title><g id="Capa_2" data-name="Capa 2"><g id="Logo_WINGMAN" data-name="Logo WINGMAN"><g id="Logo_WINGMAN_copy_3_Image" data-name="Logo WINGMAN copy 3 Image"><path class="cls-1" d="M85.63,14l-8.16,4.16L66.38,2.05A4.82,4.82,0,0,0,59.73.83L2.06,40.55a4.78,4.78,0,0,0-2,3.07,4.71,4.71,0,0,0,.77,3.57l25.27,36.7a4.78,4.78,0,0,0,6.11,1.55,4.15,4.15,0,0,0,.53-.32l3.82-2.62,4.81,9.43A4.77,4.77,0,0,0,47.81,94L110.2,62.22a4.78,4.78,0,0,0,2.09-6.42L92.05,16.09A4.78,4.78,0,0,0,85.63,14ZM20.72,50.9l-9.13,6.28L8,52,68.28,10.42l2.08,3,1.52,2.2L42,36.26,23.24,45.8A4.76,4.76,0,0,0,20.72,50.9Zm53-32.63.92,1.35L63.54,25.26ZM3.21,44.2a1.62,1.62,0,0,1,.66-1L61.53,3.46a1.61,1.61,0,0,1,2.23.4L66.47,7.8,6.18,49.32,3.46,45.38A1.55,1.55,0,0,1,3.21,44.2ZM31,82.5a1.59,1.59,0,0,1-2.21-.41h0L13.4,59.8,22,53.88,35.12,79.64Zm78.49-25.26a1.59,1.59,0,0,1-.69,2.14l-62.4,31.8a1.6,1.6,0,0,1-2.14-.7L24,50.82h0a.09.09,0,0,1,0,0,1.59,1.59,0,0,1,.69-2.14L87.08,16.84a1.59,1.59,0,0,1,2.14.69Z"/><path class="cls-1" d="M78.62,28.29a8,8,0,0,0-4.2,5.77A8,8,0,1,0,78,44.74a8.08,8.08,0,0,0,.73-2.26,7.94,7.94,0,1,0-.09-14.19ZM73.06,45.42A4.78,4.78,0,1,1,75.15,39,4.77,4.77,0,0,1,73.06,45.42ZM84.4,39.64a4.77,4.77,0,1,1,2.09-6.42A4.78,4.78,0,0,1,84.4,39.64Z"/><rect class="cls-1" x="33.1" y="52.66" width="3.18" height="3.18" transform="translate(-20.85 21.67) rotate(-27)"/><rect class="cls-1" x="37.9" y="46.16" width="19.1" height="3.18" transform="translate(-16.51 26.75) rotate(-27)"/><rect class="cls-1" x="34.78" y="53.27" width="25.46" height="3.18" transform="translate(-19.73 27.55) rotate(-27)"/><path class="cls-1" d="M94.41,45.25l-51,26a1.59,1.59,0,0,0-.69,2.14L47,81.92a1.59,1.59,0,0,0,2.14.69l51.05-26a1.59,1.59,0,0,0,.7-2.14L96.55,46A1.6,1.6,0,0,0,94.41,45.25Zm2.92,9.24L49.12,79.05l-2.89-5.67L94.44,48.81Z"/></g></g></g></svg>