<svg xmlns="http://www.w3.org/2000/svg" viewBox="0 0 89.81 89.8"><defs><style>.cls-1{fill:#4e2eed;}</style></defs><title>transferencia</title><g id="Capa_2" data-name="Capa 2"><g id="Logo_WINGMAN" data-name="Logo WINGMAN"><g id="Logo_WINGMAN_copy_3_Image" data-name="Logo WINGMAN copy 3 Image"><path class="cls-1" d="M87.09,79.4a20.56,20.56,0,0,0-4.77-26V41.16h1.87a1.88,1.88,0,0,0,1.88-1.87V33.67h1.87A1.87,1.87,0,0,0,89,30.27L46,.33a1.88,1.88,0,0,0-2.13,0L.8,30.27a1.87,1.87,0,0,0,1.07,3.4H3.74v5.62a1.87,1.87,0,0,0,1.87,1.87H7.48V71.09H5.61A1.88,1.88,0,0,0,3.74,73v6A5.61,5.61,0,0,0,0,84.19v3.74A1.87,1.87,0,0,0,1.87,89.8H87.94a1.87,1.87,0,0,0,1.87-1.87V84.19A5.62,5.62,0,0,0,87.09,79.4Zm-4.77-42h-15V33.67h15Zm-3.74,3.74v9.75a20.22,20.22,0,0,0-7.48-2.17V41.16ZM44.9,4.15,82,29.93H7.84ZM24.32,71.09H22.45V41.16h1.87a1.87,1.87,0,0,0,1.87-1.87V33.67h7.49v5.62a1.87,1.87,0,0,0,1.87,1.87h1.87V71.09H35.55A1.88,1.88,0,0,0,33.68,73v5.61H26.19V73A1.87,1.87,0,0,0,24.32,71.09Zm13.1,3.75h12a20.36,20.36,0,0,0,1.48,3.74H37.42Zm3.74-3.75V41.16h7.49V71.09Zm9.36-33.67H37.42V33.67h15v3.75Zm1.87,3.74h1.87a1.87,1.87,0,0,0,1.87-1.87V33.67h7.48v5.62a1.87,1.87,0,0,0,1.87,1.87h1.88v7.58a20.56,20.56,0,0,0-15,8.68ZM7.48,33.67h15v3.75h-15Zm11.23,7.49V71.09H11.23V41.16ZM7.48,74.84h15v3.74h-15ZM3.74,86.06V84.19a1.87,1.87,0,0,1,1.87-1.87H53.36a20.89,20.89,0,0,0,4.06,3.74Zm82.33,0H81a20.84,20.84,0,0,0,3.93-3.57,1.87,1.87,0,0,1,1.13,1.7Zm-16.84,0A16.84,16.84,0,1,1,86.07,69.22,16.84,16.84,0,0,1,69.23,86.06Z"/><path class="cls-1" d="M67.36,24.9a1.88,1.88,0,0,0-.68-2.1L46.1,7.84l-2.3,3L59.72,22.45H26.19v3.74H65.48A1.89,1.89,0,0,0,67.36,24.9Z"/><path class="cls-1" d="M73,59.87H71.1V56.13H67.36v3.74H65.48a3.74,3.74,0,0,0-3.74,3.74v3.74a3.74,3.74,0,0,0,3.74,3.74H73v3.75H65.48V73H61.74v1.87a3.75,3.75,0,0,0,3.74,3.74h1.88v3.74H71.1V78.58H73a3.74,3.74,0,0,0,3.74-3.74V71.09A3.74,3.74,0,0,0,73,67.35H65.48V63.61H73v1.87h3.74V63.61A3.73,3.73,0,0,0,73,59.87Z"/></g></g></g></svg>