<svg xmlns="http://www.w3.org/2000/svg" xmlns:xlink="http://www.w3.org/1999/xlink" viewBox="0 0 21.56 21.55"><defs><style>.cls-1{fill:none;}.cls-2{fill:#fff;}.cls-3{clip-path:url(#clip-path);}.cls-4{fill:#d1e7ff;}.cls-5{fill:#b9dcff;}.cls-6{fill:#a2d0ff;}.cls-7{fill:#e8f3ff;}.cls-8{fill:#2e58ff;}</style><clipPath id="clip-path"><rect class="cls-1" x="5.16" y="2.47" width="11.25" height="16.61"/></clipPath></defs><g id="Capa_2" data-name="Capa 2"><g id="Capa_1-2" data-name="Capa 1"><circle class="cls-2" cx="10.78" cy="10.78" r="10.78"/><g class="cls-3"><path class="cls-4" d="M16.11,17.17v1.36a.28.28,0,0,1-.28.28H5.73a.29.29,0,0,1-.28-.28V17.17A2.59,2.59,0,0,1,8,14.59a1.45,1.45,0,0,0,1.21-.65,1.69,1.69,0,0,0,.23-1h0A3.42,3.42,0,0,1,7.36,9.74v-.1a.85.85,0,0,1-.87-.85V7.35a4.79,4.79,0,0,1,1.29-3.5c1.48-1.43,3.83-1.31,5.53-.55a.07.07,0,0,1,0,.13l-.44.18a.07.07,0,0,0,0,.14l.21,0a3.49,3.49,0,0,1,2.61,1.64v0a2.07,2.07,0,0,0-.6,1.47V8.74a.9.9,0,0,1-.9.9v.1a3.43,3.43,0,0,1-2.12,3.17h0a1.63,1.63,0,0,0,.23,1,1.43,1.43,0,0,0,1.2.65,2.58,2.58,0,0,1,2.58,2.58Z"/><path class="cls-5" d="M15.71,5.41v0a2.07,2.07,0,0,0-.6,1.47V8.74a.9.9,0,0,1-.9.9V7.75a.28.28,0,0,0-.36-.27A3.72,3.72,0,0,1,12,7.59c-1.21-.26-1.55-.73-2.53-1A1.67,1.67,0,0,0,7.35,8.28c0,.35,0,.79,0,1.36a.85.85,0,0,1-.87-.85V7.35a4.79,4.79,0,0,1,1.29-3.5c1.48-1.43,3.83-1.31,5.53-.55a.07.07,0,0,1,0,.13l-.44.18a.07.07,0,0,0,0,.14l.21,0a3.49,3.49,0,0,1,2.61,1.64Z"/></g><path class="cls-4" d="M13.85,7.48a.28.28,0,0,1,.36.27v2a3.43,3.43,0,1,1-6.85,0c0-.63,0-1.08,0-1.46A1.67,1.67,0,0,1,9.43,6.63c1,.23,1.32.7,2.53,1a3.72,3.72,0,0,0,1.89-.11Z"/><path class="cls-5" d="M16.11,17.17v1.36c0,.15-1,1.88-5.33,1.7s-5-1.42-5-1.42a.29.29,0,0,1-.28-.28V17.17A2.59,2.59,0,0,1,8,14.59a1.45,1.45,0,0,0,1.21-.65,2.38,2.38,0,0,0,3.09,0,1.43,1.43,0,0,0,1.2.65,2.58,2.58,0,0,1,2.58,2.58Z"/><path class="cls-4" d="M9.43,15.43a1.4,1.4,0,0,1-.41.06,2.59,2.59,0,0,0-2.6,2.57v.26a.49.49,0,0,1-.48.49H5.73a.29.29,0,0,1-.28-.28V17.17A2.59,2.59,0,0,1,8,14.59a1.45,1.45,0,0,0,1.21-.65,1.5,1.5,0,0,0,.33.23.7.7,0,0,1-.14,1.26Z"/><path class="cls-6" d="M12.14,15.43a1.31,1.31,0,0,0,.41.06,2.58,2.58,0,0,1,2.59,2.57v.26a.49.49,0,0,0,.49.49h.2a.28.28,0,0,0,.28-.28V17.17a2.58,2.58,0,0,0-2.58-2.58,1.43,1.43,0,0,1-1.2-.65,2.19,2.19,0,0,1-.33.23.7.7,0,0,0,.14,1.26Z"/><g class="cls-3"><path class="cls-5" d="M12.14,13.49a3.4,3.4,0,0,1-2.71,0,2.46,2.46,0,0,0,0-.57h0a3.4,3.4,0,0,0,2.62,0h0a2,2,0,0,0,0,.57Z"/><path class="cls-4" d="M13.31,3.43c-.32.14-.4.18-.55.16-2.74-.45-4.91,1-5.2,3.79a.57.57,0,0,1,0,.14,2.52,2.52,0,0,0-.17,1.27.43.43,0,0,1-.86,0V7.35a4.79,4.79,0,0,1,1.29-3.5c1.48-1.43,3.83-1.31,5.53-.55a.07.07,0,0,1,0,.13Z"/><path class="cls-7" d="M10,12a.55.55,0,0,1-.5,1A3.43,3.43,0,0,1,7.36,9.74c0-.63,0-1.07,0-1.46a1.67,1.67,0,0,1,.27-.94.41.41,0,0,1,.76.25c0,.38,0,.83,0,1.46A3.41,3.41,0,0,0,10,12Z"/><path class="cls-8" d="M16.39,17.17v1.64a.28.28,0,0,1-.56,0V17.17a2.3,2.3,0,0,0-2.3-2.3,1.7,1.7,0,0,1-1.46-.82.28.28,0,0,1,.47-.29,1.14,1.14,0,0,0,1,.55,2.86,2.86,0,0,1,2.86,2.86Zm-5.16-3a2.14,2.14,0,0,1-1.64-.33,1.72,1.72,0,0,0,.15-.56,3.7,3.7,0,0,0,4.74-3.56c0-2.34,0-2.31,0-2.4a.28.28,0,1,0-.55,0V9.74a3.15,3.15,0,0,1-6.3,0c0-.62,0-1.1,0-1.46A1.42,1.42,0,0,1,9.37,6.89c1.28.31,1.8,1.11,3.44,1a.28.28,0,0,0,.26-.29.27.27,0,0,0-.29-.27c-1.48.07-1.89-.68-3.28-1A2,2,0,0,0,7.07,8.28c0,.29,0,.62,0,1a.54.54,0,0,1-.31-.5V7.34A4.48,4.48,0,0,1,8,4.05a4.71,4.71,0,0,1,4.76-.68l-.22.09a.28.28,0,0,0,.08.53l.48.06a3.19,3.19,0,0,1,2.3,1.34,2.37,2.37,0,0,0-.54,1.51V8.79a.28.28,0,0,0,.55,0V6.9a1.81,1.81,0,0,1,.53-1.28.3.3,0,0,0,0-.35,3.75,3.75,0,0,0-2.31-1.69.28.28,0,0,0-.06-.46,6.64,6.64,0,0,0-3-.65c-2.77.11-4.39,2.18-4.33,4.88V8.79a1.12,1.12,0,0,0,.87,1.09,3.71,3.71,0,0,0,2.11,3.21v.07A1.15,1.15,0,0,1,8,14.31a2.87,2.87,0,0,0-2.86,2.86v1.64a.28.28,0,0,0,.56,0V17.17A2.3,2.3,0,0,1,8,14.87a1.72,1.72,0,0,0,1.26-.55,2.62,2.62,0,0,0,2.06.41.29.29,0,0,0,.21-.33.27.27,0,0,0-.33-.21Zm2.35,3.48h-.83a.28.28,0,0,0,0,.55h.83a.28.28,0,1,0,0-.55Z"/></g><circle class="cls-1" cx="10.78" cy="10.78" r="10.78"/></g></g></svg>