<svg xmlns="http://www.w3.org/2000/svg" xmlns:xlink="http://www.w3.org/1999/xlink" viewBox="0 0 6.14 9.64"><defs><style>.cls-1{fill:none;}.cls-2{fill:#f9a4c5;}.cls-3{fill:#fde0ec;}.cls-4{fill:#f9689e;}.cls-5{clip-path:url(#clip-path);}.cls-6{fill:#ff004b;}</style><clipPath id="clip-path" transform="translate(-0.01 0)"><rect class="cls-1" width="6.16" height="9.09"/></clipPath></defs><title>usuario</title><g id="Capa_2" data-name="Capa 2"><g id="Capa_1-2" data-name="Capa 1"><path class="cls-2" d="M5.6,1.66v0a1.14,1.14,0,0,0-.33.8v1a.5.5,0,0,1-.49.5v-1a.15.15,0,0,0-.2-.14,2.07,2.07,0,0,1-1,.06c-.66-.15-.85-.4-1.39-.53A.92.92,0,0,0,1,3.23c0,.2,0,.44,0,.75a.48.48,0,0,1-.48-.47V2.72A2.65,2.65,0,0,1,1.26.81a2.79,2.79,0,0,1,3-.3,0,0,0,0,1,0,.07L4,.68s0,.07,0,.07l.12,0a1.89,1.89,0,0,1,1.43.89" transform="translate(-0.01 0)"/><path class="cls-2" d="M4.76,2.72A.15.15,0,0,1,5,2.87V4A1.88,1.88,0,1,1,1.2,4v-.8a.91.91,0,0,1,1.14-.9c.54.12.72.38,1.38.53a2,2,0,0,0,1-.07" transform="translate(-0.01 0)"/><path class="cls-2" d="M6,8V8.7c0,.09-.55,1-2.91.93S.31,8.85.31,8.85A.15.15,0,0,1,.16,8.7V8A1.41,1.41,0,0,1,1.57,6.55a.8.8,0,0,0,.66-.36,1.29,1.29,0,0,0,1.69,0,.8.8,0,0,0,.66.36A1.41,1.41,0,0,1,6,8" transform="translate(-0.01 0)"/><path class="cls-3" d="M2.34,7.4a.85.85,0,0,1-.23,0A1.42,1.42,0,0,0,.69,8.84V9a.27.27,0,0,1-.26.27H.31A.15.15,0,0,1,.16,9.1V8.35A1.41,1.41,0,0,1,1.57,6.94a.77.77,0,0,0,.66-.36l.18.13a.38.38,0,0,1-.07.69" transform="translate(-0.01 0)"/><path class="cls-4" d="M3.82,7.4a.78.78,0,0,0,.22,0A1.42,1.42,0,0,1,5.46,8.84V9a.27.27,0,0,0,.27.27h.11A.15.15,0,0,0,6,9.1V8.35A1.41,1.41,0,0,0,4.58,6.94a.79.79,0,0,1-.66-.36.83.83,0,0,1-.18.13.38.38,0,0,0,.08.69" transform="translate(-0.01 0)"/><g class="cls-5"><path class="cls-4" d="M3.82,6A1.86,1.86,0,0,1,2.34,6a1.42,1.42,0,0,0,0-.31h0a1.89,1.89,0,0,0,1.44,0h0a1,1,0,0,0,0,.31" transform="translate(-0.01 0)"/><path class="cls-3" d="M4.46.53c-.18.07-.22.1-.3.08A2.28,2.28,0,0,0,1.31,2.69a.19.19,0,0,1,0,.07,1.46,1.46,0,0,0-.09.7.24.24,0,0,1-.47,0V2.67A2.63,2.63,0,0,1,1.43.76a2.77,2.77,0,0,1,3-.3s0,0,0,.07" transform="translate(-0.01 0)"/><path class="cls-3" d="M2.65,5.19a.3.3,0,0,1-.27.53A1.88,1.88,0,0,1,1.2,4v-.8a.93.93,0,0,1,.15-.52.23.23,0,0,1,.42.14v.8a1.85,1.85,0,0,0,.88,1.59" transform="translate(-0.01 0)"/><path class="cls-6" d="M6.15,8.05v.89A.15.15,0,0,1,6,9.09a.16.16,0,0,1-.16-.15V8.05A1.26,1.26,0,0,0,4.58,6.78a.92.92,0,0,1-.8-.44.16.16,0,0,1,.05-.21.15.15,0,0,1,.21,0,.63.63,0,0,0,.54.3A1.57,1.57,0,0,1,6.15,8.05M3.32,6.41a1.12,1.12,0,0,1-.89-.18,1,1,0,0,0,.08-.3A2,2,0,0,0,5.1,4c0-1.28,0-1.26,0-1.32a.15.15,0,1,0-.3,0V4A1.72,1.72,0,0,1,1.36,4c0-.34,0-.6,0-.8a.77.77,0,0,1,.95-.76C3,2.59,3.29,3,4.19,3a.15.15,0,0,0,.14-.16.15.15,0,0,0-.16-.15c-.81,0-1-.37-1.79-.55A1.07,1.07,0,0,0,1.05,3.18v.55a.3.3,0,0,1-.17-.27V2.67A2.44,2.44,0,0,1,1.54.87,2.57,2.57,0,0,1,4.15.49L4,.54a.15.15,0,0,0,.05.29l.26,0a1.77,1.77,0,0,1,1.26.74,1.29,1.29,0,0,0-.3.82v1a.16.16,0,0,0,.16.15.15.15,0,0,0,.15-.15v-1a1,1,0,0,1,.28-.7.15.15,0,0,0,0-.19A2.08,2.08,0,0,0,4.64.61a.15.15,0,0,0,0-.25A3.67,3.67,0,0,0,2.94,0,2.41,2.41,0,0,0,.58,2.67v.79a.62.62,0,0,0,.47.6A2,2,0,0,0,2.21,5.81v0a.64.64,0,0,1-.64.63A1.56,1.56,0,0,0,0,8.05v.89a.15.15,0,0,0,.15.15.15.15,0,0,0,.15-.15V8.05A1.27,1.27,0,0,1,1.57,6.78a.94.94,0,0,0,.69-.29,1.48,1.48,0,0,0,1.13.22.15.15,0,0,0-.07-.3M4.61,8.32H4.16A.14.14,0,0,0,4,8.47a.15.15,0,0,0,.15.15h.45a.15.15,0,0,0,.15-.15.14.14,0,0,0-.15-.15" transform="translate(-0.01 0)"/></g></g></g></svg>