<svg xmlns="http://www.w3.org/2000/svg" xmlns:xlink="http://www.w3.org/1999/xlink" viewBox="0 0 45.65 45.64"><defs><style>.cls-1{fill:none;}.cls-2{fill:#fff;}.cls-3{clip-path:url(#clip-path);}.cls-4{fill:#d1e7ff;}.cls-5{fill:#b9dcff;}.cls-6{fill:#a2d0ff;}.cls-7{fill:#e8f3ff;}</style><clipPath id="clip-path"><rect class="cls-1" x="10.91" y="5.23" width="23.82" height="35.18"/></clipPath></defs><g id="Capa_2" data-name="Capa 2"><g id="Capa_1-2" data-name="Capa 1"><circle class="cls-2" cx="22.82" cy="22.82" r="22.82"/><g class="cls-3"><path class="cls-4" d="M11.53,36.36A5.48,5.48,0,0,1,17,30.89a3,3,0,0,0,2.55-1.38A3.41,3.41,0,0,0,20,27.36l0,0a7.27,7.27,0,0,1-4.49-6.71V20.4a1.9,1.9,0,0,1-1.9-1.9V14.61a4.42,4.42,0,0,0-1.27-3.11,0,0,0,0,1,0-.05A7.41,7.41,0,0,1,17.91,8l.45-.05a.15.15,0,0,0,0-.28l-.94-.38a.15.15,0,0,1,0-.27C21.06,5.38,26,5.13,29.18,8.16c2.7,2.6,2.75,6.34,2.73,7.4v3a1.81,1.81,0,0,1-1.84,1.8v.23a7.26,7.26,0,0,1-4.48,6.71v0a3.47,3.47,0,0,0,.49,2.15,3,3,0,0,0,2.55,1.38,5.47,5.47,0,0,1,5.46,5.47v2.88a.58.58,0,0,1-.58.58H12.12a.59.59,0,0,1-.59-.58V36.36Z"/><path class="cls-5" d="M12.39,11.45A7.41,7.41,0,0,1,17.91,8l.45-.05a.15.15,0,0,0,0-.28l-.94-.38a.15.15,0,0,1,0-.27C21.06,5.38,26,5.13,29.18,8.16c2.7,2.6,2.75,6.34,2.73,7.4v3a1.81,1.81,0,0,1-1.84,1.8c0-1.19,0-2.13,0-2.87A3.56,3.56,0,0,0,25.68,14c-2.08.5-2.8,1.5-5.35,2a7.86,7.86,0,0,1-4-.24.59.59,0,0,0-.76.56v4a1.9,1.9,0,0,1-1.9-1.9V14.61a4.42,4.42,0,0,0-1.27-3.11,0,0,0,0,1,0-.05Z"/></g><path class="cls-4" d="M16.32,15.84a7.86,7.86,0,0,0,4,.24c2.55-.55,3.27-1.55,5.35-2a3.56,3.56,0,0,1,4.41,3.5c0,.81,0,1.77,0,3.1a7.26,7.26,0,1,1-14.51,0V16.4a.59.59,0,0,1,.76-.56Z"/><path class="cls-5" d="M11.53,36.36A5.48,5.48,0,0,1,17,30.89a3,3,0,0,0,2.55-1.38,5,5,0,0,0,6.54,0,3,3,0,0,0,2.55,1.38,5.47,5.47,0,0,1,5.46,5.47v2.88a.58.58,0,0,1-.58.58s-1.56,2.64-10.7,3-11.29-3.28-11.29-3.6V36.36Z"/><path class="cls-4" d="M25.69,32.66a1.46,1.46,0,0,1-.3-2.65,4.25,4.25,0,0,0,.7-.5,3,3,0,0,0,2.55,1.38,5.47,5.47,0,0,1,5.46,5.47v2.88a.58.58,0,0,1-.58.58h-.44a1,1,0,0,1-1-1v-.55a5.48,5.48,0,0,0-5.49-5.45,2.74,2.74,0,0,1-.87-.14Z"/><path class="cls-6" d="M20,32.66A1.46,1.46,0,0,0,20.24,30a4.64,4.64,0,0,1-.69-.5A3,3,0,0,1,17,30.89a5.48,5.48,0,0,0-5.47,5.47v2.88a.59.59,0,0,0,.59.58h.44a1,1,0,0,0,1-1v-.55a5.48,5.48,0,0,1,5.49-5.45,2.74,2.74,0,0,0,.87-.14Z"/><g class="cls-3"><path class="cls-5" d="M20,28.57A4.55,4.55,0,0,0,20,27.36l0,0a7.28,7.28,0,0,0,5.54,0v0a4.52,4.52,0,0,0,.09,1.21,7.33,7.33,0,0,1-5.74,0Z"/><path class="cls-4" d="M17.46,7.27a.15.15,0,0,1,0-.27C21.06,5.38,26,5.13,29.18,8.16c2.7,2.6,2.75,6.34,2.73,7.4,0,3.26,0,3.06,0,3.14a.91.91,0,0,1-1.82-.08,5.3,5.3,0,0,0-.35-2.7.75.75,0,0,1-.09-.3c-.62-5.94-5.2-9-11-8-.31.05-.47,0-1.16-.33Z"/><path class="cls-7" d="M24.46,25.32a7.21,7.21,0,0,0,3.42-6.15c0-1.34,0-2.28,0-3.11a.88.88,0,0,1,1.62-.52,3.55,3.55,0,0,1,.58,2c0,.82,0,1.76,0,3.1a7.25,7.25,0,0,1-4.56,6.74,1.16,1.16,0,0,1-1.05-2.05Z"/></g><circle class="cls-1" cx="22.83" cy="22.82" r="22.82"/></g></g></svg>