<svg xmlns="http://www.w3.org/2000/svg" viewBox="0 0 22.31 15.34"><defs><style>.cls-1{fill:#4e2eed;}</style></defs><g id="Capa_2" data-name="Capa 2"><g id="Capa_1-2" data-name="Capa 1"><path class="cls-1" d="M21.62,1.39H19.53a.71.71,0,0,0-.5.21L17.85,2.79H16.74v-.7A2.1,2.1,0,0,0,14.64,0H2.09A2.1,2.1,0,0,0,0,2.09V13.25a2.1,2.1,0,0,0,2.09,2.09H14.64a2.1,2.1,0,0,0,2.1-2.09v-.7h1.11L19,13.74a.69.69,0,0,0,.49.21h2.09a.7.7,0,0,0,.69-.7V2.09A.7.7,0,0,0,21.62,1.39Zm-.7,11.16H19.81l-1.19-1.19a.7.7,0,0,0-.49-.2H16a.69.69,0,0,0-.7.69v1.4a.7.7,0,0,1-.7.7H2.09a.71.71,0,0,1-.7-.7V2.09a.71.71,0,0,1,.7-.7H14.64a.7.7,0,0,1,.7.7v7h1.4V4.18h1.39a.68.68,0,0,0,.5-.2l1.18-1.19h1.11Z"/><rect class="cls-1" x="6.28" y="4.88" width="1.39" height="1.39"/><rect class="cls-1" x="9.07" y="4.88" width="1.39" height="1.39"/><path class="cls-1" d="M10.46,9.07H6.28v-.7H4.88v.7a1.4,1.4,0,0,0,1.4,1.39h4.18a1.39,1.39,0,0,0,1.39-1.39v-.7H10.46Z"/></g></g></svg>