<svg xmlns="http://www.w3.org/2000/svg" viewBox="0 0 48.08 15.05"><defs><style>.cls-1{fill:#2394bc;}.cls-2{fill:#efc75e;}</style></defs><title>visa</title><g id="Capa_2" data-name="Capa 2"><g id="Capa_1-2" data-name="Capa 1"><path class="cls-1" d="M19.65,0,17.24,15H21.1L23.51,0ZM31.29,6.12c-1.35-.67-2.18-1.12-2.18-1.8s.7-1.25,2.23-1.25a6.79,6.79,0,0,1,2.87.55l.35.16L35.08.64A9.6,9.6,0,0,0,31.62,0c-3.81,0-6.49,2-6.51,4.81,0,2.09,1.92,3.25,3.38,3.95s2,1.17,2,1.81c0,1-1.2,1.42-2.31,1.42a7.86,7.86,0,0,1-3.62-.77L24.05,11l-.54,3.26a12.14,12.14,0,0,0,4.3.78c4.05,0,6.68-2,6.72-5,0-1.66-1-2.93-3.24-4ZM45,.05H42a1.91,1.91,0,0,0-2,1.2L34.24,15h4l1.11-3h4.53l.58,3h3.57ZM40.53,9c.08,0,1.55-4.86,1.55-4.86L43.26,9ZM14,0,10.24,10.2l-.41-2a11.24,11.24,0,0,0-5.34-6.1L8,15H12L18.1,0Z"/><path class="cls-2" d="M8.56,1.94A2.53,2.53,0,0,0,6.05,0h-6L0,.28C4.67,1.43,8.59,5,9.86,8.3Z"/></g></g></svg>