<svg xmlns="http://www.w3.org/2000/svg" viewBox="0 0 56.97 56.97"><defs><style>.cls-1{fill:#4e2eed;}</style></defs><title>wallet</title><g id="Capa_2" data-name="Capa 2"><g id="Capa_1-2" data-name="Capa 1"><rect class="cls-1" x="48.42" y="26.58" width="1.9" height="1.9"/><rect class="cls-1" x="12.34" y="51.27" width="1.9" height="1.9"/><rect class="cls-1" x="8.54" y="20.89" width="1.9" height="1.9"/><rect class="cls-1" x="12.34" y="20.89" width="1.9" height="1.9"/><rect class="cls-1" x="8.54" y="51.27" width="1.9" height="1.9"/><rect class="cls-1" x="4.75" y="20.89" width="1.9" height="1.9"/><rect class="cls-1" x="16.14" y="51.27" width="1.9" height="1.9"/><rect class="cls-1" x="31.33" y="51.27" width="1.9" height="1.9"/><rect class="cls-1" x="35.13" y="51.27" width="1.9" height="1.9"/><rect class="cls-1" x="19.94" y="51.27" width="1.9" height="1.9"/><rect class="cls-1" x="4.75" y="51.27" width="1.9" height="1.9"/><rect class="cls-1" x="23.74" y="51.27" width="1.9" height="1.9"/><rect class="cls-1" x="27.53" y="51.27" width="1.9" height="1.9"/><rect class="cls-1" x="48.42" y="45.57" width="1.9" height="1.9"/><rect class="cls-1" x="42.72" y="20.89" width="1.9" height="1.9"/><rect class="cls-1" x="48.42" y="49.37" width="1.9" height="1.9"/><rect class="cls-1" x="42.72" y="51.27" width="1.9" height="1.9"/><rect class="cls-1" x="46.52" y="51.27" width="1.9" height="1.9"/><rect class="cls-1" x="38.93" y="51.27" width="1.9" height="1.9"/><rect class="cls-1" x="46.52" y="20.89" width="1.9" height="1.9"/><rect class="cls-1" x="48.42" y="22.79" width="1.9" height="1.9"/><path class="cls-1" d="M24.75,28.94,27.81,32a1,1,0,0,0,.67.28.93.93,0,0,0,.67-.28l3.06-3.06a26.14,26.14,0,0,0,7.67-18.5,1,1,0,0,0-1-.95,12.73,12.73,0,0,1-9.06-3.75L29.15,5a.93.93,0,0,0-.67-.28,1,1,0,0,0-.67.28l-.72.71a12.69,12.69,0,0,1-9,3.75,1,1,0,0,0-.95.95,26.17,26.17,0,0,0,7.66,18.5ZM28.44,7.09l0,0,.05,0A14.57,14.57,0,0,0,38,11.36,24.22,24.22,0,0,1,30.87,27.6L28.48,30,26.1,27.6A24.22,24.22,0,0,1,19,11.36a14.57,14.57,0,0,0,9.43-4.27Z"/><path class="cls-1" d="M25.63,19.94v2.85a2.85,2.85,0,0,0,5.7,0V19.94a4.75,4.75,0,1,0-5.7,0Zm2.85-6.65a2.85,2.85,0,0,1,1.43,5.32.94.94,0,0,0-.48.82v3.36a.95.95,0,1,1-1.9,0V19.43a1,1,0,0,0-.47-.82,2.85,2.85,0,0,1,1.42-5.32Z"/><path class="cls-1" d="M56,31.33h-1V18a1,1,0,0,0-1-.95h-11A36.89,36.89,0,0,0,44.62,6.65a.94.94,0,0,0-.95-1H42.24A18.43,18.43,0,0,1,29.15.28.93.93,0,0,0,28.48,0a1,1,0,0,0-.67.28A18.39,18.39,0,0,1,14.73,5.7H13.29a1,1,0,0,0-.95,1,37.62,37.62,0,0,0,1.48,10.44h-11A2.86,2.86,0,0,0,0,19.94V54.12A2.86,2.86,0,0,0,2.85,57H54.12a1,1,0,0,0,1-.95V42.72h1a1,1,0,0,0,.95-.94v-9.5a1,1,0,0,0-.95-1ZM14.73,7.6A20.24,20.24,0,0,0,28.48,2.26,20.25,20.25,0,0,0,42.24,7.6h.47A35.7,35.7,0,0,1,32.26,31.91l-3.78,3.78-3.77-3.78A35.76,35.76,0,0,1,14.25,7.6ZM53.17,55.07H2.85a1,1,0,0,1-1-1v-.95h1v-1.9h-1V22.79h1v-1.9h-1v-.95a.94.94,0,0,1,1-1H14.43c.24.69.5,1.37.78,2.05a37.42,37.42,0,0,0,8.15,12.21l4.45,4.45a1,1,0,0,0,.67.28.93.93,0,0,0,.67-.28l4.45-4.45A37.45,37.45,0,0,0,41.76,21c.28-.68.54-1.36.78-2.05H53.17V31.33H50.32v-.95h-1.9v.95H45.57a5.7,5.7,0,0,0,0,11.39h2.85v1h1.9v-1h2.85Zm1.9-14.24h-9.5a3.8,3.8,0,0,1,0-7.6h9.5Z"/><path class="cls-1" d="M42.72,37a2.85,2.85,0,1,0,2.85-2.85A2.86,2.86,0,0,0,42.72,37Zm3.8,0a1,1,0,0,1-.58.88,1,1,0,0,1-1-.21,1,1,0,0,1-.2-1,.95.95,0,0,1,1.82.37Z"/></g></g></svg>